%TF.GenerationSoftware,KiCad,Pcbnew,8.0.7*%
%TF.CreationDate,2025-07-07T17:53:02+05:30*%
%TF.ProjectId,SRF_V1,5352465f-5631-42e6-9b69-6361645f7063,rev?*%
%TF.SameCoordinates,Original*%
%TF.FileFunction,Plated,1,2,PTH,Drill*%
%TF.FilePolarity,Positive*%
%FSLAX46Y46*%
G04 Gerber Fmt 4.6, Leading zero omitted, Abs format (unit mm)*
G04 Created by KiCad (PCBNEW 8.0.7) date 2025-07-07 17:53:02*
%MOMM*%
%LPD*%
G01*
G04 APERTURE LIST*
%TA.AperFunction,ComponentDrill*%
%ADD10C,0.200000*%
%TD*%
%TA.AperFunction,ViaDrill*%
%ADD11C,0.300000*%
%TD*%
%TA.AperFunction,ComponentDrill*%
%ADD12C,0.750000*%
%TD*%
%TA.AperFunction,ComponentDrill*%
%ADD13C,0.800000*%
%TD*%
%TA.AperFunction,ComponentDrill*%
%ADD14C,0.900000*%
%TD*%
%TA.AperFunction,ComponentDrill*%
%ADD15C,1.000000*%
%TD*%
%TA.AperFunction,ComponentDrill*%
%ADD16C,1.100000*%
%TD*%
%TA.AperFunction,ComponentDrill*%
%ADD17C,1.300000*%
%TD*%
G04 APERTURE END LIST*
D10*
%TO.C,U1*%
X77440000Y-77160000D03*
X77440000Y-78560000D03*
X78140000Y-76460000D03*
X78140000Y-77860000D03*
X78140000Y-79260000D03*
X78815000Y-77160000D03*
X78815000Y-78560000D03*
X79540000Y-76460000D03*
X79540000Y-77860000D03*
X79540000Y-79260000D03*
X80240000Y-77160000D03*
X80240000Y-78560000D03*
%TD*%
D11*
X74300000Y-78600000D03*
X84800000Y-72550000D03*
X90800000Y-87550000D03*
X91150000Y-76550000D03*
X91250000Y-83000000D03*
X91550000Y-83900000D03*
D12*
%TO.C,Q1*%
X92600000Y-89000000D03*
X93870000Y-89000000D03*
X95140000Y-89000000D03*
%TO.C,Q3*%
X98050000Y-109100000D03*
X98050000Y-110370000D03*
X98050000Y-111640000D03*
%TO.C,Q2*%
X98100000Y-124650000D03*
X98100000Y-125920000D03*
X98100000Y-127190000D03*
D13*
%TO.C,R5*%
X68400000Y-81580000D03*
X68400000Y-89200000D03*
%TO.C,U3*%
X92010000Y-104350000D03*
X92010000Y-111970000D03*
%TO.C,U2*%
X92075000Y-124200000D03*
X92075000Y-131820000D03*
%TO.C,U3*%
X94550000Y-104350000D03*
X94550000Y-111970000D03*
%TO.C,U2*%
X94615000Y-124200000D03*
X94615000Y-131820000D03*
%TO.C,R3*%
X95450000Y-94290000D03*
X95450000Y-101910000D03*
%TO.C,R1*%
X95450000Y-114200000D03*
X95450000Y-121820000D03*
%TO.C,R4*%
X98600000Y-94340000D03*
X98600000Y-101960000D03*
%TO.C,R2*%
X98600000Y-114210000D03*
X98600000Y-121830000D03*
D14*
%TO.C,D6*%
X62730000Y-79500000D03*
X65270000Y-79500000D03*
%TO.C,D1*%
X68500000Y-71040000D03*
X68500000Y-78660000D03*
%TO.C,D2*%
X72230000Y-91300000D03*
X79850000Y-91300000D03*
%TO.C,D5*%
X92050000Y-94390000D03*
X92050000Y-102010000D03*
%TO.C,D4*%
X92050000Y-114300000D03*
X92050000Y-121920000D03*
%TO.C,D3*%
X101100000Y-71290000D03*
X101100000Y-78910000D03*
D15*
%TO.C,K2*%
X86650000Y-95050000D03*
X86650000Y-107050000D03*
%TO.C,K1*%
X86800000Y-111370000D03*
X86800000Y-123370000D03*
%TO.C,J2*%
X92420000Y-71710000D03*
X92420000Y-74250000D03*
X94960000Y-71710000D03*
X94960000Y-74250000D03*
X97500000Y-71710000D03*
X97500000Y-74250000D03*
D16*
%TO.C,J4*%
X62740000Y-84220000D03*
X62740000Y-86760000D03*
X62740000Y-89300000D03*
%TO.C,J1*%
X62850000Y-72310000D03*
X62850000Y-74850000D03*
%TO.C,SW1*%
X92600000Y-78650000D03*
X92600000Y-85150000D03*
X97100000Y-78650000D03*
X97100000Y-85150000D03*
D17*
%TO.C,J5*%
X64245000Y-96205000D03*
X64245000Y-101285000D03*
%TO.C,J3*%
X64400000Y-112520000D03*
X64400000Y-117600000D03*
%TO.C,K2*%
X74400000Y-107100000D03*
X74450000Y-95050000D03*
%TO.C,K1*%
X74550000Y-123420000D03*
X74600000Y-111370000D03*
%TO.C,K2*%
X88600000Y-101100000D03*
%TO.C,K1*%
X88750000Y-117420000D03*
M02*
