%TF.GenerationSoftware,KiCad,Pcbnew,8.0.7*%
%TF.CreationDate,2025-07-07T17:53:00+05:30*%
%TF.ProjectId,SRF_V1,5352465f-5631-42e6-9b69-6361645f7063,rev?*%
%TF.SameCoordinates,Original*%
%TF.FileFunction,Copper,L2,Bot*%
%TF.FilePolarity,Positive*%
%FSLAX46Y46*%
G04 Gerber Fmt 4.6, Leading zero omitted, Abs format (unit mm)*
G04 Created by KiCad (PCBNEW 8.0.7) date 2025-07-07 17:53:00*
%MOMM*%
%LPD*%
G01*
G04 APERTURE LIST*
%TA.AperFunction,ComponentPad*%
%ADD10O,1.600000X1.600000*%
%TD*%
%TA.AperFunction,ComponentPad*%
%ADD11R,1.600000X1.600000*%
%TD*%
%TA.AperFunction,HeatsinkPad*%
%ADD12C,0.600000*%
%TD*%
%TA.AperFunction,ComponentPad*%
%ADD13C,2.000000*%
%TD*%
%TA.AperFunction,ComponentPad*%
%ADD14C,1.600000*%
%TD*%
%TA.AperFunction,ComponentPad*%
%ADD15R,1.500000X1.050000*%
%TD*%
%TA.AperFunction,ComponentPad*%
%ADD16O,1.500000X1.050000*%
%TD*%
%TA.AperFunction,ComponentPad*%
%ADD17O,1.050000X1.500000*%
%TD*%
%TA.AperFunction,ComponentPad*%
%ADD18R,1.050000X1.500000*%
%TD*%
%TA.AperFunction,ComponentPad*%
%ADD19C,3.000000*%
%TD*%
%TA.AperFunction,ComponentPad*%
%ADD20C,2.500000*%
%TD*%
%TA.AperFunction,ComponentPad*%
%ADD21R,2.600000X2.600000*%
%TD*%
%TA.AperFunction,ComponentPad*%
%ADD22C,2.600000*%
%TD*%
%TA.AperFunction,ComponentPad*%
%ADD23C,2.200000*%
%TD*%
%TA.AperFunction,ComponentPad*%
%ADD24R,2.200000X2.200000*%
%TD*%
%TA.AperFunction,ComponentPad*%
%ADD25O,1.700000X1.700000*%
%TD*%
%TA.AperFunction,ComponentPad*%
%ADD26R,1.700000X1.700000*%
%TD*%
%TA.AperFunction,ComponentPad*%
%ADD27C,1.800000*%
%TD*%
%TA.AperFunction,ComponentPad*%
%ADD28R,1.800000X1.800000*%
%TD*%
%TA.AperFunction,ComponentPad*%
%ADD29O,1.800000X1.800000*%
%TD*%
%TA.AperFunction,ViaPad*%
%ADD30C,0.600000*%
%TD*%
%TA.AperFunction,Conductor*%
%ADD31C,0.300000*%
%TD*%
%TA.AperFunction,Conductor*%
%ADD32C,0.350000*%
%TD*%
%TA.AperFunction,Conductor*%
%ADD33C,0.200000*%
%TD*%
%TA.AperFunction,Conductor*%
%ADD34C,4.000000*%
%TD*%
G04 APERTURE END LIST*
D10*
%TO.P,U3,4*%
%TO.N,5v*%
X92010000Y-104350000D03*
%TO.P,U3,3*%
%TO.N,Net-(R4-Pad1)*%
X94550000Y-104350000D03*
%TO.P,U3,2*%
%TO.N,GND*%
X94550000Y-111970000D03*
D11*
%TO.P,U3,1*%
%TO.N,Net-(R3-Pad1)*%
X92010000Y-111970000D03*
%TD*%
%TO.P,U2,1*%
%TO.N,Net-(R1-Pad1)*%
X92075000Y-131820000D03*
D10*
%TO.P,U2,2*%
%TO.N,GND*%
X94615000Y-131820000D03*
%TO.P,U2,3*%
%TO.N,Net-(R2-Pad1)*%
X94615000Y-124200000D03*
%TO.P,U2,4*%
%TO.N,5v*%
X92075000Y-124200000D03*
%TD*%
D12*
%TO.P,U1,39,GND*%
%TO.N,GND*%
X77440000Y-77160000D03*
X77440000Y-78560000D03*
X78140000Y-76460000D03*
X78140000Y-77860000D03*
X78140000Y-79260000D03*
X78815000Y-77160000D03*
X78815000Y-78560000D03*
X79540000Y-76460000D03*
X79540000Y-77860000D03*
X79540000Y-79260000D03*
X80240000Y-77160000D03*
X80240000Y-78560000D03*
%TD*%
D13*
%TO.P,SW1,2,2*%
%TO.N,Net-(Q1-B)*%
X92600000Y-85150000D03*
X92600000Y-78650000D03*
%TO.P,SW1,1,1*%
%TO.N,/EN*%
X97100000Y-85150000D03*
X97100000Y-78650000D03*
%TD*%
D10*
%TO.P,R5,2*%
%TO.N,Net-(D6-A)*%
X68400000Y-81580000D03*
D14*
%TO.P,R5,1*%
%TO.N,/status*%
X68400000Y-89200000D03*
%TD*%
D10*
%TO.P,R4,2*%
%TO.N,Net-(Q3-B)*%
X98600000Y-101960000D03*
D14*
%TO.P,R4,1*%
%TO.N,Net-(R4-Pad1)*%
X98600000Y-94340000D03*
%TD*%
%TO.P,R3,1*%
%TO.N,Net-(R3-Pad1)*%
X95450000Y-101910000D03*
D10*
%TO.P,R3,2*%
%TO.N,/OP2*%
X95450000Y-94290000D03*
%TD*%
D14*
%TO.P,R2,1*%
%TO.N,Net-(R2-Pad1)*%
X98600000Y-121830000D03*
D10*
%TO.P,R2,2*%
%TO.N,Net-(Q2-B)*%
X98600000Y-114210000D03*
%TD*%
D14*
%TO.P,R1,1*%
%TO.N,Net-(R1-Pad1)*%
X95450000Y-121820000D03*
D10*
%TO.P,R1,2*%
%TO.N,/OP1*%
X95450000Y-114200000D03*
%TD*%
D15*
%TO.P,Q3,1,C*%
%TO.N,Net-(D5-A)*%
X98050000Y-109100000D03*
D16*
%TO.P,Q3,2,B*%
%TO.N,Net-(Q3-B)*%
X98050000Y-110370000D03*
%TO.P,Q3,3,E*%
%TO.N,GND*%
X98050000Y-111640000D03*
%TD*%
D15*
%TO.P,Q2,1,C*%
%TO.N,Net-(D4-A)*%
X98100000Y-124650000D03*
D16*
%TO.P,Q2,2,B*%
%TO.N,Net-(Q2-B)*%
X98100000Y-125920000D03*
%TO.P,Q2,3,E*%
%TO.N,GND*%
X98100000Y-127190000D03*
%TD*%
D17*
%TO.P,Q1,3,E*%
%TO.N,GND*%
X92600000Y-89000000D03*
%TO.P,Q1,2,B*%
%TO.N,Net-(Q1-B)*%
X93870000Y-89000000D03*
D18*
%TO.P,Q1,1,C*%
%TO.N,/EN*%
X95140000Y-89000000D03*
%TD*%
D19*
%TO.P,K2,1*%
%TO.N,Net-(J5-Pin_2)*%
X88600000Y-101100000D03*
D20*
%TO.P,K2,2*%
%TO.N,Net-(D5-A)*%
X86650000Y-95050000D03*
D19*
%TO.P,K2,3*%
%TO.N,Net-(J5-Pin_1)*%
X74450000Y-95050000D03*
%TO.P,K2,4*%
%TO.N,unconnected-(K2-Pad4)*%
X74400000Y-107100000D03*
D20*
%TO.P,K2,5*%
%TO.N,5v*%
X86650000Y-107050000D03*
%TD*%
%TO.P,K1,5*%
%TO.N,5v*%
X86800000Y-123370000D03*
D19*
%TO.P,K1,4*%
%TO.N,unconnected-(K1-Pad4)*%
X74550000Y-123420000D03*
%TO.P,K1,3*%
%TO.N,Net-(J3-Pin_1)*%
X74600000Y-111370000D03*
D20*
%TO.P,K1,2*%
%TO.N,Net-(D4-A)*%
X86800000Y-111370000D03*
D19*
%TO.P,K1,1*%
%TO.N,Net-(J3-Pin_2)*%
X88750000Y-117420000D03*
%TD*%
D21*
%TO.P,J5,1,Pin_1*%
%TO.N,Net-(J5-Pin_1)*%
X64245000Y-96205000D03*
D22*
%TO.P,J5,2,Pin_2*%
%TO.N,Net-(J5-Pin_2)*%
X64245000Y-101285000D03*
%TD*%
D23*
%TO.P,J4,3,Pin_3*%
%TO.N,/SW_IN2*%
X62740000Y-89300000D03*
%TO.P,J4,2,Pin_2*%
%TO.N,/SW_IN1*%
X62740000Y-86760000D03*
D24*
%TO.P,J4,1,Pin_1*%
%TO.N,GND*%
X62740000Y-84220000D03*
%TD*%
D21*
%TO.P,J3,1,Pin_1*%
%TO.N,Net-(J3-Pin_1)*%
X64400000Y-112520000D03*
D22*
%TO.P,J3,2,Pin_2*%
%TO.N,Net-(J3-Pin_2)*%
X64400000Y-117600000D03*
%TD*%
D25*
%TO.P,J2,6,Pin_6*%
%TO.N,GND*%
X97500000Y-71710000D03*
%TO.P,J2,5,Pin_5*%
%TO.N,/IOo*%
X97500000Y-74250000D03*
%TO.P,J2,4,Pin_4*%
%TO.N,/RX*%
X94960000Y-71710000D03*
%TO.P,J2,3,Pin_3*%
%TO.N,/TX*%
X94960000Y-74250000D03*
%TO.P,J2,2,Pin_2*%
%TO.N,/EN*%
X92420000Y-71710000D03*
D26*
%TO.P,J2,1,Pin_1*%
%TO.N,5v*%
X92420000Y-74250000D03*
%TD*%
D23*
%TO.P,J1,2,Pin_2*%
%TO.N,VCC*%
X62850000Y-74850000D03*
D24*
%TO.P,J1,1,Pin_1*%
%TO.N,GND*%
X62850000Y-72310000D03*
%TD*%
D27*
%TO.P,D6,2,A*%
%TO.N,Net-(D6-A)*%
X65270000Y-79500000D03*
D28*
%TO.P,D6,1,K*%
%TO.N,GND*%
X62730000Y-79500000D03*
%TD*%
%TO.P,D5,1,K*%
%TO.N,5v*%
X92050000Y-102010000D03*
D29*
%TO.P,D5,2,A*%
%TO.N,Net-(D5-A)*%
X92050000Y-94390000D03*
%TD*%
D28*
%TO.P,D4,1,K*%
%TO.N,5v*%
X92050000Y-121920000D03*
D29*
%TO.P,D4,2,A*%
%TO.N,Net-(D4-A)*%
X92050000Y-114300000D03*
%TD*%
%TO.P,D3,2,A*%
%TO.N,5v*%
X101100000Y-78910000D03*
D28*
%TO.P,D3,1,K*%
%TO.N,/IOo*%
X101100000Y-71290000D03*
%TD*%
D29*
%TO.P,D2,2,A*%
%TO.N,5v*%
X72230000Y-91300000D03*
D28*
%TO.P,D2,1,K*%
%TO.N,/EN*%
X79850000Y-91300000D03*
%TD*%
D29*
%TO.P,D1,2,A*%
%TO.N,VCC*%
X68500000Y-78660000D03*
D28*
%TO.P,D1,1,K*%
%TO.N,5v*%
X68500000Y-71040000D03*
%TD*%
D30*
%TO.N,5v*%
X84800000Y-72550000D03*
%TO.N,/OP2*%
X91550000Y-83900000D03*
%TO.N,/IOo*%
X91250000Y-83000000D03*
%TO.N,/OP1*%
X90800000Y-87550000D03*
%TO.N,/EN*%
X74300000Y-78600000D03*
%TO.N,/RX*%
X91150000Y-76550000D03*
%TD*%
D31*
%TO.N,5v*%
X86500000Y-74250000D02*
X92420000Y-74250000D01*
X84800000Y-72550000D02*
X86500000Y-74250000D01*
D32*
%TO.N,/EN*%
X97100000Y-85150000D02*
X97100000Y-78650000D01*
D31*
%TO.N,/OP2*%
X91650000Y-83800000D02*
X93445407Y-83800000D01*
X91550000Y-83900000D02*
X91650000Y-83800000D01*
X96249999Y-86604592D02*
X96249999Y-93490001D01*
X93445407Y-83800000D02*
X96249999Y-86604592D01*
X96249999Y-93490001D02*
X95450000Y-94290000D01*
D32*
%TO.N,/IOo*%
X97500000Y-74250000D02*
X95725000Y-76025000D01*
X95725000Y-76025000D02*
X95725000Y-77525000D01*
X91250000Y-82000000D02*
X91250000Y-83000000D01*
X95725000Y-77525000D02*
X91250000Y-82000000D01*
D31*
%TO.N,Net-(R2-Pad1)*%
X94615000Y-124200000D02*
X96230000Y-124200000D01*
X96230000Y-124200000D02*
X98600000Y-121830000D01*
D33*
%TO.N,/OP1*%
X93450000Y-91275000D02*
X90800000Y-88625000D01*
X93450000Y-113331370D02*
X93450000Y-91275000D01*
X90800000Y-88625000D02*
X90800000Y-87550000D01*
X94318630Y-114200000D02*
X93450000Y-113331370D01*
X95450000Y-114200000D02*
X94318630Y-114200000D01*
%TO.N,Net-(D4-A)*%
X86800000Y-111370000D02*
X89120000Y-111370000D01*
X89120000Y-111370000D02*
X92050000Y-114300000D01*
%TO.N,/EN*%
X74300000Y-78600000D02*
X74300000Y-89700000D01*
X75900000Y-91300000D02*
X79850000Y-91300000D01*
X74300000Y-89700000D02*
X75900000Y-91300000D01*
%TO.N,/RX*%
X93810000Y-75160000D02*
X93810000Y-72860000D01*
X91150000Y-76550000D02*
X92420000Y-76550000D01*
X92420000Y-76550000D02*
X93810000Y-75160000D01*
X93810000Y-72860000D02*
X94960000Y-71710000D01*
D34*
%TO.N,Net-(J3-Pin_2)*%
X64400000Y-117600000D02*
X88570000Y-117600000D01*
X88570000Y-117600000D02*
X88750000Y-117420000D01*
%TO.N,Net-(J3-Pin_1)*%
X64400000Y-112520000D02*
X73450000Y-112520000D01*
X73450000Y-112520000D02*
X74600000Y-111370000D01*
%TO.N,Net-(J5-Pin_2)*%
X64245000Y-101285000D02*
X88415000Y-101285000D01*
X88415000Y-101285000D02*
X88600000Y-101100000D01*
%TO.N,Net-(J5-Pin_1)*%
X64245000Y-96205000D02*
X73295000Y-96205000D01*
X73295000Y-96205000D02*
X74450000Y-95050000D01*
%TD*%
%TA.AperFunction,Conductor*%
%TO.N,GND*%
G36*
X102242539Y-69320185D02*
G01*
X102288294Y-69372989D01*
X102299500Y-69424500D01*
X102299500Y-69788933D01*
X102279815Y-69855972D01*
X102227011Y-69901727D01*
X102157853Y-69911671D01*
X102132168Y-69905115D01*
X102107485Y-69895909D01*
X102107483Y-69895908D01*
X102047883Y-69889501D01*
X102047881Y-69889500D01*
X102047873Y-69889500D01*
X102047864Y-69889500D01*
X100152129Y-69889500D01*
X100152123Y-69889501D01*
X100092516Y-69895908D01*
X99957671Y-69946202D01*
X99957664Y-69946206D01*
X99842455Y-70032452D01*
X99842452Y-70032455D01*
X99756206Y-70147664D01*
X99756202Y-70147671D01*
X99705908Y-70282517D01*
X99699501Y-70342116D01*
X99699500Y-70342135D01*
X99699500Y-72237870D01*
X99699501Y-72237876D01*
X99705908Y-72297483D01*
X99756202Y-72432328D01*
X99756206Y-72432335D01*
X99842452Y-72547544D01*
X99842455Y-72547547D01*
X99957664Y-72633793D01*
X99957671Y-72633797D01*
X100092517Y-72684091D01*
X100092516Y-72684091D01*
X100099444Y-72684835D01*
X100152127Y-72690500D01*
X102047872Y-72690499D01*
X102107483Y-72684091D01*
X102132165Y-72674884D01*
X102201856Y-72669899D01*
X102263180Y-72703384D01*
X102296666Y-72764706D01*
X102299500Y-72791066D01*
X102299500Y-77827394D01*
X102279815Y-77894433D01*
X102227011Y-77940188D01*
X102157853Y-77950132D01*
X102094297Y-77921107D01*
X102084275Y-77911382D01*
X102051784Y-77876087D01*
X102051779Y-77876083D01*
X102051777Y-77876081D01*
X101868634Y-77733535D01*
X101868628Y-77733531D01*
X101664504Y-77623064D01*
X101664495Y-77623061D01*
X101444984Y-77547702D01*
X101273282Y-77519050D01*
X101216049Y-77509500D01*
X100983951Y-77509500D01*
X100938164Y-77517140D01*
X100755015Y-77547702D01*
X100535504Y-77623061D01*
X100535495Y-77623064D01*
X100331371Y-77733531D01*
X100331365Y-77733535D01*
X100148222Y-77876081D01*
X100148219Y-77876084D01*
X100148216Y-77876086D01*
X100148216Y-77876087D01*
X100106772Y-77921107D01*
X99991016Y-78046852D01*
X99864075Y-78241151D01*
X99770842Y-78453699D01*
X99713866Y-78678691D01*
X99713864Y-78678702D01*
X99694700Y-78909993D01*
X99694700Y-78910006D01*
X99713864Y-79141297D01*
X99713866Y-79141308D01*
X99770842Y-79366300D01*
X99864075Y-79578848D01*
X99991016Y-79773147D01*
X99991019Y-79773151D01*
X99991021Y-79773153D01*
X100148216Y-79943913D01*
X100148219Y-79943915D01*
X100148222Y-79943918D01*
X100331365Y-80086464D01*
X100331371Y-80086468D01*
X100331374Y-80086470D01*
X100535497Y-80196936D01*
X100649487Y-80236068D01*
X100755015Y-80272297D01*
X100755017Y-80272297D01*
X100755019Y-80272298D01*
X100983951Y-80310500D01*
X100983952Y-80310500D01*
X101216048Y-80310500D01*
X101216049Y-80310500D01*
X101444981Y-80272298D01*
X101664503Y-80196936D01*
X101868626Y-80086470D01*
X101901993Y-80060500D01*
X101942686Y-80028827D01*
X102051784Y-79943913D01*
X102084272Y-79908620D01*
X102144156Y-79872632D01*
X102213994Y-79874731D01*
X102271610Y-79914255D01*
X102298713Y-79978654D01*
X102299500Y-79992605D01*
X102299500Y-132875500D01*
X102279815Y-132942539D01*
X102227011Y-132988294D01*
X102175500Y-132999500D01*
X95573340Y-132999500D01*
X95506301Y-132979815D01*
X95460546Y-132927011D01*
X95450602Y-132857853D01*
X95479627Y-132794297D01*
X95485659Y-132787819D01*
X95614657Y-132658820D01*
X95745134Y-132472482D01*
X95841265Y-132266326D01*
X95841269Y-132266317D01*
X95893872Y-132070000D01*
X94930686Y-132070000D01*
X94935080Y-132065606D01*
X94987741Y-131974394D01*
X95015000Y-131872661D01*
X95015000Y-131767339D01*
X94987741Y-131665606D01*
X94935080Y-131574394D01*
X94930686Y-131570000D01*
X95893872Y-131570000D01*
X95893872Y-131569999D01*
X95841269Y-131373682D01*
X95841265Y-131373673D01*
X95745134Y-131167517D01*
X95614657Y-130981179D01*
X95453820Y-130820342D01*
X95267482Y-130689865D01*
X95061328Y-130593734D01*
X94865000Y-130541127D01*
X94865000Y-131504314D01*
X94860606Y-131499920D01*
X94769394Y-131447259D01*
X94667661Y-131420000D01*
X94562339Y-131420000D01*
X94460606Y-131447259D01*
X94369394Y-131499920D01*
X94365000Y-131504314D01*
X94365000Y-130541127D01*
X94168671Y-130593734D01*
X93962517Y-130689865D01*
X93776179Y-130820342D01*
X93615339Y-130981182D01*
X93597806Y-131006222D01*
X93543229Y-131049845D01*
X93473730Y-131057037D01*
X93411376Y-131025513D01*
X93375963Y-130965283D01*
X93372943Y-130948349D01*
X93369091Y-130912516D01*
X93318797Y-130777671D01*
X93318793Y-130777664D01*
X93232547Y-130662455D01*
X93232544Y-130662452D01*
X93117335Y-130576206D01*
X93117328Y-130576202D01*
X92982482Y-130525908D01*
X92982483Y-130525908D01*
X92922883Y-130519501D01*
X92922881Y-130519500D01*
X92922873Y-130519500D01*
X92922864Y-130519500D01*
X91227129Y-130519500D01*
X91227123Y-130519501D01*
X91167516Y-130525908D01*
X91032671Y-130576202D01*
X91032664Y-130576206D01*
X90917455Y-130662452D01*
X90917452Y-130662455D01*
X90831206Y-130777664D01*
X90831202Y-130777671D01*
X90780908Y-130912517D01*
X90774501Y-130972116D01*
X90774500Y-130972135D01*
X90774500Y-132667870D01*
X90774501Y-132667876D01*
X90780908Y-132727483D01*
X90819953Y-132832167D01*
X90824937Y-132901859D01*
X90791452Y-132963182D01*
X90730128Y-132996666D01*
X90703771Y-132999500D01*
X59624500Y-132999500D01*
X59557461Y-132979815D01*
X59511706Y-132927011D01*
X59500500Y-132875500D01*
X59500500Y-123419998D01*
X72544390Y-123419998D01*
X72544390Y-123420001D01*
X72564804Y-123705433D01*
X72625628Y-123985037D01*
X72625630Y-123985043D01*
X72625631Y-123985046D01*
X72680309Y-124131643D01*
X72725635Y-124253166D01*
X72862770Y-124504309D01*
X72862775Y-124504317D01*
X73034254Y-124733387D01*
X73034270Y-124733405D01*
X73236594Y-124935729D01*
X73236612Y-124935745D01*
X73465682Y-125107224D01*
X73465690Y-125107229D01*
X73716833Y-125244364D01*
X73716832Y-125244364D01*
X73716836Y-125244365D01*
X73716839Y-125244367D01*
X73984954Y-125344369D01*
X73984960Y-125344370D01*
X73984962Y-125344371D01*
X74264566Y-125405195D01*
X74264568Y-125405195D01*
X74264572Y-125405196D01*
X74518220Y-125423337D01*
X74549999Y-125425610D01*
X74550000Y-125425610D01*
X74550001Y-125425610D01*
X74578595Y-125423564D01*
X74835428Y-125405196D01*
X75115046Y-125344369D01*
X75383161Y-125244367D01*
X75634315Y-125107226D01*
X75863395Y-124935739D01*
X76065739Y-124733395D01*
X76237226Y-124504315D01*
X76374367Y-124253161D01*
X76474369Y-123985046D01*
X76535196Y-123705428D01*
X76555610Y-123420000D01*
X76555096Y-123412819D01*
X76552033Y-123369995D01*
X85044592Y-123369995D01*
X85044592Y-123370004D01*
X85064196Y-123631620D01*
X85064197Y-123631625D01*
X85122576Y-123887402D01*
X85122578Y-123887411D01*
X85122580Y-123887416D01*
X85218432Y-124131643D01*
X85349614Y-124358857D01*
X85403706Y-124426686D01*
X85513198Y-124563985D01*
X85646831Y-124687977D01*
X85705521Y-124742433D01*
X85922296Y-124890228D01*
X85922301Y-124890230D01*
X85922302Y-124890231D01*
X85922303Y-124890232D01*
X86016813Y-124935745D01*
X86158673Y-125004061D01*
X86158674Y-125004061D01*
X86158677Y-125004063D01*
X86409385Y-125081396D01*
X86668818Y-125120500D01*
X86931182Y-125120500D01*
X87190615Y-125081396D01*
X87441323Y-125004063D01*
X87677704Y-124890228D01*
X87894479Y-124742433D01*
X88086805Y-124563981D01*
X88250386Y-124358857D01*
X88381568Y-124131643D01*
X88477420Y-123887416D01*
X88535802Y-123631630D01*
X88536336Y-123624501D01*
X88555408Y-123370004D01*
X88555408Y-123369995D01*
X88535803Y-123108379D01*
X88535802Y-123108374D01*
X88535802Y-123108370D01*
X88477420Y-122852584D01*
X88381568Y-122608357D01*
X88250386Y-122381143D01*
X88086805Y-122176019D01*
X88086804Y-122176018D01*
X88086801Y-122176014D01*
X87894479Y-121997567D01*
X87677704Y-121849772D01*
X87677700Y-121849770D01*
X87677697Y-121849768D01*
X87677696Y-121849767D01*
X87441325Y-121735938D01*
X87441327Y-121735938D01*
X87190623Y-121658606D01*
X87190619Y-121658605D01*
X87190615Y-121658604D01*
X87065823Y-121639794D01*
X86931187Y-121619500D01*
X86931182Y-121619500D01*
X86668818Y-121619500D01*
X86668812Y-121619500D01*
X86507247Y-121643853D01*
X86409385Y-121658604D01*
X86409382Y-121658605D01*
X86409376Y-121658606D01*
X86158673Y-121735938D01*
X85922303Y-121849767D01*
X85922302Y-121849768D01*
X85705520Y-121997567D01*
X85513198Y-122176014D01*
X85349614Y-122381143D01*
X85218432Y-122608356D01*
X85122582Y-122852578D01*
X85122576Y-122852597D01*
X85064197Y-123108374D01*
X85064196Y-123108379D01*
X85044592Y-123369995D01*
X76552033Y-123369995D01*
X76539872Y-123199953D01*
X76535196Y-123134572D01*
X76534682Y-123132211D01*
X76474371Y-122854962D01*
X76474370Y-122854960D01*
X76474369Y-122854954D01*
X76374367Y-122586839D01*
X76237226Y-122335685D01*
X76237224Y-122335682D01*
X76065745Y-122106612D01*
X76065729Y-122106594D01*
X75863405Y-121904270D01*
X75863387Y-121904254D01*
X75634317Y-121732775D01*
X75634309Y-121732770D01*
X75383166Y-121595635D01*
X75383167Y-121595635D01*
X75275915Y-121555632D01*
X75115046Y-121495631D01*
X75115043Y-121495630D01*
X75115037Y-121495628D01*
X74835433Y-121434804D01*
X74550001Y-121414390D01*
X74549999Y-121414390D01*
X74264566Y-121434804D01*
X73984962Y-121495628D01*
X73716833Y-121595635D01*
X73465690Y-121732770D01*
X73465682Y-121732775D01*
X73236612Y-121904254D01*
X73236594Y-121904270D01*
X73034270Y-122106594D01*
X73034254Y-122106612D01*
X72862775Y-122335682D01*
X72862770Y-122335690D01*
X72725635Y-122586833D01*
X72625628Y-122854962D01*
X72564804Y-123134566D01*
X72544390Y-123419998D01*
X59500500Y-123419998D01*
X59500500Y-120972135D01*
X90649500Y-120972135D01*
X90649500Y-122867870D01*
X90649501Y-122867876D01*
X90655908Y-122927483D01*
X90706202Y-123062328D01*
X90706206Y-123062335D01*
X90792452Y-123177544D01*
X90792455Y-123177547D01*
X90907664Y-123263793D01*
X90907673Y-123263798D01*
X90944027Y-123277357D01*
X90999961Y-123319227D01*
X91024379Y-123384691D01*
X91009528Y-123452964D01*
X91002271Y-123464661D01*
X90944431Y-123547267D01*
X90848261Y-123753502D01*
X90848258Y-123753511D01*
X90789366Y-123973302D01*
X90789364Y-123973313D01*
X90769532Y-124199998D01*
X90769532Y-124200001D01*
X90789364Y-124426686D01*
X90789366Y-124426697D01*
X90848258Y-124646488D01*
X90848261Y-124646497D01*
X90944431Y-124852732D01*
X90944432Y-124852734D01*
X91074954Y-125039141D01*
X91235858Y-125200045D01*
X91235861Y-125200047D01*
X91422266Y-125330568D01*
X91628504Y-125426739D01*
X91848308Y-125485635D01*
X92010230Y-125499801D01*
X92074998Y-125505468D01*
X92075000Y-125505468D01*
X92075002Y-125505468D01*
X92131673Y-125500509D01*
X92301692Y-125485635D01*
X92521496Y-125426739D01*
X92727734Y-125330568D01*
X92914139Y-125200047D01*
X93075047Y-125039139D01*
X93205568Y-124852734D01*
X93232618Y-124794724D01*
X93278790Y-124742285D01*
X93345983Y-124723133D01*
X93412865Y-124743348D01*
X93457381Y-124794724D01*
X93471517Y-124825038D01*
X93484429Y-124852728D01*
X93484432Y-124852734D01*
X93614954Y-125039141D01*
X93775858Y-125200045D01*
X93775861Y-125200047D01*
X93962266Y-125330568D01*
X94168504Y-125426739D01*
X94388308Y-125485635D01*
X94550230Y-125499801D01*
X94614998Y-125505468D01*
X94615000Y-125505468D01*
X94615002Y-125505468D01*
X94671673Y-125500509D01*
X94841692Y-125485635D01*
X95061496Y-125426739D01*
X95267734Y-125330568D01*
X95454139Y-125200047D01*
X95615047Y-125039139D01*
X95710108Y-124903377D01*
X95764685Y-124859752D01*
X95811683Y-124850500D01*
X96294071Y-124850500D01*
X96378615Y-124833682D01*
X96419744Y-124825501D01*
X96538127Y-124776465D01*
X96598345Y-124736229D01*
X96644669Y-124705277D01*
X96644679Y-124705266D01*
X96646835Y-124703499D01*
X96648191Y-124702922D01*
X96649733Y-124701893D01*
X96649928Y-124702185D01*
X96711145Y-124676186D01*
X96780013Y-124687977D01*
X96831573Y-124735129D01*
X96849500Y-124799352D01*
X96849500Y-125222870D01*
X96849501Y-125222876D01*
X96855908Y-125282483D01*
X96906202Y-125417328D01*
X96906203Y-125417330D01*
X96906204Y-125417331D01*
X96907028Y-125418432D01*
X96907509Y-125419721D01*
X96910454Y-125425114D01*
X96909678Y-125425537D01*
X96931448Y-125483895D01*
X96922325Y-125540198D01*
X96888910Y-125620868D01*
X96888907Y-125620880D01*
X96849500Y-125818992D01*
X96849500Y-126021007D01*
X96888907Y-126219119D01*
X96888909Y-126219127D01*
X96966212Y-126405754D01*
X97020204Y-126486558D01*
X97041081Y-126553235D01*
X97022596Y-126620615D01*
X97020204Y-126624337D01*
X96966655Y-126704479D01*
X96966654Y-126704481D01*
X96889390Y-126891016D01*
X96889387Y-126891025D01*
X96879647Y-126940000D01*
X97734134Y-126940000D01*
X97758326Y-126942383D01*
X97761123Y-126942939D01*
X97773995Y-126945499D01*
X97773996Y-126945500D01*
X97773997Y-126945500D01*
X97814170Y-126945500D01*
X97799925Y-126959745D01*
X97750556Y-127045255D01*
X97725000Y-127140630D01*
X97725000Y-127239370D01*
X97750556Y-127334745D01*
X97799925Y-127420255D01*
X97819670Y-127440000D01*
X96879647Y-127440000D01*
X96889387Y-127488974D01*
X96889390Y-127488983D01*
X96966652Y-127675513D01*
X96966659Y-127675526D01*
X97078829Y-127843399D01*
X97078832Y-127843403D01*
X97221596Y-127986167D01*
X97221600Y-127986170D01*
X97389473Y-128098340D01*
X97389486Y-128098347D01*
X97576016Y-128175609D01*
X97576025Y-128175612D01*
X97774041Y-128214999D01*
X97774045Y-128215000D01*
X97850000Y-128215000D01*
X97850000Y-127470330D01*
X97869745Y-127490075D01*
X97955255Y-127539444D01*
X98050630Y-127565000D01*
X98149370Y-127565000D01*
X98244745Y-127539444D01*
X98330255Y-127490075D01*
X98350000Y-127470330D01*
X98350000Y-128215000D01*
X98425955Y-128215000D01*
X98425958Y-128214999D01*
X98623974Y-128175612D01*
X98623983Y-128175609D01*
X98810513Y-128098347D01*
X98810526Y-128098340D01*
X98978399Y-127986170D01*
X98978403Y-127986167D01*
X99121167Y-127843403D01*
X99121170Y-127843399D01*
X99233340Y-127675526D01*
X99233347Y-127675513D01*
X99310609Y-127488983D01*
X99310612Y-127488974D01*
X99320353Y-127440000D01*
X98380330Y-127440000D01*
X98400075Y-127420255D01*
X98449444Y-127334745D01*
X98475000Y-127239370D01*
X98475000Y-127140630D01*
X98449444Y-127045255D01*
X98400075Y-126959745D01*
X98385830Y-126945500D01*
X98426004Y-126945500D01*
X98426004Y-126945499D01*
X98439473Y-126942820D01*
X98441674Y-126942383D01*
X98465866Y-126940000D01*
X99320353Y-126940000D01*
X99310612Y-126891025D01*
X99310609Y-126891016D01*
X99233347Y-126704486D01*
X99233343Y-126704479D01*
X99179795Y-126624340D01*
X99158917Y-126557662D01*
X99177401Y-126490282D01*
X99179733Y-126486652D01*
X99233786Y-126405756D01*
X99311091Y-126219127D01*
X99350500Y-126021003D01*
X99350500Y-125818997D01*
X99311091Y-125620873D01*
X99277673Y-125540198D01*
X99270205Y-125470730D01*
X99289964Y-125425340D01*
X99289547Y-125425112D01*
X99292095Y-125420444D01*
X99292972Y-125418431D01*
X99293796Y-125417331D01*
X99344091Y-125282483D01*
X99350500Y-125222873D01*
X99350499Y-124077128D01*
X99344091Y-124017517D01*
X99295568Y-123887421D01*
X99293797Y-123882671D01*
X99293793Y-123882664D01*
X99207547Y-123767455D01*
X99207544Y-123767452D01*
X99092335Y-123681206D01*
X99092328Y-123681202D01*
X98957482Y-123630908D01*
X98957483Y-123630908D01*
X98897883Y-123624501D01*
X98897881Y-123624500D01*
X98897873Y-123624500D01*
X98897865Y-123624500D01*
X98024806Y-123624500D01*
X97957767Y-123604815D01*
X97912012Y-123552011D01*
X97902068Y-123482853D01*
X97931093Y-123419297D01*
X97937125Y-123412819D01*
X98072587Y-123277357D01*
X98213061Y-123136882D01*
X98274382Y-123103399D01*
X98332833Y-123104790D01*
X98346228Y-123108379D01*
X98373308Y-123115635D01*
X98535230Y-123129801D01*
X98599998Y-123135468D01*
X98600000Y-123135468D01*
X98600002Y-123135468D01*
X98656673Y-123130509D01*
X98826692Y-123115635D01*
X99046496Y-123056739D01*
X99252734Y-122960568D01*
X99439139Y-122830047D01*
X99600047Y-122669139D01*
X99730568Y-122482734D01*
X99826739Y-122276496D01*
X99885635Y-122056692D01*
X99905468Y-121830000D01*
X99885635Y-121603308D01*
X99826739Y-121383504D01*
X99730568Y-121177266D01*
X99600047Y-120990861D01*
X99600045Y-120990858D01*
X99439141Y-120829954D01*
X99252734Y-120699432D01*
X99252732Y-120699431D01*
X99046497Y-120603261D01*
X99046488Y-120603258D01*
X98826697Y-120544366D01*
X98826693Y-120544365D01*
X98826692Y-120544365D01*
X98826691Y-120544364D01*
X98826686Y-120544364D01*
X98600002Y-120524532D01*
X98599998Y-120524532D01*
X98373313Y-120544364D01*
X98373302Y-120544366D01*
X98153511Y-120603258D01*
X98153502Y-120603261D01*
X97947267Y-120699431D01*
X97947265Y-120699432D01*
X97760858Y-120829954D01*
X97599954Y-120990858D01*
X97469432Y-121177265D01*
X97469431Y-121177267D01*
X97373261Y-121383502D01*
X97373258Y-121383511D01*
X97314366Y-121603302D01*
X97314364Y-121603313D01*
X97294532Y-121829998D01*
X97294532Y-121830001D01*
X97314364Y-122056686D01*
X97314367Y-122056700D01*
X97325209Y-122097165D01*
X97323546Y-122167015D01*
X97293115Y-122216938D01*
X95996873Y-123513181D01*
X95935550Y-123546666D01*
X95909192Y-123549500D01*
X95811683Y-123549500D01*
X95744644Y-123529815D01*
X95710108Y-123496623D01*
X95615045Y-123360858D01*
X95573346Y-123319159D01*
X95539861Y-123257836D01*
X95544845Y-123188144D01*
X95586717Y-123132211D01*
X95650220Y-123107950D01*
X95676692Y-123105635D01*
X95896496Y-123046739D01*
X96102734Y-122950568D01*
X96289139Y-122820047D01*
X96450047Y-122659139D01*
X96580568Y-122472734D01*
X96676739Y-122266496D01*
X96735635Y-122046692D01*
X96755468Y-121820000D01*
X96735635Y-121593308D01*
X96679420Y-121383511D01*
X96676741Y-121373511D01*
X96676738Y-121373502D01*
X96580568Y-121167266D01*
X96450047Y-120980861D01*
X96450045Y-120980858D01*
X96289141Y-120819954D01*
X96102734Y-120689432D01*
X96102732Y-120689431D01*
X95896497Y-120593261D01*
X95896488Y-120593258D01*
X95676697Y-120534366D01*
X95676693Y-120534365D01*
X95676692Y-120534365D01*
X95676691Y-120534364D01*
X95676686Y-120534364D01*
X95450002Y-120514532D01*
X95449998Y-120514532D01*
X95223313Y-120534364D01*
X95223302Y-120534366D01*
X95003511Y-120593258D01*
X95003502Y-120593261D01*
X94797267Y-120689431D01*
X94797265Y-120689432D01*
X94610858Y-120819954D01*
X94449954Y-120980858D01*
X94319432Y-121167265D01*
X94319431Y-121167267D01*
X94223261Y-121373502D01*
X94223258Y-121373511D01*
X94164366Y-121593302D01*
X94164364Y-121593313D01*
X94144532Y-121819998D01*
X94144532Y-121820001D01*
X94164364Y-122046686D01*
X94164366Y-122046697D01*
X94223258Y-122266488D01*
X94223261Y-122266497D01*
X94319431Y-122472732D01*
X94319432Y-122472734D01*
X94449954Y-122659141D01*
X94491653Y-122700840D01*
X94525138Y-122762163D01*
X94520154Y-122831855D01*
X94478282Y-122887788D01*
X94414780Y-122912049D01*
X94388312Y-122914364D01*
X94388302Y-122914366D01*
X94168511Y-122973258D01*
X94168502Y-122973261D01*
X93962267Y-123069431D01*
X93962265Y-123069432D01*
X93775858Y-123199954D01*
X93614954Y-123360858D01*
X93484432Y-123547265D01*
X93484431Y-123547267D01*
X93457382Y-123605275D01*
X93411209Y-123657714D01*
X93344016Y-123676866D01*
X93277135Y-123656650D01*
X93232618Y-123605275D01*
X93205568Y-123547266D01*
X93137375Y-123449875D01*
X93115047Y-123383668D01*
X93132059Y-123315901D01*
X93183007Y-123268089D01*
X93190365Y-123264869D01*
X93192326Y-123263797D01*
X93192331Y-123263796D01*
X93307546Y-123177546D01*
X93393796Y-123062331D01*
X93444091Y-122927483D01*
X93450500Y-122867873D01*
X93450499Y-120972128D01*
X93444091Y-120912517D01*
X93409567Y-120819954D01*
X93393797Y-120777671D01*
X93393793Y-120777664D01*
X93307547Y-120662455D01*
X93307544Y-120662452D01*
X93192335Y-120576206D01*
X93192328Y-120576202D01*
X93057482Y-120525908D01*
X93057483Y-120525908D01*
X92997883Y-120519501D01*
X92997881Y-120519500D01*
X92997873Y-120519500D01*
X92997864Y-120519500D01*
X91102129Y-120519500D01*
X91102123Y-120519501D01*
X91042516Y-120525908D01*
X90907671Y-120576202D01*
X90907664Y-120576206D01*
X90792455Y-120662452D01*
X90792452Y-120662455D01*
X90706206Y-120777664D01*
X90706202Y-120777671D01*
X90655908Y-120912517D01*
X90649501Y-120972116D01*
X90649501Y-120972123D01*
X90649500Y-120972135D01*
X59500500Y-120972135D01*
X59500500Y-112379568D01*
X61899500Y-112379568D01*
X61899500Y-112660431D01*
X61930942Y-112939494D01*
X61930945Y-112939512D01*
X61993439Y-113213317D01*
X61993443Y-113213329D01*
X62086200Y-113478411D01*
X62208053Y-113731442D01*
X62208055Y-113731445D01*
X62357477Y-113969248D01*
X62532584Y-114188825D01*
X62731175Y-114387416D01*
X62950752Y-114562523D01*
X63188555Y-114711945D01*
X63441592Y-114833801D01*
X63614480Y-114894297D01*
X63706670Y-114926556D01*
X63706678Y-114926559D01*
X63761663Y-114939109D01*
X63822641Y-114973218D01*
X63855499Y-115034879D01*
X63849804Y-115104516D01*
X63807364Y-115160020D01*
X63761663Y-115180891D01*
X63706678Y-115193440D01*
X63706670Y-115193443D01*
X63441588Y-115286200D01*
X63188557Y-115408053D01*
X62950753Y-115557476D01*
X62731175Y-115732583D01*
X62532583Y-115931175D01*
X62357476Y-116150753D01*
X62208053Y-116388557D01*
X62086200Y-116641588D01*
X61993443Y-116906670D01*
X61993439Y-116906682D01*
X61930945Y-117180487D01*
X61930942Y-117180505D01*
X61899500Y-117459568D01*
X61899500Y-117740431D01*
X61930942Y-118019494D01*
X61930945Y-118019512D01*
X61993439Y-118293317D01*
X61993443Y-118293329D01*
X62086200Y-118558411D01*
X62208053Y-118811442D01*
X62208055Y-118811445D01*
X62357477Y-119049248D01*
X62532584Y-119268825D01*
X62731175Y-119467416D01*
X62950752Y-119642523D01*
X63188555Y-119791945D01*
X63441592Y-119913801D01*
X63640680Y-119983465D01*
X63706670Y-120006556D01*
X63706682Y-120006560D01*
X63980491Y-120069055D01*
X63980497Y-120069055D01*
X63980505Y-120069057D01*
X64166547Y-120090018D01*
X64259569Y-120100499D01*
X64259572Y-120100500D01*
X64259575Y-120100500D01*
X88710428Y-120100500D01*
X88710429Y-120100499D01*
X88853055Y-120084429D01*
X88989494Y-120069057D01*
X88989499Y-120069056D01*
X88989509Y-120069055D01*
X89263318Y-120006560D01*
X89528408Y-119913801D01*
X89781445Y-119791945D01*
X90019248Y-119642523D01*
X90238825Y-119467416D01*
X90617416Y-119088825D01*
X90792523Y-118869248D01*
X90941944Y-118631445D01*
X91063801Y-118378408D01*
X91156560Y-118113319D01*
X91219055Y-117839509D01*
X91250500Y-117560425D01*
X91250500Y-117279575D01*
X91239336Y-117180491D01*
X91219057Y-117000506D01*
X91219054Y-117000488D01*
X91156560Y-116726682D01*
X91156556Y-116726670D01*
X91063803Y-116461599D01*
X91063801Y-116461593D01*
X90941944Y-116208555D01*
X90792523Y-115970752D01*
X90617416Y-115751175D01*
X90418825Y-115552584D01*
X90199248Y-115377477D01*
X89961445Y-115228056D01*
X89961442Y-115228054D01*
X89708414Y-115106202D01*
X89708400Y-115106196D01*
X89443329Y-115013443D01*
X89443317Y-115013439D01*
X89169511Y-114950945D01*
X89169493Y-114950942D01*
X88890431Y-114919500D01*
X88890425Y-114919500D01*
X88609575Y-114919500D01*
X88609568Y-114919500D01*
X88330505Y-114950942D01*
X88330487Y-114950945D01*
X88056681Y-115013439D01*
X88056669Y-115013443D01*
X87830624Y-115092541D01*
X87789669Y-115099500D01*
X74378895Y-115099500D01*
X74311856Y-115079815D01*
X74266101Y-115027011D01*
X74256157Y-114957853D01*
X74285182Y-114894297D01*
X74337940Y-114858459D01*
X74349220Y-114854511D01*
X74408408Y-114833801D01*
X74661445Y-114711945D01*
X74899248Y-114562523D01*
X75118825Y-114387416D01*
X76467416Y-113038825D01*
X76642523Y-112819248D01*
X76791945Y-112581445D01*
X76807884Y-112548347D01*
X76913794Y-112328422D01*
X76913795Y-112328418D01*
X76913801Y-112328407D01*
X77006560Y-112063318D01*
X77069055Y-111789508D01*
X77100500Y-111510425D01*
X77100500Y-111229575D01*
X77075575Y-111008355D01*
X77069057Y-110950505D01*
X77069054Y-110950487D01*
X77017863Y-110726206D01*
X77006560Y-110676682D01*
X77003916Y-110669127D01*
X76936855Y-110477477D01*
X76913801Y-110411592D01*
X76791945Y-110158555D01*
X76642523Y-109920752D01*
X76467416Y-109701175D01*
X76268825Y-109502584D01*
X76049248Y-109327477D01*
X75811445Y-109178055D01*
X75811442Y-109178053D01*
X75558414Y-109056201D01*
X75476404Y-109027504D01*
X75419628Y-108986782D01*
X75393882Y-108921829D01*
X75407339Y-108853267D01*
X75455727Y-108802865D01*
X75457855Y-108801673D01*
X75484315Y-108787226D01*
X75713395Y-108615739D01*
X75915739Y-108413395D01*
X76087226Y-108184315D01*
X76224367Y-107933161D01*
X76324369Y-107665046D01*
X76385196Y-107385428D01*
X76405610Y-107100000D01*
X76402034Y-107049995D01*
X84894592Y-107049995D01*
X84894592Y-107050004D01*
X84914196Y-107311620D01*
X84914197Y-107311625D01*
X84972576Y-107567402D01*
X84972578Y-107567411D01*
X84972580Y-107567416D01*
X85068432Y-107811643D01*
X85199614Y-108038857D01*
X85273260Y-108131206D01*
X85363198Y-108243985D01*
X85458778Y-108332669D01*
X85555521Y-108422433D01*
X85772296Y-108570228D01*
X85772301Y-108570230D01*
X85772302Y-108570231D01*
X85772303Y-108570232D01*
X85866813Y-108615745D01*
X86008673Y-108684061D01*
X86008674Y-108684061D01*
X86008677Y-108684063D01*
X86259385Y-108761396D01*
X86518818Y-108800500D01*
X86781182Y-108800500D01*
X87040615Y-108761396D01*
X87291323Y-108684063D01*
X87527704Y-108570228D01*
X87744479Y-108422433D01*
X87936805Y-108243981D01*
X88100386Y-108038857D01*
X88231568Y-107811643D01*
X88327420Y-107567416D01*
X88385802Y-107311630D01*
X88401661Y-107100000D01*
X88405408Y-107050004D01*
X88405408Y-107049995D01*
X88385803Y-106788379D01*
X88385802Y-106788374D01*
X88385802Y-106788370D01*
X88327420Y-106532584D01*
X88231568Y-106288357D01*
X88100386Y-106061143D01*
X87936805Y-105856019D01*
X87936804Y-105856018D01*
X87936801Y-105856014D01*
X87744479Y-105677567D01*
X87682976Y-105635635D01*
X87527704Y-105529772D01*
X87527700Y-105529770D01*
X87527697Y-105529768D01*
X87527696Y-105529767D01*
X87291325Y-105415938D01*
X87291327Y-105415938D01*
X87040623Y-105338606D01*
X87040619Y-105338605D01*
X87040615Y-105338604D01*
X86915823Y-105319794D01*
X86781187Y-105299500D01*
X86781182Y-105299500D01*
X86518818Y-105299500D01*
X86518812Y-105299500D01*
X86357247Y-105323853D01*
X86259385Y-105338604D01*
X86259382Y-105338605D01*
X86259376Y-105338606D01*
X86008673Y-105415938D01*
X85772303Y-105529767D01*
X85772302Y-105529768D01*
X85555520Y-105677567D01*
X85363198Y-105856014D01*
X85199614Y-106061143D01*
X85068432Y-106288356D01*
X84972582Y-106532578D01*
X84972576Y-106532597D01*
X84914197Y-106788374D01*
X84914196Y-106788379D01*
X84894592Y-107049995D01*
X76402034Y-107049995D01*
X76385196Y-106814572D01*
X76324369Y-106534954D01*
X76224367Y-106266839D01*
X76087226Y-106015685D01*
X75967698Y-105856014D01*
X75915745Y-105786612D01*
X75915729Y-105786594D01*
X75713405Y-105584270D01*
X75713387Y-105584254D01*
X75484317Y-105412775D01*
X75484309Y-105412770D01*
X75233166Y-105275635D01*
X75233167Y-105275635D01*
X75125915Y-105235632D01*
X74965046Y-105175631D01*
X74965043Y-105175630D01*
X74965037Y-105175628D01*
X74685433Y-105114804D01*
X74400001Y-105094390D01*
X74399999Y-105094390D01*
X74114566Y-105114804D01*
X73834962Y-105175628D01*
X73566833Y-105275635D01*
X73315690Y-105412770D01*
X73315682Y-105412775D01*
X73086612Y-105584254D01*
X73086594Y-105584270D01*
X72884270Y-105786594D01*
X72884254Y-105786612D01*
X72712775Y-106015682D01*
X72712770Y-106015690D01*
X72575635Y-106266833D01*
X72475628Y-106534962D01*
X72414804Y-106814566D01*
X72394390Y-107099998D01*
X72394390Y-107100001D01*
X72414804Y-107385433D01*
X72475628Y-107665037D01*
X72575635Y-107933166D01*
X72712770Y-108184309D01*
X72712775Y-108184317D01*
X72884254Y-108413387D01*
X72884270Y-108413405D01*
X73086594Y-108615729D01*
X73086612Y-108615745D01*
X73315682Y-108787224D01*
X73315690Y-108787229D01*
X73518170Y-108897792D01*
X73567575Y-108947197D01*
X73582427Y-109015470D01*
X73558010Y-109080935D01*
X73512545Y-109118344D01*
X73388557Y-109178053D01*
X73150753Y-109327476D01*
X72931175Y-109502583D01*
X72450578Y-109983181D01*
X72389255Y-110016666D01*
X72362897Y-110019500D01*
X64259568Y-110019500D01*
X63980505Y-110050942D01*
X63980487Y-110050945D01*
X63706682Y-110113439D01*
X63706670Y-110113443D01*
X63441588Y-110206200D01*
X63188557Y-110328053D01*
X62950753Y-110477476D01*
X62731175Y-110652583D01*
X62532583Y-110851175D01*
X62357476Y-111070753D01*
X62208053Y-111308557D01*
X62086200Y-111561588D01*
X61993443Y-111826670D01*
X61993439Y-111826682D01*
X61930945Y-112100487D01*
X61930942Y-112100505D01*
X61899500Y-112379568D01*
X59500500Y-112379568D01*
X59500500Y-96064568D01*
X61744500Y-96064568D01*
X61744500Y-96345431D01*
X61775942Y-96624494D01*
X61775945Y-96624512D01*
X61838439Y-96898317D01*
X61838443Y-96898329D01*
X61931200Y-97163411D01*
X62053053Y-97416442D01*
X62053055Y-97416445D01*
X62202477Y-97654248D01*
X62377584Y-97873825D01*
X62576175Y-98072416D01*
X62795752Y-98247523D01*
X63033555Y-98396945D01*
X63286592Y-98518801D01*
X63459480Y-98579297D01*
X63551670Y-98611556D01*
X63551678Y-98611559D01*
X63606663Y-98624109D01*
X63667641Y-98658218D01*
X63700499Y-98719879D01*
X63694804Y-98789516D01*
X63652364Y-98845020D01*
X63606663Y-98865891D01*
X63551678Y-98878440D01*
X63551670Y-98878443D01*
X63286588Y-98971200D01*
X63033557Y-99093053D01*
X62795753Y-99242476D01*
X62576175Y-99417583D01*
X62377583Y-99616175D01*
X62202476Y-99835753D01*
X62053053Y-100073557D01*
X61931200Y-100326588D01*
X61838443Y-100591670D01*
X61838439Y-100591682D01*
X61775945Y-100865487D01*
X61775942Y-100865505D01*
X61744500Y-101144568D01*
X61744500Y-101425431D01*
X61775942Y-101704494D01*
X61775945Y-101704512D01*
X61838439Y-101978317D01*
X61838443Y-101978329D01*
X61931200Y-102243411D01*
X62053053Y-102496442D01*
X62053055Y-102496445D01*
X62202477Y-102734248D01*
X62377584Y-102953825D01*
X62576175Y-103152416D01*
X62795752Y-103327523D01*
X63033555Y-103476945D01*
X63286592Y-103598801D01*
X63485680Y-103668465D01*
X63551670Y-103691556D01*
X63551682Y-103691560D01*
X63825491Y-103754055D01*
X63825497Y-103754055D01*
X63825505Y-103754057D01*
X64011547Y-103775018D01*
X64104569Y-103785499D01*
X64104572Y-103785500D01*
X64104575Y-103785500D01*
X88555428Y-103785500D01*
X88555429Y-103785499D01*
X88698055Y-103769429D01*
X88834494Y-103754057D01*
X88834499Y-103754056D01*
X88834509Y-103754055D01*
X89108318Y-103691560D01*
X89373408Y-103598801D01*
X89626445Y-103476945D01*
X89864248Y-103327523D01*
X90083825Y-103152416D01*
X90437821Y-102798419D01*
X90499142Y-102764936D01*
X90568833Y-102769920D01*
X90624767Y-102811791D01*
X90649184Y-102877256D01*
X90649500Y-102886100D01*
X90649500Y-102957869D01*
X90649501Y-102957876D01*
X90655908Y-103017483D01*
X90706202Y-103152328D01*
X90706206Y-103152335D01*
X90792452Y-103267544D01*
X90792455Y-103267547D01*
X90907664Y-103353793D01*
X90907673Y-103353798D01*
X90925800Y-103360559D01*
X90981734Y-103402429D01*
X91006152Y-103467893D01*
X90991301Y-103536167D01*
X90984043Y-103547864D01*
X90879432Y-103697265D01*
X90879431Y-103697267D01*
X90783261Y-103903502D01*
X90783258Y-103903511D01*
X90724366Y-104123302D01*
X90724364Y-104123313D01*
X90704532Y-104349998D01*
X90704532Y-104350001D01*
X90724364Y-104576686D01*
X90724366Y-104576697D01*
X90783258Y-104796488D01*
X90783261Y-104796497D01*
X90879431Y-105002732D01*
X90879432Y-105002734D01*
X91009954Y-105189141D01*
X91170858Y-105350045D01*
X91170861Y-105350047D01*
X91357266Y-105480568D01*
X91563504Y-105576739D01*
X91563509Y-105576740D01*
X91563511Y-105576741D01*
X91616415Y-105590916D01*
X91783308Y-105635635D01*
X91945230Y-105649801D01*
X92009998Y-105655468D01*
X92010000Y-105655468D01*
X92010002Y-105655468D01*
X92066673Y-105650509D01*
X92236692Y-105635635D01*
X92456496Y-105576739D01*
X92662734Y-105480568D01*
X92662746Y-105480559D01*
X92663492Y-105480130D01*
X92663868Y-105480038D01*
X92667640Y-105478280D01*
X92667993Y-105479037D01*
X92731391Y-105463652D01*
X92797419Y-105486499D01*
X92840614Y-105541417D01*
X92849500Y-105587512D01*
X92849500Y-110545500D01*
X92829815Y-110612539D01*
X92777011Y-110658294D01*
X92725500Y-110669500D01*
X91162129Y-110669500D01*
X91162123Y-110669501D01*
X91102516Y-110675908D01*
X90967671Y-110726202D01*
X90967664Y-110726206D01*
X90852455Y-110812452D01*
X90852452Y-110812455D01*
X90766206Y-110927664D01*
X90766202Y-110927671D01*
X90715908Y-111062517D01*
X90709501Y-111122116D01*
X90709500Y-111122135D01*
X90709500Y-111810903D01*
X90689815Y-111877942D01*
X90637011Y-111923697D01*
X90567853Y-111933641D01*
X90504297Y-111904616D01*
X90497819Y-111898584D01*
X89607590Y-111008355D01*
X89607588Y-111008352D01*
X89488717Y-110889481D01*
X89488716Y-110889480D01*
X89401904Y-110839360D01*
X89401904Y-110839359D01*
X89401900Y-110839358D01*
X89351785Y-110810423D01*
X89199057Y-110769499D01*
X89040943Y-110769499D01*
X89033347Y-110769499D01*
X89033331Y-110769500D01*
X88529353Y-110769500D01*
X88462314Y-110749815D01*
X88416559Y-110697011D01*
X88413941Y-110690842D01*
X88381568Y-110608357D01*
X88250386Y-110381143D01*
X88086805Y-110176019D01*
X88086804Y-110176018D01*
X88086801Y-110176014D01*
X87894479Y-109997567D01*
X87873379Y-109983181D01*
X87677704Y-109849772D01*
X87677700Y-109849770D01*
X87677697Y-109849768D01*
X87677696Y-109849767D01*
X87441325Y-109735938D01*
X87441327Y-109735938D01*
X87190623Y-109658606D01*
X87190619Y-109658605D01*
X87190615Y-109658604D01*
X87065823Y-109639794D01*
X86931187Y-109619500D01*
X86931182Y-109619500D01*
X86668818Y-109619500D01*
X86668812Y-109619500D01*
X86507247Y-109643853D01*
X86409385Y-109658604D01*
X86409382Y-109658605D01*
X86409376Y-109658606D01*
X86158673Y-109735938D01*
X85922303Y-109849767D01*
X85922302Y-109849768D01*
X85705520Y-109997567D01*
X85513198Y-110176014D01*
X85349614Y-110381143D01*
X85218432Y-110608356D01*
X85122582Y-110852578D01*
X85122576Y-110852597D01*
X85064197Y-111108374D01*
X85064196Y-111108379D01*
X85044592Y-111369995D01*
X85044592Y-111370004D01*
X85064196Y-111631620D01*
X85064197Y-111631625D01*
X85122576Y-111887402D01*
X85122578Y-111887411D01*
X85122580Y-111887416D01*
X85218432Y-112131643D01*
X85349614Y-112358857D01*
X85481736Y-112524533D01*
X85513198Y-112563985D01*
X85685617Y-112723965D01*
X85705521Y-112742433D01*
X85922296Y-112890228D01*
X85922301Y-112890230D01*
X85922302Y-112890231D01*
X85922303Y-112890232D01*
X85993180Y-112924364D01*
X86158673Y-113004061D01*
X86158674Y-113004061D01*
X86158677Y-113004063D01*
X86409385Y-113081396D01*
X86668818Y-113120500D01*
X86931182Y-113120500D01*
X87190615Y-113081396D01*
X87441323Y-113004063D01*
X87628111Y-112914110D01*
X87677696Y-112890232D01*
X87677696Y-112890231D01*
X87677704Y-112890228D01*
X87894479Y-112742433D01*
X88086805Y-112563981D01*
X88250386Y-112358857D01*
X88381568Y-112131643D01*
X88413926Y-112049194D01*
X88456740Y-111993984D01*
X88522610Y-111970683D01*
X88529353Y-111970500D01*
X88819903Y-111970500D01*
X88886942Y-111990185D01*
X88907584Y-112006819D01*
X90675795Y-113775030D01*
X90709280Y-113836353D01*
X90708320Y-113893151D01*
X90663866Y-114068691D01*
X90663864Y-114068702D01*
X90644700Y-114299993D01*
X90644700Y-114300006D01*
X90663864Y-114531297D01*
X90663866Y-114531308D01*
X90720842Y-114756300D01*
X90814075Y-114968848D01*
X90941016Y-115163147D01*
X90941019Y-115163151D01*
X90941021Y-115163153D01*
X91098216Y-115333913D01*
X91098219Y-115333915D01*
X91098222Y-115333918D01*
X91281365Y-115476464D01*
X91281371Y-115476468D01*
X91281374Y-115476470D01*
X91485497Y-115586936D01*
X91599487Y-115626068D01*
X91705015Y-115662297D01*
X91705017Y-115662297D01*
X91705019Y-115662298D01*
X91933951Y-115700500D01*
X91933952Y-115700500D01*
X92166048Y-115700500D01*
X92166049Y-115700500D01*
X92394981Y-115662298D01*
X92614503Y-115586936D01*
X92818626Y-115476470D01*
X93001784Y-115333913D01*
X93158979Y-115163153D01*
X93285924Y-114968849D01*
X93379157Y-114756300D01*
X93436134Y-114531305D01*
X93441939Y-114461239D01*
X93467091Y-114396059D01*
X93523492Y-114354820D01*
X93593236Y-114350620D01*
X93653196Y-114383801D01*
X93833769Y-114564374D01*
X93833779Y-114564385D01*
X93838109Y-114568715D01*
X93838110Y-114568716D01*
X93949914Y-114680520D01*
X93949916Y-114680521D01*
X93949920Y-114680524D01*
X94081170Y-114756300D01*
X94086846Y-114759577D01*
X94178125Y-114784035D01*
X94239572Y-114800500D01*
X94239573Y-114800500D01*
X94247421Y-114802603D01*
X94246614Y-114805614D01*
X94297023Y-114827894D01*
X94318548Y-114851471D01*
X94319431Y-114852732D01*
X94319432Y-114852734D01*
X94366182Y-114919500D01*
X94449954Y-115039141D01*
X94610858Y-115200045D01*
X94650862Y-115228056D01*
X94797266Y-115330568D01*
X95003504Y-115426739D01*
X95223308Y-115485635D01*
X95385230Y-115499801D01*
X95449998Y-115505468D01*
X95450000Y-115505468D01*
X95450002Y-115505468D01*
X95506673Y-115500509D01*
X95676692Y-115485635D01*
X95896496Y-115426739D01*
X96102734Y-115330568D01*
X96289139Y-115200047D01*
X96450047Y-115039139D01*
X96580568Y-114852734D01*
X96676739Y-114646496D01*
X96735635Y-114426692D01*
X96754593Y-114209998D01*
X97294532Y-114209998D01*
X97294532Y-114210001D01*
X97314364Y-114436686D01*
X97314366Y-114436697D01*
X97373258Y-114656488D01*
X97373261Y-114656497D01*
X97469431Y-114862732D01*
X97469432Y-114862734D01*
X97599954Y-115049141D01*
X97760858Y-115210045D01*
X97760861Y-115210047D01*
X97947266Y-115340568D01*
X98153504Y-115436739D01*
X98373308Y-115495635D01*
X98535230Y-115509801D01*
X98599998Y-115515468D01*
X98600000Y-115515468D01*
X98600002Y-115515468D01*
X98656673Y-115510509D01*
X98826692Y-115495635D01*
X99046496Y-115436739D01*
X99252734Y-115340568D01*
X99439139Y-115210047D01*
X99600047Y-115049139D01*
X99730568Y-114862734D01*
X99826739Y-114656496D01*
X99885635Y-114436692D01*
X99905468Y-114210000D01*
X99903615Y-114188825D01*
X99885635Y-113983313D01*
X99885635Y-113983308D01*
X99826739Y-113763504D01*
X99730568Y-113557266D01*
X99600047Y-113370861D01*
X99600045Y-113370858D01*
X99439141Y-113209954D01*
X99252734Y-113079432D01*
X99252732Y-113079431D01*
X99046497Y-112983261D01*
X99046488Y-112983258D01*
X98826697Y-112924366D01*
X98826693Y-112924365D01*
X98826692Y-112924365D01*
X98826691Y-112924364D01*
X98826686Y-112924364D01*
X98600002Y-112904532D01*
X98599998Y-112904532D01*
X98373313Y-112924364D01*
X98373302Y-112924366D01*
X98153511Y-112983258D01*
X98153502Y-112983261D01*
X97947267Y-113079431D01*
X97947265Y-113079432D01*
X97760858Y-113209954D01*
X97599954Y-113370858D01*
X97469432Y-113557265D01*
X97469431Y-113557267D01*
X97373261Y-113763502D01*
X97373258Y-113763511D01*
X97314366Y-113983302D01*
X97314364Y-113983313D01*
X97294532Y-114209998D01*
X96754593Y-114209998D01*
X96755468Y-114200000D01*
X96735635Y-113973308D01*
X96679420Y-113763511D01*
X96676741Y-113753511D01*
X96676738Y-113753502D01*
X96666451Y-113731442D01*
X96580568Y-113547266D01*
X96450047Y-113360861D01*
X96450045Y-113360858D01*
X96289141Y-113199954D01*
X96102734Y-113069432D01*
X96102732Y-113069431D01*
X95896497Y-112973261D01*
X95896488Y-112973258D01*
X95678556Y-112914864D01*
X95618895Y-112878499D01*
X95588366Y-112815652D01*
X95596661Y-112746276D01*
X95609075Y-112723965D01*
X95680129Y-112622489D01*
X95680133Y-112622483D01*
X95776265Y-112416326D01*
X95776269Y-112416317D01*
X95828872Y-112220000D01*
X94865686Y-112220000D01*
X94870080Y-112215606D01*
X94922741Y-112124394D01*
X94950000Y-112022661D01*
X94950000Y-111917339D01*
X94922741Y-111815606D01*
X94870080Y-111724394D01*
X94865686Y-111720000D01*
X95828872Y-111720000D01*
X95828872Y-111719999D01*
X95776269Y-111523682D01*
X95776265Y-111523673D01*
X95680134Y-111317517D01*
X95549657Y-111131179D01*
X95388820Y-110970342D01*
X95202482Y-110839865D01*
X94996328Y-110743734D01*
X94800000Y-110691127D01*
X94800000Y-111654314D01*
X94795606Y-111649920D01*
X94704394Y-111597259D01*
X94602661Y-111570000D01*
X94497339Y-111570000D01*
X94395606Y-111597259D01*
X94304394Y-111649920D01*
X94300000Y-111654314D01*
X94300000Y-110691127D01*
X94299999Y-110691126D01*
X94206594Y-110716155D01*
X94136744Y-110714492D01*
X94078881Y-110675330D01*
X94051377Y-110611101D01*
X94050500Y-110596380D01*
X94050500Y-108527135D01*
X96799500Y-108527135D01*
X96799500Y-109672870D01*
X96799501Y-109672876D01*
X96805908Y-109732483D01*
X96856202Y-109867328D01*
X96856203Y-109867330D01*
X96856204Y-109867331D01*
X96857028Y-109868432D01*
X96857509Y-109869721D01*
X96860454Y-109875114D01*
X96859678Y-109875537D01*
X96881448Y-109933895D01*
X96872325Y-109990198D01*
X96838910Y-110070868D01*
X96838907Y-110070880D01*
X96799500Y-110268992D01*
X96799500Y-110471007D01*
X96838907Y-110669119D01*
X96838909Y-110669127D01*
X96916212Y-110855754D01*
X96938748Y-110889481D01*
X96964264Y-110927669D01*
X96970204Y-110936558D01*
X96991081Y-111003235D01*
X96972596Y-111070615D01*
X96970204Y-111074337D01*
X96916655Y-111154479D01*
X96916654Y-111154481D01*
X96839390Y-111341016D01*
X96839387Y-111341025D01*
X96829647Y-111390000D01*
X97684134Y-111390000D01*
X97708326Y-111392383D01*
X97711123Y-111392939D01*
X97723995Y-111395499D01*
X97723996Y-111395500D01*
X97723997Y-111395500D01*
X97764170Y-111395500D01*
X97749925Y-111409745D01*
X97700556Y-111495255D01*
X97675000Y-111590630D01*
X97675000Y-111689370D01*
X97700556Y-111784745D01*
X97749925Y-111870255D01*
X97769670Y-111890000D01*
X96829647Y-111890000D01*
X96839387Y-111938974D01*
X96839390Y-111938983D01*
X96916652Y-112125513D01*
X96916659Y-112125526D01*
X97028829Y-112293399D01*
X97028832Y-112293403D01*
X97171596Y-112436167D01*
X97171600Y-112436170D01*
X97339473Y-112548340D01*
X97339486Y-112548347D01*
X97526016Y-112625609D01*
X97526025Y-112625612D01*
X97724041Y-112664999D01*
X97724045Y-112665000D01*
X97800000Y-112665000D01*
X97800000Y-111920330D01*
X97819745Y-111940075D01*
X97905255Y-111989444D01*
X98000630Y-112015000D01*
X98099370Y-112015000D01*
X98194745Y-111989444D01*
X98280255Y-111940075D01*
X98300000Y-111920330D01*
X98300000Y-112665000D01*
X98375955Y-112665000D01*
X98375958Y-112664999D01*
X98573974Y-112625612D01*
X98573983Y-112625609D01*
X98760513Y-112548347D01*
X98760526Y-112548340D01*
X98928399Y-112436170D01*
X98928403Y-112436167D01*
X99071167Y-112293403D01*
X99071170Y-112293399D01*
X99183340Y-112125526D01*
X99183347Y-112125513D01*
X99260609Y-111938983D01*
X99260612Y-111938974D01*
X99270353Y-111890000D01*
X98330330Y-111890000D01*
X98350075Y-111870255D01*
X98399444Y-111784745D01*
X98425000Y-111689370D01*
X98425000Y-111590630D01*
X98399444Y-111495255D01*
X98350075Y-111409745D01*
X98335830Y-111395500D01*
X98376004Y-111395500D01*
X98376004Y-111395499D01*
X98389473Y-111392820D01*
X98391674Y-111392383D01*
X98415866Y-111390000D01*
X99270353Y-111390000D01*
X99260612Y-111341025D01*
X99260609Y-111341016D01*
X99183347Y-111154486D01*
X99183343Y-111154479D01*
X99129795Y-111074340D01*
X99108917Y-111007662D01*
X99127401Y-110940282D01*
X99129733Y-110936652D01*
X99183786Y-110855756D01*
X99261091Y-110669127D01*
X99300500Y-110471003D01*
X99300500Y-110268997D01*
X99261091Y-110070873D01*
X99227673Y-109990198D01*
X99220205Y-109920730D01*
X99239964Y-109875340D01*
X99239547Y-109875112D01*
X99242095Y-109870444D01*
X99242972Y-109868431D01*
X99243796Y-109867331D01*
X99294091Y-109732483D01*
X99300500Y-109672873D01*
X99300499Y-108527128D01*
X99294091Y-108467517D01*
X99277275Y-108422432D01*
X99243797Y-108332671D01*
X99243793Y-108332664D01*
X99157547Y-108217455D01*
X99157544Y-108217452D01*
X99042335Y-108131206D01*
X99042328Y-108131202D01*
X98907482Y-108080908D01*
X98907483Y-108080908D01*
X98847883Y-108074501D01*
X98847881Y-108074500D01*
X98847873Y-108074500D01*
X98847864Y-108074500D01*
X97252129Y-108074500D01*
X97252123Y-108074501D01*
X97192516Y-108080908D01*
X97057671Y-108131202D01*
X97057664Y-108131206D01*
X96942455Y-108217452D01*
X96942452Y-108217455D01*
X96856206Y-108332664D01*
X96856202Y-108332671D01*
X96805908Y-108467517D01*
X96799501Y-108527116D01*
X96799501Y-108527123D01*
X96799500Y-108527135D01*
X94050500Y-108527135D01*
X94050500Y-105724136D01*
X94070185Y-105657097D01*
X94122989Y-105611342D01*
X94192147Y-105601398D01*
X94206582Y-105604358D01*
X94323308Y-105635635D01*
X94485230Y-105649801D01*
X94549998Y-105655468D01*
X94550000Y-105655468D01*
X94550002Y-105655468D01*
X94606673Y-105650509D01*
X94776692Y-105635635D01*
X94996496Y-105576739D01*
X95202734Y-105480568D01*
X95389139Y-105350047D01*
X95550047Y-105189139D01*
X95680568Y-105002734D01*
X95776739Y-104796496D01*
X95835635Y-104576692D01*
X95855468Y-104350000D01*
X95835635Y-104123308D01*
X95776739Y-103903504D01*
X95680568Y-103697266D01*
X95550047Y-103510861D01*
X95550045Y-103510858D01*
X95458403Y-103419216D01*
X95424918Y-103357893D01*
X95429902Y-103288201D01*
X95471774Y-103232268D01*
X95535276Y-103208007D01*
X95676692Y-103195635D01*
X95896496Y-103136739D01*
X96102734Y-103040568D01*
X96289139Y-102910047D01*
X96450047Y-102749139D01*
X96580568Y-102562734D01*
X96676739Y-102356496D01*
X96735635Y-102136692D01*
X96751094Y-101959998D01*
X97294532Y-101959998D01*
X97294532Y-101960001D01*
X97314364Y-102186686D01*
X97314366Y-102186697D01*
X97373258Y-102406488D01*
X97373261Y-102406497D01*
X97469431Y-102612732D01*
X97469432Y-102612734D01*
X97599954Y-102799141D01*
X97760858Y-102960045D01*
X97760861Y-102960047D01*
X97947266Y-103090568D01*
X98153504Y-103186739D01*
X98373308Y-103245635D01*
X98535230Y-103259801D01*
X98599998Y-103265468D01*
X98600000Y-103265468D01*
X98600002Y-103265468D01*
X98656673Y-103260509D01*
X98826692Y-103245635D01*
X99046496Y-103186739D01*
X99252734Y-103090568D01*
X99439139Y-102960047D01*
X99600047Y-102799139D01*
X99730568Y-102612734D01*
X99826739Y-102406496D01*
X99885635Y-102186692D01*
X99903865Y-101978318D01*
X99905468Y-101960001D01*
X99905468Y-101959998D01*
X99885635Y-101733313D01*
X99885635Y-101733308D01*
X99826739Y-101513504D01*
X99730568Y-101307266D01*
X99600047Y-101120861D01*
X99600045Y-101120858D01*
X99439141Y-100959954D01*
X99252734Y-100829432D01*
X99252732Y-100829431D01*
X99046497Y-100733261D01*
X99046488Y-100733258D01*
X98826697Y-100674366D01*
X98826693Y-100674365D01*
X98826692Y-100674365D01*
X98826691Y-100674364D01*
X98826686Y-100674364D01*
X98600002Y-100654532D01*
X98599998Y-100654532D01*
X98373313Y-100674364D01*
X98373302Y-100674366D01*
X98153511Y-100733258D01*
X98153502Y-100733261D01*
X97947267Y-100829431D01*
X97947265Y-100829432D01*
X97760858Y-100959954D01*
X97599954Y-101120858D01*
X97469432Y-101307265D01*
X97469431Y-101307267D01*
X97373261Y-101513502D01*
X97373258Y-101513511D01*
X97314366Y-101733302D01*
X97314364Y-101733313D01*
X97294532Y-101959998D01*
X96751094Y-101959998D01*
X96755468Y-101910000D01*
X96735635Y-101683308D01*
X96676739Y-101463504D01*
X96580568Y-101257266D01*
X96450047Y-101070861D01*
X96450045Y-101070858D01*
X96289141Y-100909954D01*
X96102734Y-100779432D01*
X96102732Y-100779431D01*
X95896497Y-100683261D01*
X95896488Y-100683258D01*
X95676697Y-100624366D01*
X95676693Y-100624365D01*
X95676692Y-100624365D01*
X95676691Y-100624364D01*
X95676686Y-100624364D01*
X95450002Y-100604532D01*
X95449998Y-100604532D01*
X95223313Y-100624364D01*
X95223302Y-100624366D01*
X95003511Y-100683258D01*
X95003502Y-100683261D01*
X94797267Y-100779431D01*
X94797265Y-100779432D01*
X94610858Y-100909954D01*
X94449954Y-101070858D01*
X94319432Y-101257265D01*
X94319431Y-101257267D01*
X94286882Y-101327069D01*
X94240709Y-101379508D01*
X94173515Y-101398660D01*
X94106634Y-101378444D01*
X94061300Y-101325278D01*
X94050500Y-101274664D01*
X94050500Y-94925335D01*
X94070185Y-94858296D01*
X94122989Y-94812541D01*
X94192147Y-94802597D01*
X94255703Y-94831622D01*
X94286882Y-94872930D01*
X94319431Y-94942732D01*
X94319432Y-94942734D01*
X94449954Y-95129141D01*
X94610858Y-95290045D01*
X94610861Y-95290047D01*
X94797266Y-95420568D01*
X95003504Y-95516739D01*
X95223308Y-95575635D01*
X95385230Y-95589801D01*
X95449998Y-95595468D01*
X95450000Y-95595468D01*
X95450002Y-95595468D01*
X95506673Y-95590509D01*
X95676692Y-95575635D01*
X95896496Y-95516739D01*
X96102734Y-95420568D01*
X96289139Y-95290047D01*
X96450047Y-95129139D01*
X96580568Y-94942734D01*
X96676739Y-94736496D01*
X96735635Y-94516692D01*
X96751094Y-94339998D01*
X97294532Y-94339998D01*
X97294532Y-94340001D01*
X97314364Y-94566686D01*
X97314366Y-94566697D01*
X97373258Y-94786488D01*
X97373261Y-94786497D01*
X97469431Y-94992732D01*
X97469432Y-94992734D01*
X97599954Y-95179141D01*
X97760858Y-95340045D01*
X97760861Y-95340047D01*
X97947266Y-95470568D01*
X98153504Y-95566739D01*
X98153509Y-95566740D01*
X98153511Y-95566741D01*
X98156049Y-95567421D01*
X98373308Y-95625635D01*
X98535230Y-95639801D01*
X98599998Y-95645468D01*
X98600000Y-95645468D01*
X98600002Y-95645468D01*
X98656673Y-95640509D01*
X98826692Y-95625635D01*
X99046496Y-95566739D01*
X99252734Y-95470568D01*
X99439139Y-95340047D01*
X99600047Y-95179139D01*
X99730568Y-94992734D01*
X99826739Y-94786496D01*
X99885635Y-94566692D01*
X99905468Y-94340000D01*
X99885635Y-94113308D01*
X99826739Y-93893504D01*
X99730568Y-93687266D01*
X99600047Y-93500861D01*
X99600045Y-93500858D01*
X99439141Y-93339954D01*
X99252734Y-93209432D01*
X99252732Y-93209431D01*
X99046497Y-93113261D01*
X99046488Y-93113258D01*
X98826697Y-93054366D01*
X98826693Y-93054365D01*
X98826692Y-93054365D01*
X98826691Y-93054364D01*
X98826686Y-93054364D01*
X98600002Y-93034532D01*
X98599998Y-93034532D01*
X98373313Y-93054364D01*
X98373302Y-93054366D01*
X98153511Y-93113258D01*
X98153502Y-93113261D01*
X97947267Y-93209431D01*
X97947265Y-93209432D01*
X97760858Y-93339954D01*
X97599954Y-93500858D01*
X97469432Y-93687265D01*
X97469431Y-93687267D01*
X97373261Y-93893502D01*
X97373258Y-93893511D01*
X97314366Y-94113302D01*
X97314364Y-94113313D01*
X97294532Y-94339998D01*
X96751094Y-94339998D01*
X96755468Y-94290000D01*
X96735635Y-94063308D01*
X96724790Y-94022834D01*
X96726453Y-93952986D01*
X96752498Y-93910264D01*
X96751414Y-93909375D01*
X96755270Y-93904675D01*
X96755275Y-93904671D01*
X96826464Y-93798128D01*
X96875500Y-93679745D01*
X96883299Y-93640536D01*
X96900499Y-93554070D01*
X96900499Y-86774500D01*
X96920184Y-86707461D01*
X96972988Y-86661706D01*
X97024499Y-86650500D01*
X97224335Y-86650500D01*
X97469614Y-86609571D01*
X97704810Y-86528828D01*
X97923509Y-86410474D01*
X98119744Y-86257738D01*
X98288164Y-86074785D01*
X98424173Y-85866607D01*
X98524063Y-85638881D01*
X98585108Y-85397821D01*
X98587592Y-85367844D01*
X98605643Y-85150005D01*
X98605643Y-85149994D01*
X98585109Y-84902187D01*
X98585107Y-84902175D01*
X98524063Y-84661118D01*
X98424173Y-84433393D01*
X98288166Y-84225217D01*
X98153798Y-84079255D01*
X98119744Y-84042262D01*
X97923509Y-83889526D01*
X97923508Y-83889525D01*
X97923505Y-83889523D01*
X97923503Y-83889522D01*
X97840481Y-83844592D01*
X97790891Y-83795372D01*
X97775500Y-83735538D01*
X97775500Y-80064460D01*
X97795185Y-79997421D01*
X97840483Y-79955405D01*
X97856133Y-79946936D01*
X97923509Y-79910474D01*
X98119744Y-79757738D01*
X98288164Y-79574785D01*
X98424173Y-79366607D01*
X98524063Y-79138881D01*
X98585108Y-78897821D01*
X98585649Y-78891297D01*
X98605643Y-78650005D01*
X98605643Y-78649994D01*
X98585109Y-78402187D01*
X98585107Y-78402175D01*
X98524063Y-78161118D01*
X98424173Y-77933393D01*
X98288166Y-77725217D01*
X98196910Y-77626087D01*
X98119744Y-77542262D01*
X97923509Y-77389526D01*
X97923507Y-77389525D01*
X97923506Y-77389524D01*
X97704811Y-77271172D01*
X97704802Y-77271169D01*
X97469616Y-77190429D01*
X97224335Y-77149500D01*
X96975665Y-77149500D01*
X96730383Y-77190429D01*
X96564763Y-77247287D01*
X96494964Y-77250437D01*
X96434543Y-77215351D01*
X96402682Y-77153168D01*
X96400500Y-77130006D01*
X96400500Y-76356162D01*
X96420185Y-76289123D01*
X96436815Y-76268485D01*
X97100121Y-75605178D01*
X97161442Y-75571695D01*
X97219893Y-75573086D01*
X97232843Y-75576555D01*
X97264592Y-75585063D01*
X97441034Y-75600500D01*
X97499999Y-75605659D01*
X97500000Y-75605659D01*
X97500001Y-75605659D01*
X97558966Y-75600500D01*
X97735408Y-75585063D01*
X97963663Y-75523903D01*
X98177830Y-75424035D01*
X98371401Y-75288495D01*
X98538495Y-75121401D01*
X98674035Y-74927830D01*
X98773903Y-74713663D01*
X98835063Y-74485408D01*
X98855659Y-74250000D01*
X98835063Y-74014592D01*
X98773903Y-73786337D01*
X98674035Y-73572171D01*
X98668425Y-73564158D01*
X98538494Y-73378597D01*
X98371402Y-73211506D01*
X98371401Y-73211505D01*
X98185405Y-73081269D01*
X98141781Y-73026692D01*
X98134588Y-72957193D01*
X98166110Y-72894839D01*
X98185405Y-72878119D01*
X98371082Y-72748105D01*
X98538105Y-72581082D01*
X98673600Y-72387578D01*
X98773429Y-72173492D01*
X98773432Y-72173486D01*
X98830636Y-71960000D01*
X97933012Y-71960000D01*
X97965925Y-71902993D01*
X98000000Y-71775826D01*
X98000000Y-71644174D01*
X97965925Y-71517007D01*
X97933012Y-71460000D01*
X98830636Y-71460000D01*
X98830635Y-71459999D01*
X98773432Y-71246513D01*
X98773429Y-71246507D01*
X98673600Y-71032422D01*
X98673599Y-71032420D01*
X98538113Y-70838926D01*
X98538108Y-70838920D01*
X98371082Y-70671894D01*
X98177578Y-70536399D01*
X97963492Y-70436570D01*
X97963486Y-70436567D01*
X97750000Y-70379364D01*
X97750000Y-71276988D01*
X97692993Y-71244075D01*
X97565826Y-71210000D01*
X97434174Y-71210000D01*
X97307007Y-71244075D01*
X97250000Y-71276988D01*
X97250000Y-70379364D01*
X97249999Y-70379364D01*
X97036513Y-70436567D01*
X97036507Y-70436570D01*
X96822422Y-70536399D01*
X96822420Y-70536400D01*
X96628926Y-70671886D01*
X96628920Y-70671891D01*
X96461891Y-70838920D01*
X96461890Y-70838922D01*
X96331880Y-71024595D01*
X96277303Y-71068219D01*
X96207804Y-71075412D01*
X96145450Y-71043890D01*
X96128730Y-71024594D01*
X95998494Y-70838597D01*
X95831402Y-70671506D01*
X95831395Y-70671501D01*
X95637834Y-70535967D01*
X95637830Y-70535965D01*
X95637828Y-70535964D01*
X95423663Y-70436097D01*
X95423659Y-70436096D01*
X95423655Y-70436094D01*
X95195413Y-70374938D01*
X95195403Y-70374936D01*
X94960001Y-70354341D01*
X94959999Y-70354341D01*
X94724596Y-70374936D01*
X94724586Y-70374938D01*
X94496344Y-70436094D01*
X94496335Y-70436098D01*
X94282171Y-70535964D01*
X94282169Y-70535965D01*
X94088597Y-70671505D01*
X93921505Y-70838597D01*
X93791575Y-71024158D01*
X93736998Y-71067783D01*
X93667500Y-71074977D01*
X93605145Y-71043454D01*
X93588425Y-71024158D01*
X93458494Y-70838597D01*
X93291402Y-70671506D01*
X93291395Y-70671501D01*
X93097834Y-70535967D01*
X93097830Y-70535965D01*
X93097828Y-70535964D01*
X92883663Y-70436097D01*
X92883659Y-70436096D01*
X92883655Y-70436094D01*
X92655413Y-70374938D01*
X92655403Y-70374936D01*
X92420001Y-70354341D01*
X92419999Y-70354341D01*
X92184596Y-70374936D01*
X92184586Y-70374938D01*
X91956344Y-70436094D01*
X91956335Y-70436098D01*
X91742171Y-70535964D01*
X91742169Y-70535965D01*
X91548597Y-70671505D01*
X91381505Y-70838597D01*
X91245965Y-71032169D01*
X91245964Y-71032171D01*
X91146098Y-71246335D01*
X91146094Y-71246344D01*
X91084938Y-71474586D01*
X91084936Y-71474596D01*
X91064341Y-71709999D01*
X91064341Y-71710000D01*
X91084936Y-71945403D01*
X91084938Y-71945413D01*
X91146094Y-72173655D01*
X91146096Y-72173659D01*
X91146097Y-72173663D01*
X91229155Y-72351781D01*
X91245965Y-72387830D01*
X91245967Y-72387834D01*
X91315762Y-72487511D01*
X91381501Y-72581396D01*
X91381506Y-72581402D01*
X91503430Y-72703326D01*
X91536915Y-72764649D01*
X91531931Y-72834341D01*
X91490059Y-72890274D01*
X91459083Y-72907189D01*
X91327669Y-72956203D01*
X91327664Y-72956206D01*
X91212455Y-73042452D01*
X91212452Y-73042455D01*
X91126206Y-73157664D01*
X91126202Y-73157671D01*
X91075908Y-73292517D01*
X91069501Y-73352116D01*
X91069500Y-73352135D01*
X91069500Y-73475500D01*
X91049815Y-73542539D01*
X90997011Y-73588294D01*
X90945500Y-73599500D01*
X86820808Y-73599500D01*
X86753769Y-73579815D01*
X86733127Y-73563181D01*
X85621722Y-72451776D01*
X85588237Y-72390453D01*
X85586182Y-72377973D01*
X85585972Y-72376110D01*
X85585368Y-72370745D01*
X85525789Y-72200478D01*
X85514386Y-72182331D01*
X85447890Y-72076503D01*
X85429816Y-72047738D01*
X85302262Y-71920184D01*
X85274903Y-71902993D01*
X85149523Y-71824211D01*
X84979254Y-71764631D01*
X84979249Y-71764630D01*
X84800004Y-71744435D01*
X84799996Y-71744435D01*
X84620750Y-71764630D01*
X84620745Y-71764631D01*
X84450476Y-71824211D01*
X84297737Y-71920184D01*
X84170184Y-72047737D01*
X84074211Y-72200476D01*
X84014631Y-72370745D01*
X84014630Y-72370750D01*
X83994435Y-72549996D01*
X83994435Y-72550003D01*
X84014630Y-72729249D01*
X84014631Y-72729254D01*
X84074211Y-72899523D01*
X84164020Y-73042452D01*
X84170184Y-73052262D01*
X84297738Y-73179816D01*
X84450478Y-73275789D01*
X84620745Y-73335368D01*
X84627974Y-73336182D01*
X84692388Y-73363246D01*
X84701776Y-73371722D01*
X86085325Y-74755272D01*
X86085326Y-74755273D01*
X86085329Y-74755275D01*
X86085331Y-74755277D01*
X86191873Y-74826465D01*
X86310256Y-74875501D01*
X86310260Y-74875501D01*
X86310261Y-74875502D01*
X86435928Y-74900500D01*
X86435931Y-74900500D01*
X90945501Y-74900500D01*
X91012540Y-74920185D01*
X91058295Y-74972989D01*
X91069501Y-75024500D01*
X91069501Y-75147876D01*
X91075908Y-75207483D01*
X91126202Y-75342328D01*
X91126206Y-75342335D01*
X91187365Y-75424032D01*
X91212454Y-75457546D01*
X91309166Y-75529945D01*
X91351036Y-75585877D01*
X91356020Y-75655569D01*
X91322535Y-75716892D01*
X91261211Y-75750376D01*
X91220972Y-75752431D01*
X91177027Y-75747480D01*
X91150000Y-75744435D01*
X91149998Y-75744435D01*
X91149997Y-75744435D01*
X91149996Y-75744435D01*
X90970750Y-75764630D01*
X90970745Y-75764631D01*
X90800476Y-75824211D01*
X90647737Y-75920184D01*
X90520184Y-76047737D01*
X90424211Y-76200476D01*
X90364631Y-76370745D01*
X90364630Y-76370750D01*
X90344435Y-76549996D01*
X90344435Y-76550003D01*
X90364630Y-76729249D01*
X90364631Y-76729254D01*
X90424211Y-76899523D01*
X90520184Y-77052262D01*
X90647738Y-77179816D01*
X90704292Y-77215351D01*
X90776742Y-77260875D01*
X90800478Y-77275789D01*
X90964941Y-77333337D01*
X90970745Y-77335368D01*
X90970750Y-77335369D01*
X91149996Y-77355565D01*
X91150000Y-77355565D01*
X91150004Y-77355565D01*
X91329249Y-77335369D01*
X91329252Y-77335368D01*
X91329255Y-77335368D01*
X91499522Y-77275789D01*
X91605105Y-77209446D01*
X91672339Y-77190446D01*
X91739175Y-77210813D01*
X91784389Y-77264080D01*
X91793628Y-77333337D01*
X91763957Y-77396593D01*
X91747239Y-77412293D01*
X91580258Y-77542260D01*
X91411833Y-77725217D01*
X91275826Y-77933393D01*
X91175936Y-78161118D01*
X91114892Y-78402175D01*
X91114890Y-78402187D01*
X91094357Y-78649994D01*
X91094357Y-78650005D01*
X91114890Y-78897812D01*
X91114892Y-78897824D01*
X91175936Y-79138881D01*
X91275826Y-79366606D01*
X91411833Y-79574782D01*
X91411836Y-79574785D01*
X91580256Y-79757738D01*
X91776491Y-79910474D01*
X91776493Y-79910475D01*
X91983123Y-80022298D01*
X91995190Y-80028828D01*
X92008810Y-80033504D01*
X92065825Y-80073886D01*
X92091958Y-80138684D01*
X92078910Y-80207325D01*
X92056231Y-80238466D01*
X90725307Y-81569390D01*
X90725304Y-81569394D01*
X90651383Y-81680024D01*
X90651378Y-81680034D01*
X90600459Y-81802963D01*
X90600457Y-81802969D01*
X90592561Y-81842667D01*
X90574500Y-81933464D01*
X90574500Y-82534719D01*
X90555494Y-82600690D01*
X90524209Y-82650479D01*
X90464633Y-82820737D01*
X90464630Y-82820750D01*
X90444435Y-82999996D01*
X90444435Y-83000003D01*
X90464630Y-83179249D01*
X90464631Y-83179254D01*
X90524211Y-83349523D01*
X90620184Y-83502262D01*
X90729929Y-83612007D01*
X90763414Y-83673330D01*
X90763282Y-83713585D01*
X90765411Y-83713825D01*
X90744435Y-83899996D01*
X90744435Y-83900003D01*
X90764630Y-84079249D01*
X90764631Y-84079254D01*
X90824211Y-84249523D01*
X90920184Y-84402262D01*
X91047739Y-84529817D01*
X91110647Y-84569345D01*
X91156937Y-84621679D01*
X91167585Y-84690733D01*
X91164880Y-84704778D01*
X91114892Y-84902174D01*
X91114890Y-84902187D01*
X91094357Y-85149994D01*
X91094357Y-85150005D01*
X91114890Y-85397812D01*
X91114892Y-85397824D01*
X91175936Y-85638881D01*
X91275826Y-85866606D01*
X91411833Y-86074782D01*
X91411836Y-86074785D01*
X91580256Y-86257738D01*
X91776491Y-86410474D01*
X91776493Y-86410475D01*
X91958277Y-86508852D01*
X91995190Y-86528828D01*
X92230386Y-86609571D01*
X92475665Y-86650500D01*
X92724335Y-86650500D01*
X92969614Y-86609571D01*
X93204810Y-86528828D01*
X93423509Y-86410474D01*
X93619744Y-86257738D01*
X93788164Y-86074785D01*
X93924173Y-85866607D01*
X94024063Y-85638881D01*
X94039248Y-85578915D01*
X94074787Y-85518760D01*
X94137207Y-85487367D01*
X94206691Y-85494705D01*
X94247135Y-85521674D01*
X95563180Y-86837719D01*
X95596665Y-86899042D01*
X95599499Y-86925400D01*
X95599499Y-87625500D01*
X95579814Y-87692539D01*
X95527010Y-87738294D01*
X95475499Y-87749500D01*
X94567129Y-87749500D01*
X94567123Y-87749501D01*
X94507516Y-87755908D01*
X94372672Y-87806202D01*
X94372665Y-87806206D01*
X94371556Y-87807037D01*
X94370258Y-87807520D01*
X94364887Y-87810454D01*
X94364465Y-87809681D01*
X94306090Y-87831449D01*
X94249800Y-87822325D01*
X94169127Y-87788909D01*
X94169119Y-87788907D01*
X93971007Y-87749500D01*
X93971003Y-87749500D01*
X93768997Y-87749500D01*
X93768992Y-87749500D01*
X93570880Y-87788907D01*
X93570872Y-87788909D01*
X93384243Y-87866214D01*
X93303439Y-87920204D01*
X93236761Y-87941081D01*
X93169382Y-87922595D01*
X93165659Y-87920203D01*
X93085526Y-87866659D01*
X93085513Y-87866652D01*
X92898984Y-87789390D01*
X92898977Y-87789388D01*
X92850000Y-87779645D01*
X92850000Y-88634134D01*
X92847617Y-88658326D01*
X92844500Y-88673995D01*
X92844500Y-88714170D01*
X92830255Y-88699925D01*
X92744745Y-88650556D01*
X92649370Y-88625000D01*
X92550630Y-88625000D01*
X92455255Y-88650556D01*
X92369745Y-88699925D01*
X92350000Y-88719670D01*
X92350000Y-87779646D01*
X92349999Y-87779645D01*
X92301022Y-87789388D01*
X92301015Y-87789390D01*
X92114486Y-87866652D01*
X92114473Y-87866659D01*
X91946600Y-87978829D01*
X91946596Y-87978832D01*
X91803832Y-88121596D01*
X91803829Y-88121600D01*
X91691659Y-88289473D01*
X91691654Y-88289483D01*
X91651977Y-88385272D01*
X91608136Y-88439675D01*
X91541841Y-88461740D01*
X91474142Y-88444461D01*
X91449735Y-88425500D01*
X91436819Y-88412584D01*
X91403334Y-88351261D01*
X91400500Y-88324903D01*
X91400500Y-88132412D01*
X91420185Y-88065373D01*
X91427555Y-88055097D01*
X91429810Y-88052267D01*
X91429816Y-88052262D01*
X91525789Y-87899522D01*
X91585368Y-87729255D01*
X91588252Y-87703659D01*
X91605565Y-87550003D01*
X91605565Y-87549996D01*
X91585369Y-87370750D01*
X91585368Y-87370745D01*
X91550217Y-87270289D01*
X91525789Y-87200478D01*
X91429816Y-87047738D01*
X91302262Y-86920184D01*
X91268615Y-86899042D01*
X91149523Y-86824211D01*
X90979254Y-86764631D01*
X90979249Y-86764630D01*
X90800004Y-86744435D01*
X90799996Y-86744435D01*
X90620750Y-86764630D01*
X90620745Y-86764631D01*
X90450476Y-86824211D01*
X90297737Y-86920184D01*
X90170184Y-87047737D01*
X90074211Y-87200476D01*
X90014631Y-87370745D01*
X90014630Y-87370750D01*
X89994435Y-87549996D01*
X89994435Y-87550003D01*
X90014630Y-87729249D01*
X90014631Y-87729254D01*
X90074211Y-87899523D01*
X90170185Y-88052263D01*
X90172445Y-88055097D01*
X90173334Y-88057275D01*
X90173889Y-88058158D01*
X90173734Y-88058255D01*
X90198855Y-88119783D01*
X90199500Y-88132412D01*
X90199500Y-88538330D01*
X90199499Y-88538348D01*
X90199499Y-88704054D01*
X90199498Y-88704054D01*
X90240423Y-88856785D01*
X90269358Y-88906900D01*
X90269359Y-88906904D01*
X90269360Y-88906904D01*
X90319479Y-88993714D01*
X90319481Y-88993717D01*
X90438349Y-89112585D01*
X90438355Y-89112590D01*
X92813181Y-91487416D01*
X92846666Y-91548739D01*
X92849500Y-91575097D01*
X92849500Y-93022138D01*
X92829815Y-93089177D01*
X92777011Y-93134932D01*
X92707853Y-93144876D01*
X92666484Y-93131193D01*
X92614515Y-93103069D01*
X92614495Y-93103061D01*
X92394984Y-93027702D01*
X92223282Y-92999050D01*
X92166049Y-92989500D01*
X91933951Y-92989500D01*
X91888164Y-92997140D01*
X91705015Y-93027702D01*
X91485504Y-93103061D01*
X91485495Y-93103064D01*
X91281371Y-93213531D01*
X91281365Y-93213535D01*
X91098222Y-93356081D01*
X91098219Y-93356084D01*
X90941016Y-93526852D01*
X90814075Y-93721151D01*
X90720842Y-93933699D01*
X90663866Y-94158691D01*
X90663864Y-94158702D01*
X90644700Y-94389993D01*
X90644700Y-94390006D01*
X90663864Y-94621297D01*
X90663866Y-94621308D01*
X90720842Y-94846300D01*
X90814075Y-95058848D01*
X90941016Y-95253147D01*
X90941019Y-95253151D01*
X90941021Y-95253153D01*
X91098216Y-95423913D01*
X91098219Y-95423915D01*
X91098222Y-95423918D01*
X91281365Y-95566464D01*
X91281371Y-95566468D01*
X91281374Y-95566470D01*
X91485497Y-95676936D01*
X91596263Y-95714962D01*
X91705015Y-95752297D01*
X91705017Y-95752297D01*
X91705019Y-95752298D01*
X91933951Y-95790500D01*
X91933952Y-95790500D01*
X92166048Y-95790500D01*
X92166049Y-95790500D01*
X92394981Y-95752298D01*
X92614503Y-95676936D01*
X92666483Y-95648805D01*
X92734809Y-95634210D01*
X92800181Y-95658872D01*
X92841843Y-95714962D01*
X92849500Y-95757860D01*
X92849500Y-100485500D01*
X92829815Y-100552539D01*
X92777011Y-100598294D01*
X92725500Y-100609500D01*
X91151738Y-100609500D01*
X91084699Y-100589815D01*
X91038944Y-100537011D01*
X91030847Y-100513092D01*
X91024549Y-100485500D01*
X91006560Y-100406681D01*
X90913802Y-100141592D01*
X90791945Y-99888555D01*
X90642524Y-99650752D01*
X90467416Y-99431175D01*
X90268825Y-99232584D01*
X90049248Y-99057476D01*
X89811445Y-98908055D01*
X89811442Y-98908053D01*
X89558409Y-98786198D01*
X89293320Y-98693440D01*
X89293318Y-98693439D01*
X89019512Y-98630945D01*
X89019494Y-98630942D01*
X88740431Y-98599500D01*
X88740425Y-98599500D01*
X88459575Y-98599500D01*
X88459568Y-98599500D01*
X88180506Y-98630942D01*
X88180488Y-98630945D01*
X87906684Y-98693439D01*
X87831123Y-98719879D01*
X87666329Y-98777542D01*
X87625377Y-98784500D01*
X74223895Y-98784500D01*
X74156856Y-98764815D01*
X74111101Y-98712011D01*
X74101157Y-98642853D01*
X74130182Y-98579297D01*
X74182940Y-98543459D01*
X74194220Y-98539511D01*
X74253408Y-98518801D01*
X74506445Y-98396945D01*
X74744248Y-98247523D01*
X74963825Y-98072416D01*
X76317416Y-96718825D01*
X76492523Y-96499248D01*
X76641945Y-96261445D01*
X76736752Y-96064575D01*
X76763794Y-96008422D01*
X76763795Y-96008418D01*
X76763801Y-96008407D01*
X76856560Y-95743318D01*
X76919055Y-95469509D01*
X76924193Y-95423913D01*
X76943433Y-95253147D01*
X76950500Y-95190425D01*
X76950500Y-95049995D01*
X84894592Y-95049995D01*
X84894592Y-95050004D01*
X84914196Y-95311620D01*
X84914197Y-95311625D01*
X84972576Y-95567402D01*
X84972578Y-95567411D01*
X84972580Y-95567416D01*
X85068432Y-95811643D01*
X85199614Y-96038857D01*
X85331736Y-96204533D01*
X85363198Y-96243985D01*
X85472532Y-96345431D01*
X85555521Y-96422433D01*
X85772296Y-96570228D01*
X85772301Y-96570230D01*
X85772302Y-96570231D01*
X85772303Y-96570232D01*
X85885012Y-96624509D01*
X86008673Y-96684061D01*
X86008674Y-96684061D01*
X86008677Y-96684063D01*
X86259385Y-96761396D01*
X86518818Y-96800500D01*
X86781182Y-96800500D01*
X87040615Y-96761396D01*
X87291323Y-96684063D01*
X87527704Y-96570228D01*
X87744479Y-96422433D01*
X87936805Y-96243981D01*
X88100386Y-96038857D01*
X88231568Y-95811643D01*
X88327420Y-95567416D01*
X88385802Y-95311630D01*
X88385803Y-95311620D01*
X88405408Y-95050004D01*
X88405408Y-95049995D01*
X88385803Y-94788379D01*
X88385802Y-94788374D01*
X88385802Y-94788370D01*
X88327420Y-94532584D01*
X88231568Y-94288357D01*
X88100386Y-94061143D01*
X87936805Y-93856019D01*
X87936804Y-93856018D01*
X87936801Y-93856014D01*
X87744479Y-93677567D01*
X87730712Y-93668181D01*
X87527704Y-93529772D01*
X87527700Y-93529770D01*
X87527697Y-93529768D01*
X87527696Y-93529767D01*
X87291325Y-93415938D01*
X87291327Y-93415938D01*
X87040623Y-93338606D01*
X87040619Y-93338605D01*
X87040615Y-93338604D01*
X86915823Y-93319794D01*
X86781187Y-93299500D01*
X86781182Y-93299500D01*
X86518818Y-93299500D01*
X86518812Y-93299500D01*
X86357247Y-93323853D01*
X86259385Y-93338604D01*
X86259382Y-93338605D01*
X86259376Y-93338606D01*
X86008673Y-93415938D01*
X85772303Y-93529767D01*
X85772302Y-93529768D01*
X85555520Y-93677567D01*
X85363198Y-93856014D01*
X85199614Y-94061143D01*
X85068432Y-94288356D01*
X84972582Y-94532578D01*
X84972576Y-94532597D01*
X84914197Y-94788374D01*
X84914196Y-94788379D01*
X84894592Y-95049995D01*
X76950500Y-95049995D01*
X76950500Y-94909575D01*
X76933169Y-94755753D01*
X76919057Y-94630505D01*
X76919054Y-94630487D01*
X76916956Y-94621297D01*
X76856560Y-94356682D01*
X76763801Y-94091592D01*
X76641945Y-93838555D01*
X76492523Y-93600752D01*
X76317416Y-93381175D01*
X76118825Y-93182584D01*
X75899248Y-93007477D01*
X75735004Y-92904275D01*
X75661442Y-92858053D01*
X75408411Y-92736200D01*
X75143329Y-92643443D01*
X75143317Y-92643439D01*
X74869512Y-92580945D01*
X74869494Y-92580942D01*
X74590431Y-92549500D01*
X74590425Y-92549500D01*
X74309575Y-92549500D01*
X74309568Y-92549500D01*
X74030505Y-92580942D01*
X74030487Y-92580945D01*
X73756682Y-92643439D01*
X73756670Y-92643443D01*
X73491599Y-92736196D01*
X73491577Y-92736205D01*
X73238560Y-92858051D01*
X73000753Y-93007476D01*
X72781175Y-93182583D01*
X72295578Y-93668181D01*
X72234255Y-93701666D01*
X72207897Y-93704500D01*
X64104568Y-93704500D01*
X63825505Y-93735942D01*
X63825487Y-93735945D01*
X63551682Y-93798439D01*
X63551670Y-93798443D01*
X63286588Y-93891200D01*
X63033557Y-94013053D01*
X62795753Y-94162476D01*
X62576175Y-94337583D01*
X62377583Y-94536175D01*
X62202476Y-94755753D01*
X62053053Y-94993557D01*
X61931200Y-95246588D01*
X61838444Y-95511669D01*
X61838439Y-95511682D01*
X61775945Y-95785487D01*
X61775942Y-95785505D01*
X61744500Y-96064568D01*
X59500500Y-96064568D01*
X59500500Y-91299993D01*
X70824700Y-91299993D01*
X70824700Y-91300006D01*
X70843864Y-91531297D01*
X70843866Y-91531308D01*
X70900842Y-91756300D01*
X70994075Y-91968848D01*
X71121016Y-92163147D01*
X71121019Y-92163151D01*
X71121021Y-92163153D01*
X71278216Y-92333913D01*
X71278219Y-92333915D01*
X71278222Y-92333918D01*
X71461365Y-92476464D01*
X71461371Y-92476468D01*
X71461374Y-92476470D01*
X71665497Y-92586936D01*
X71779487Y-92626068D01*
X71885015Y-92662297D01*
X71885017Y-92662297D01*
X71885019Y-92662298D01*
X72113951Y-92700500D01*
X72113952Y-92700500D01*
X72346048Y-92700500D01*
X72346049Y-92700500D01*
X72574981Y-92662298D01*
X72794503Y-92586936D01*
X72998626Y-92476470D01*
X73181784Y-92333913D01*
X73338979Y-92163153D01*
X73465924Y-91968849D01*
X73559157Y-91756300D01*
X73616134Y-91531305D01*
X73616135Y-91531297D01*
X73635300Y-91300006D01*
X73635300Y-91299993D01*
X73616135Y-91068702D01*
X73616133Y-91068691D01*
X73559157Y-90843699D01*
X73465924Y-90631151D01*
X73338983Y-90436852D01*
X73338980Y-90436849D01*
X73338979Y-90436847D01*
X73181784Y-90266087D01*
X73181779Y-90266083D01*
X73181777Y-90266081D01*
X72998634Y-90123535D01*
X72998628Y-90123531D01*
X72794504Y-90013064D01*
X72794495Y-90013061D01*
X72574984Y-89937702D01*
X72384450Y-89905908D01*
X72346049Y-89899500D01*
X72113951Y-89899500D01*
X72075550Y-89905908D01*
X71885015Y-89937702D01*
X71665504Y-90013061D01*
X71665495Y-90013064D01*
X71461371Y-90123531D01*
X71461365Y-90123535D01*
X71278222Y-90266081D01*
X71278219Y-90266084D01*
X71278216Y-90266086D01*
X71278216Y-90266087D01*
X71253886Y-90292517D01*
X71121016Y-90436852D01*
X70994075Y-90631151D01*
X70900842Y-90843699D01*
X70843866Y-91068691D01*
X70843864Y-91068702D01*
X70824700Y-91299993D01*
X59500500Y-91299993D01*
X59500500Y-90027350D01*
X59520185Y-89960311D01*
X59572989Y-89914556D01*
X59642147Y-89904612D01*
X59693391Y-89924248D01*
X59820814Y-90009390D01*
X59820827Y-90009397D01*
X59964033Y-90068714D01*
X59966503Y-90069737D01*
X60121153Y-90100499D01*
X60121156Y-90100500D01*
X60121158Y-90100500D01*
X60278844Y-90100500D01*
X60278845Y-90100499D01*
X60433497Y-90069737D01*
X60579179Y-90009394D01*
X60710289Y-89921789D01*
X60821789Y-89810289D01*
X60909394Y-89679179D01*
X60909395Y-89679176D01*
X60909397Y-89679173D01*
X60937862Y-89610451D01*
X60981702Y-89556047D01*
X61047996Y-89533982D01*
X61115696Y-89551261D01*
X61163307Y-89602398D01*
X61172997Y-89628956D01*
X61213126Y-89796110D01*
X61309533Y-90028859D01*
X61441160Y-90243653D01*
X61441161Y-90243656D01*
X61475285Y-90283610D01*
X61604776Y-90435224D01*
X61753066Y-90561875D01*
X61796343Y-90598838D01*
X61796346Y-90598839D01*
X62011140Y-90730466D01*
X62155205Y-90790139D01*
X62243889Y-90826873D01*
X62488852Y-90885683D01*
X62740000Y-90905449D01*
X62991148Y-90885683D01*
X63236111Y-90826873D01*
X63468859Y-90730466D01*
X63683659Y-90598836D01*
X63875224Y-90435224D01*
X64038836Y-90243659D01*
X64170466Y-90028859D01*
X64266873Y-89796111D01*
X64325683Y-89551148D01*
X64345449Y-89300000D01*
X64337579Y-89199998D01*
X67094532Y-89199998D01*
X67094532Y-89200001D01*
X67114364Y-89426686D01*
X67114366Y-89426697D01*
X67173258Y-89646488D01*
X67173261Y-89646497D01*
X67269431Y-89852732D01*
X67269432Y-89852734D01*
X67399954Y-90039141D01*
X67560858Y-90200045D01*
X67560861Y-90200047D01*
X67747266Y-90330568D01*
X67953504Y-90426739D01*
X67953509Y-90426740D01*
X67953511Y-90426741D01*
X67991228Y-90436847D01*
X68173308Y-90485635D01*
X68335230Y-90499801D01*
X68399998Y-90505468D01*
X68400000Y-90505468D01*
X68400002Y-90505468D01*
X68456673Y-90500509D01*
X68626692Y-90485635D01*
X68846496Y-90426739D01*
X69052734Y-90330568D01*
X69239139Y-90200047D01*
X69400047Y-90039139D01*
X69530568Y-89852734D01*
X69626739Y-89646496D01*
X69685635Y-89426692D01*
X69705468Y-89200000D01*
X69685635Y-88973308D01*
X69626739Y-88753504D01*
X69530568Y-88547266D01*
X69400047Y-88360861D01*
X69400045Y-88360858D01*
X69239141Y-88199954D01*
X69052734Y-88069432D01*
X69052732Y-88069431D01*
X68846497Y-87973261D01*
X68846488Y-87973258D01*
X68626697Y-87914366D01*
X68626693Y-87914365D01*
X68626692Y-87914365D01*
X68626691Y-87914364D01*
X68626686Y-87914364D01*
X68400002Y-87894532D01*
X68399998Y-87894532D01*
X68173313Y-87914364D01*
X68173302Y-87914366D01*
X67953511Y-87973258D01*
X67953502Y-87973261D01*
X67747267Y-88069431D01*
X67747265Y-88069432D01*
X67560858Y-88199954D01*
X67399954Y-88360858D01*
X67269432Y-88547265D01*
X67269431Y-88547267D01*
X67173261Y-88753502D01*
X67173258Y-88753511D01*
X67114366Y-88973302D01*
X67114364Y-88973313D01*
X67094532Y-89199998D01*
X64337579Y-89199998D01*
X64325683Y-89048852D01*
X64266873Y-88803889D01*
X64246002Y-88753502D01*
X64170466Y-88571140D01*
X64038839Y-88356346D01*
X64038838Y-88356343D01*
X63875224Y-88164776D01*
X63837330Y-88132412D01*
X63827819Y-88124289D01*
X63789627Y-88065784D01*
X63789128Y-87995916D01*
X63826482Y-87936870D01*
X63827756Y-87935764D01*
X63875224Y-87895224D01*
X64038836Y-87703659D01*
X64170466Y-87488859D01*
X64266873Y-87256111D01*
X64325683Y-87011148D01*
X64345449Y-86760000D01*
X64325683Y-86508852D01*
X64266873Y-86263889D01*
X64170466Y-86031141D01*
X64170466Y-86031140D01*
X64089217Y-85898555D01*
X64070972Y-85831110D01*
X64092088Y-85764507D01*
X64120633Y-85734498D01*
X64197190Y-85677186D01*
X64283350Y-85562093D01*
X64283354Y-85562086D01*
X64333596Y-85427379D01*
X64333598Y-85427372D01*
X64339999Y-85367844D01*
X64340000Y-85367827D01*
X64340000Y-84470000D01*
X63230748Y-84470000D01*
X63252518Y-84432292D01*
X63290000Y-84292409D01*
X63290000Y-84147591D01*
X63252518Y-84007708D01*
X63230748Y-83970000D01*
X64340000Y-83970000D01*
X64340000Y-83072172D01*
X64339999Y-83072155D01*
X64333598Y-83012627D01*
X64333596Y-83012620D01*
X64283354Y-82877913D01*
X64283350Y-82877906D01*
X64197190Y-82762812D01*
X64197187Y-82762809D01*
X64082093Y-82676649D01*
X64082086Y-82676645D01*
X63947379Y-82626403D01*
X63947372Y-82626401D01*
X63887844Y-82620000D01*
X62990000Y-82620000D01*
X62990000Y-83729252D01*
X62952292Y-83707482D01*
X62812409Y-83670000D01*
X62667591Y-83670000D01*
X62527708Y-83707482D01*
X62490000Y-83729252D01*
X62490000Y-82620000D01*
X61592155Y-82620000D01*
X61532627Y-82626401D01*
X61532620Y-82626403D01*
X61397913Y-82676645D01*
X61397906Y-82676649D01*
X61282812Y-82762809D01*
X61282809Y-82762812D01*
X61196649Y-82877906D01*
X61196645Y-82877913D01*
X61146403Y-83012620D01*
X61146401Y-83012627D01*
X61140000Y-83072155D01*
X61140000Y-83777217D01*
X61120315Y-83844256D01*
X61067511Y-83890011D01*
X60998353Y-83899955D01*
X60934797Y-83870930D01*
X60914079Y-83845016D01*
X60912779Y-83845886D01*
X60821789Y-83709711D01*
X60821786Y-83709707D01*
X60710292Y-83598213D01*
X60710288Y-83598210D01*
X60579185Y-83510609D01*
X60579172Y-83510602D01*
X60433501Y-83450264D01*
X60433489Y-83450261D01*
X60278845Y-83419500D01*
X60278842Y-83419500D01*
X60121158Y-83419500D01*
X60121155Y-83419500D01*
X59966510Y-83450261D01*
X59966498Y-83450264D01*
X59820827Y-83510602D01*
X59820814Y-83510609D01*
X59693391Y-83595751D01*
X59626713Y-83616629D01*
X59559333Y-83598144D01*
X59512643Y-83546165D01*
X59500500Y-83492649D01*
X59500500Y-81579998D01*
X67094532Y-81579998D01*
X67094532Y-81580001D01*
X67114364Y-81806686D01*
X67114366Y-81806697D01*
X67173258Y-82026488D01*
X67173261Y-82026497D01*
X67269431Y-82232732D01*
X67269432Y-82232734D01*
X67399954Y-82419141D01*
X67560858Y-82580045D01*
X67607693Y-82612839D01*
X67747266Y-82710568D01*
X67953504Y-82806739D01*
X68173308Y-82865635D01*
X68335230Y-82879801D01*
X68399998Y-82885468D01*
X68400000Y-82885468D01*
X68400002Y-82885468D01*
X68456673Y-82880509D01*
X68626692Y-82865635D01*
X68846496Y-82806739D01*
X69052734Y-82710568D01*
X69239139Y-82580047D01*
X69400047Y-82419139D01*
X69530568Y-82232734D01*
X69626739Y-82026496D01*
X69685635Y-81806692D01*
X69705468Y-81580000D01*
X69685635Y-81353308D01*
X69626739Y-81133504D01*
X69530568Y-80927266D01*
X69411481Y-80757190D01*
X69400045Y-80740858D01*
X69239141Y-80579954D01*
X69052734Y-80449432D01*
X69052732Y-80449431D01*
X68846497Y-80353261D01*
X68846491Y-80353259D01*
X68637024Y-80297133D01*
X68577364Y-80260768D01*
X68546835Y-80197921D01*
X68555130Y-80128545D01*
X68599615Y-80074667D01*
X68648704Y-80055050D01*
X68844981Y-80022298D01*
X69064503Y-79946936D01*
X69268626Y-79836470D01*
X69451784Y-79693913D01*
X69608979Y-79523153D01*
X69735924Y-79328849D01*
X69829157Y-79116300D01*
X69886134Y-78891305D01*
X69886135Y-78891297D01*
X69905300Y-78660006D01*
X69905300Y-78659993D01*
X69900329Y-78599996D01*
X73494435Y-78599996D01*
X73494435Y-78600003D01*
X73514630Y-78779249D01*
X73514631Y-78779254D01*
X73574211Y-78949523D01*
X73670185Y-79102263D01*
X73672445Y-79105097D01*
X73673334Y-79107275D01*
X73673889Y-79108158D01*
X73673734Y-79108255D01*
X73698855Y-79169783D01*
X73699500Y-79182412D01*
X73699500Y-89613330D01*
X73699499Y-89613348D01*
X73699499Y-89779054D01*
X73699498Y-89779054D01*
X73740423Y-89931785D01*
X73769358Y-89981900D01*
X73769359Y-89981904D01*
X73769360Y-89981904D01*
X73804318Y-90042455D01*
X73819479Y-90068714D01*
X73819481Y-90068717D01*
X73938349Y-90187585D01*
X73938354Y-90187589D01*
X75531284Y-91780520D01*
X75531286Y-91780521D01*
X75531290Y-91780524D01*
X75668209Y-91859573D01*
X75668216Y-91859577D01*
X75820943Y-91900501D01*
X75820945Y-91900501D01*
X75986654Y-91900501D01*
X75986670Y-91900500D01*
X78325501Y-91900500D01*
X78392540Y-91920185D01*
X78438295Y-91972989D01*
X78449501Y-92024500D01*
X78449501Y-92247876D01*
X78455908Y-92307483D01*
X78506202Y-92442328D01*
X78506206Y-92442335D01*
X78592452Y-92557544D01*
X78592455Y-92557547D01*
X78707664Y-92643793D01*
X78707671Y-92643797D01*
X78842517Y-92694091D01*
X78842516Y-92694091D01*
X78849444Y-92694835D01*
X78902127Y-92700500D01*
X80797872Y-92700499D01*
X80857483Y-92694091D01*
X80992331Y-92643796D01*
X81107546Y-92557546D01*
X81193796Y-92442331D01*
X81244091Y-92307483D01*
X81250500Y-92247873D01*
X81250499Y-90352128D01*
X81244091Y-90292517D01*
X81234233Y-90266087D01*
X81193797Y-90157671D01*
X81193793Y-90157664D01*
X81107547Y-90042455D01*
X81107544Y-90042452D01*
X80992335Y-89956206D01*
X80992328Y-89956202D01*
X80857482Y-89905908D01*
X80857483Y-89905908D01*
X80797883Y-89899501D01*
X80797881Y-89899500D01*
X80797873Y-89899500D01*
X80797864Y-89899500D01*
X78902129Y-89899500D01*
X78902123Y-89899501D01*
X78842516Y-89905908D01*
X78707671Y-89956202D01*
X78707664Y-89956206D01*
X78592455Y-90042452D01*
X78592452Y-90042455D01*
X78506206Y-90157664D01*
X78506202Y-90157671D01*
X78455908Y-90292517D01*
X78449501Y-90352116D01*
X78449501Y-90352123D01*
X78449500Y-90352135D01*
X78449500Y-90575500D01*
X78429815Y-90642539D01*
X78377011Y-90688294D01*
X78325500Y-90699500D01*
X76200098Y-90699500D01*
X76133059Y-90679815D01*
X76112417Y-90663181D01*
X74936819Y-89487583D01*
X74903334Y-89426260D01*
X74900500Y-89399902D01*
X74900500Y-79182412D01*
X74920185Y-79115373D01*
X74927555Y-79105097D01*
X74929810Y-79102267D01*
X74929816Y-79102262D01*
X75025789Y-78949522D01*
X75085368Y-78779255D01*
X75085893Y-78774596D01*
X75105565Y-78600003D01*
X75105565Y-78599996D01*
X75085369Y-78420750D01*
X75085368Y-78420745D01*
X75025788Y-78250476D01*
X74936836Y-78108910D01*
X74929816Y-78097738D01*
X74802262Y-77970184D01*
X74649523Y-77874211D01*
X74479254Y-77814631D01*
X74479249Y-77814630D01*
X74300004Y-77794435D01*
X74299996Y-77794435D01*
X74120750Y-77814630D01*
X74120745Y-77814631D01*
X73950476Y-77874211D01*
X73797737Y-77970184D01*
X73670184Y-78097737D01*
X73574211Y-78250476D01*
X73514631Y-78420745D01*
X73514630Y-78420750D01*
X73494435Y-78599996D01*
X69900329Y-78599996D01*
X69886135Y-78428702D01*
X69886133Y-78428691D01*
X69829157Y-78203699D01*
X69735924Y-77991151D01*
X69608983Y-77796852D01*
X69608980Y-77796849D01*
X69608979Y-77796847D01*
X69451784Y-77626087D01*
X69451779Y-77626083D01*
X69451777Y-77626081D01*
X69268634Y-77483535D01*
X69268628Y-77483531D01*
X69064504Y-77373064D01*
X69064495Y-77373061D01*
X68844984Y-77297702D01*
X68643495Y-77264080D01*
X68616049Y-77259500D01*
X68383951Y-77259500D01*
X68356505Y-77264080D01*
X68155015Y-77297702D01*
X67935504Y-77373061D01*
X67935495Y-77373064D01*
X67731371Y-77483531D01*
X67731365Y-77483535D01*
X67548222Y-77626081D01*
X67548219Y-77626084D01*
X67391016Y-77796852D01*
X67264075Y-77991151D01*
X67170842Y-78203699D01*
X67113866Y-78428691D01*
X67113864Y-78428702D01*
X67094700Y-78659993D01*
X67094700Y-78660006D01*
X67113864Y-78891297D01*
X67113866Y-78891308D01*
X67170842Y-79116300D01*
X67264075Y-79328848D01*
X67391016Y-79523147D01*
X67391019Y-79523151D01*
X67391021Y-79523153D01*
X67548216Y-79693913D01*
X67548219Y-79693915D01*
X67548222Y-79693918D01*
X67731365Y-79836464D01*
X67731371Y-79836468D01*
X67731374Y-79836470D01*
X67802074Y-79874731D01*
X67929916Y-79943916D01*
X67935497Y-79946936D01*
X68155019Y-80022298D01*
X68267735Y-80041106D01*
X68330618Y-80071556D01*
X68367058Y-80131171D01*
X68365484Y-80201023D01*
X68326394Y-80258934D01*
X68262200Y-80286519D01*
X68258133Y-80286943D01*
X68173312Y-80294364D01*
X68173302Y-80294366D01*
X67953511Y-80353258D01*
X67953502Y-80353261D01*
X67747267Y-80449431D01*
X67747265Y-80449432D01*
X67560858Y-80579954D01*
X67399954Y-80740858D01*
X67269432Y-80927265D01*
X67269431Y-80927267D01*
X67173261Y-81133502D01*
X67173258Y-81133511D01*
X67114366Y-81353302D01*
X67114364Y-81353313D01*
X67094532Y-81579998D01*
X59500500Y-81579998D01*
X59500500Y-78552155D01*
X61330000Y-78552155D01*
X61330000Y-79250000D01*
X62354722Y-79250000D01*
X62310667Y-79326306D01*
X62280000Y-79440756D01*
X62280000Y-79559244D01*
X62310667Y-79673694D01*
X62354722Y-79750000D01*
X61330000Y-79750000D01*
X61330000Y-80447844D01*
X61336401Y-80507372D01*
X61336403Y-80507379D01*
X61386645Y-80642086D01*
X61386649Y-80642093D01*
X61472809Y-80757187D01*
X61472812Y-80757190D01*
X61587906Y-80843350D01*
X61587913Y-80843354D01*
X61722620Y-80893596D01*
X61722627Y-80893598D01*
X61782155Y-80899999D01*
X61782172Y-80900000D01*
X62480000Y-80900000D01*
X62480000Y-79875277D01*
X62556306Y-79919333D01*
X62670756Y-79950000D01*
X62789244Y-79950000D01*
X62903694Y-79919333D01*
X62980000Y-79875277D01*
X62980000Y-80900000D01*
X63677828Y-80900000D01*
X63677844Y-80899999D01*
X63737372Y-80893598D01*
X63737379Y-80893596D01*
X63872086Y-80843354D01*
X63872093Y-80843350D01*
X63987187Y-80757190D01*
X63987190Y-80757187D01*
X64073350Y-80642093D01*
X64073355Y-80642084D01*
X64102075Y-80565081D01*
X64143945Y-80509147D01*
X64209409Y-80484729D01*
X64277682Y-80499580D01*
X64309484Y-80524428D01*
X64318216Y-80533913D01*
X64318219Y-80533915D01*
X64318222Y-80533918D01*
X64501365Y-80676464D01*
X64501371Y-80676468D01*
X64501374Y-80676470D01*
X64705497Y-80786936D01*
X64819487Y-80826068D01*
X64925015Y-80862297D01*
X64925017Y-80862297D01*
X64925019Y-80862298D01*
X65153951Y-80900500D01*
X65153952Y-80900500D01*
X65386048Y-80900500D01*
X65386049Y-80900500D01*
X65614981Y-80862298D01*
X65834503Y-80786936D01*
X66038626Y-80676470D01*
X66221784Y-80533913D01*
X66378979Y-80363153D01*
X66505924Y-80168849D01*
X66599157Y-79956300D01*
X66656134Y-79731305D01*
X66659232Y-79693918D01*
X66675300Y-79500006D01*
X66675300Y-79499993D01*
X66656135Y-79268702D01*
X66656133Y-79268691D01*
X66599157Y-79043699D01*
X66505924Y-78831151D01*
X66378983Y-78636852D01*
X66378980Y-78636849D01*
X66378979Y-78636847D01*
X66221784Y-78466087D01*
X66221779Y-78466083D01*
X66221777Y-78466081D01*
X66038634Y-78323535D01*
X66038628Y-78323531D01*
X65834504Y-78213064D01*
X65834495Y-78213061D01*
X65614984Y-78137702D01*
X65427404Y-78106401D01*
X65386049Y-78099500D01*
X65153951Y-78099500D01*
X65112596Y-78106401D01*
X64925015Y-78137702D01*
X64705504Y-78213061D01*
X64705495Y-78213064D01*
X64501371Y-78323531D01*
X64501365Y-78323535D01*
X64318222Y-78466081D01*
X64318215Y-78466087D01*
X64309484Y-78475572D01*
X64249595Y-78511561D01*
X64179757Y-78509458D01*
X64122143Y-78469932D01*
X64102075Y-78434918D01*
X64073355Y-78357915D01*
X64073350Y-78357906D01*
X63987190Y-78242812D01*
X63987187Y-78242809D01*
X63872093Y-78156649D01*
X63872086Y-78156645D01*
X63737379Y-78106403D01*
X63737372Y-78106401D01*
X63677844Y-78100000D01*
X62980000Y-78100000D01*
X62980000Y-79124722D01*
X62903694Y-79080667D01*
X62789244Y-79050000D01*
X62670756Y-79050000D01*
X62556306Y-79080667D01*
X62480000Y-79124722D01*
X62480000Y-78100000D01*
X61782155Y-78100000D01*
X61722627Y-78106401D01*
X61722620Y-78106403D01*
X61587913Y-78156645D01*
X61587906Y-78156649D01*
X61472812Y-78242809D01*
X61472809Y-78242812D01*
X61386649Y-78357906D01*
X61386645Y-78357913D01*
X61336403Y-78492620D01*
X61336401Y-78492627D01*
X61330000Y-78552155D01*
X59500500Y-78552155D01*
X59500500Y-75471941D01*
X59520185Y-75404902D01*
X59572989Y-75359147D01*
X59642147Y-75349203D01*
X59705703Y-75378228D01*
X59712181Y-75384260D01*
X59799707Y-75471786D01*
X59799711Y-75471789D01*
X59930814Y-75559390D01*
X59930827Y-75559397D01*
X60073256Y-75618392D01*
X60076503Y-75619737D01*
X60180991Y-75640521D01*
X60231153Y-75650499D01*
X60231156Y-75650500D01*
X60231158Y-75650500D01*
X60388844Y-75650500D01*
X60388845Y-75650499D01*
X60543497Y-75619737D01*
X60689179Y-75559394D01*
X60820289Y-75471789D01*
X60931789Y-75360289D01*
X61019394Y-75229179D01*
X61019395Y-75229176D01*
X61019397Y-75229173D01*
X61047862Y-75160451D01*
X61091702Y-75106047D01*
X61157996Y-75083982D01*
X61225696Y-75101261D01*
X61273307Y-75152398D01*
X61282997Y-75178956D01*
X61323126Y-75346110D01*
X61419533Y-75578859D01*
X61551160Y-75793653D01*
X61551161Y-75793656D01*
X61566982Y-75812180D01*
X61714776Y-75985224D01*
X61863066Y-76111875D01*
X61906343Y-76148838D01*
X61906346Y-76148839D01*
X62121140Y-76280466D01*
X62303888Y-76356162D01*
X62353889Y-76376873D01*
X62598852Y-76435683D01*
X62850000Y-76455449D01*
X63101148Y-76435683D01*
X63346111Y-76376873D01*
X63578859Y-76280466D01*
X63793659Y-76148836D01*
X63985224Y-75985224D01*
X64148836Y-75793659D01*
X64280466Y-75578859D01*
X64376873Y-75346111D01*
X64435683Y-75101148D01*
X64455449Y-74850000D01*
X64435683Y-74598852D01*
X64376873Y-74353889D01*
X64280466Y-74121141D01*
X64280466Y-74121140D01*
X64199217Y-73988555D01*
X64180972Y-73921110D01*
X64202088Y-73854507D01*
X64230633Y-73824498D01*
X64307190Y-73767186D01*
X64393350Y-73652093D01*
X64393354Y-73652086D01*
X64443596Y-73517379D01*
X64443598Y-73517372D01*
X64449999Y-73457844D01*
X64450000Y-73457827D01*
X64450000Y-72560000D01*
X63340748Y-72560000D01*
X63362518Y-72522292D01*
X63400000Y-72382409D01*
X63400000Y-72237591D01*
X63362518Y-72097708D01*
X63340748Y-72060000D01*
X64450000Y-72060000D01*
X64450000Y-71162172D01*
X64449999Y-71162155D01*
X64443598Y-71102627D01*
X64443596Y-71102620D01*
X64393354Y-70967913D01*
X64393350Y-70967906D01*
X64307190Y-70852812D01*
X64307187Y-70852809D01*
X64192093Y-70766649D01*
X64192086Y-70766645D01*
X64057379Y-70716403D01*
X64057372Y-70716401D01*
X63997844Y-70710000D01*
X63100000Y-70710000D01*
X63100000Y-71819252D01*
X63062292Y-71797482D01*
X62922409Y-71760000D01*
X62777591Y-71760000D01*
X62637708Y-71797482D01*
X62600000Y-71819252D01*
X62600000Y-70710000D01*
X61702155Y-70710000D01*
X61642627Y-70716401D01*
X61642620Y-70716403D01*
X61507913Y-70766645D01*
X61507906Y-70766649D01*
X61392812Y-70852809D01*
X61392809Y-70852812D01*
X61306649Y-70967906D01*
X61306645Y-70967913D01*
X61256403Y-71102620D01*
X61256401Y-71102627D01*
X61250000Y-71162155D01*
X61250000Y-71867217D01*
X61230315Y-71934256D01*
X61177511Y-71980011D01*
X61108353Y-71989955D01*
X61044797Y-71960930D01*
X61024079Y-71935016D01*
X61022779Y-71935886D01*
X60931789Y-71799711D01*
X60931786Y-71799707D01*
X60820292Y-71688213D01*
X60820288Y-71688210D01*
X60689185Y-71600609D01*
X60689172Y-71600602D01*
X60543501Y-71540264D01*
X60543489Y-71540261D01*
X60388845Y-71509500D01*
X60388842Y-71509500D01*
X60231158Y-71509500D01*
X60231155Y-71509500D01*
X60076510Y-71540261D01*
X60076498Y-71540264D01*
X59930827Y-71600602D01*
X59930814Y-71600609D01*
X59799711Y-71688210D01*
X59799707Y-71688213D01*
X59712181Y-71775740D01*
X59650858Y-71809225D01*
X59581166Y-71804241D01*
X59525233Y-71762369D01*
X59500816Y-71696905D01*
X59500500Y-71688059D01*
X59500500Y-70092135D01*
X67099500Y-70092135D01*
X67099500Y-71987870D01*
X67099501Y-71987876D01*
X67105908Y-72047483D01*
X67156202Y-72182328D01*
X67156206Y-72182335D01*
X67242452Y-72297544D01*
X67242455Y-72297547D01*
X67357664Y-72383793D01*
X67357671Y-72383797D01*
X67492517Y-72434091D01*
X67492516Y-72434091D01*
X67499444Y-72434835D01*
X67552127Y-72440500D01*
X69447872Y-72440499D01*
X69507483Y-72434091D01*
X69642331Y-72383796D01*
X69757546Y-72297546D01*
X69843796Y-72182331D01*
X69894091Y-72047483D01*
X69900500Y-71987873D01*
X69900499Y-70092128D01*
X69894091Y-70032517D01*
X69877860Y-69989000D01*
X69843797Y-69897671D01*
X69843793Y-69897664D01*
X69757547Y-69782455D01*
X69757544Y-69782452D01*
X69642335Y-69696206D01*
X69642328Y-69696202D01*
X69507482Y-69645908D01*
X69507483Y-69645908D01*
X69447883Y-69639501D01*
X69447881Y-69639500D01*
X69447873Y-69639500D01*
X69447864Y-69639500D01*
X67552129Y-69639500D01*
X67552123Y-69639501D01*
X67492516Y-69645908D01*
X67357671Y-69696202D01*
X67357664Y-69696206D01*
X67242455Y-69782452D01*
X67242452Y-69782455D01*
X67156206Y-69897664D01*
X67156202Y-69897671D01*
X67105908Y-70032517D01*
X67099501Y-70092116D01*
X67099501Y-70092123D01*
X67099500Y-70092135D01*
X59500500Y-70092135D01*
X59500500Y-69424500D01*
X59520185Y-69357461D01*
X59572989Y-69311706D01*
X59624500Y-69300500D01*
X102175500Y-69300500D01*
X102242539Y-69320185D01*
G37*
%TD.AperFunction*%
%TD*%
M02*
