%TF.GenerationSoftware,KiCad,Pcbnew,8.0.7*%
%TF.CreationDate,2025-07-07T17:53:00+05:30*%
%TF.ProjectId,SRF_V1,5352465f-5631-42e6-9b69-6361645f7063,rev?*%
%TF.SameCoordinates,Original*%
%TF.FileFunction,Copper,L1,Top*%
%TF.FilePolarity,Positive*%
%FSLAX46Y46*%
G04 Gerber Fmt 4.6, Leading zero omitted, Abs format (unit mm)*
G04 Created by KiCad (PCBNEW 8.0.7) date 2025-07-07 17:53:00*
%MOMM*%
%LPD*%
G01*
G04 APERTURE LIST*
%TA.AperFunction,ComponentPad*%
%ADD10O,1.600000X1.600000*%
%TD*%
%TA.AperFunction,ComponentPad*%
%ADD11R,1.600000X1.600000*%
%TD*%
%TA.AperFunction,SMDPad,CuDef*%
%ADD12R,1.500000X0.900000*%
%TD*%
%TA.AperFunction,SMDPad,CuDef*%
%ADD13R,0.900000X1.500000*%
%TD*%
%TA.AperFunction,SMDPad,CuDef*%
%ADD14R,0.900000X0.900000*%
%TD*%
%TA.AperFunction,HeatsinkPad*%
%ADD15C,0.600000*%
%TD*%
%TA.AperFunction,SMDPad,CuDef*%
%ADD16R,3.800000X3.800000*%
%TD*%
%TA.AperFunction,ComponentPad*%
%ADD17C,2.000000*%
%TD*%
%TA.AperFunction,ComponentPad*%
%ADD18C,1.600000*%
%TD*%
%TA.AperFunction,ComponentPad*%
%ADD19R,1.500000X1.050000*%
%TD*%
%TA.AperFunction,ComponentPad*%
%ADD20O,1.500000X1.050000*%
%TD*%
%TA.AperFunction,ComponentPad*%
%ADD21O,1.050000X1.500000*%
%TD*%
%TA.AperFunction,ComponentPad*%
%ADD22R,1.050000X1.500000*%
%TD*%
%TA.AperFunction,ComponentPad*%
%ADD23C,3.000000*%
%TD*%
%TA.AperFunction,ComponentPad*%
%ADD24C,2.500000*%
%TD*%
%TA.AperFunction,ComponentPad*%
%ADD25R,2.600000X2.600000*%
%TD*%
%TA.AperFunction,ComponentPad*%
%ADD26C,2.600000*%
%TD*%
%TA.AperFunction,ComponentPad*%
%ADD27C,2.200000*%
%TD*%
%TA.AperFunction,ComponentPad*%
%ADD28R,2.200000X2.200000*%
%TD*%
%TA.AperFunction,ComponentPad*%
%ADD29O,1.700000X1.700000*%
%TD*%
%TA.AperFunction,ComponentPad*%
%ADD30R,1.700000X1.700000*%
%TD*%
%TA.AperFunction,ComponentPad*%
%ADD31C,1.800000*%
%TD*%
%TA.AperFunction,ComponentPad*%
%ADD32R,1.800000X1.800000*%
%TD*%
%TA.AperFunction,ComponentPad*%
%ADD33O,1.800000X1.800000*%
%TD*%
%TA.AperFunction,ViaPad*%
%ADD34C,0.600000*%
%TD*%
%TA.AperFunction,Conductor*%
%ADD35C,0.300000*%
%TD*%
%TA.AperFunction,Conductor*%
%ADD36C,0.200000*%
%TD*%
%TA.AperFunction,Conductor*%
%ADD37C,0.350000*%
%TD*%
G04 APERTURE END LIST*
D10*
%TO.P,U3,4*%
%TO.N,5v*%
X92010000Y-104350000D03*
%TO.P,U3,3*%
%TO.N,Net-(R4-Pad1)*%
X94550000Y-104350000D03*
%TO.P,U3,2*%
%TO.N,GND*%
X94550000Y-111970000D03*
D11*
%TO.P,U3,1*%
%TO.N,Net-(R3-Pad1)*%
X92010000Y-111970000D03*
%TD*%
%TO.P,U2,1*%
%TO.N,Net-(R1-Pad1)*%
X92075000Y-131820000D03*
D10*
%TO.P,U2,2*%
%TO.N,GND*%
X94615000Y-131820000D03*
%TO.P,U2,3*%
%TO.N,Net-(R2-Pad1)*%
X94615000Y-124200000D03*
%TO.P,U2,4*%
%TO.N,5v*%
X92075000Y-124200000D03*
%TD*%
D12*
%TO.P,U1,1,GND*%
%TO.N,GND*%
X71590000Y-70140000D03*
%TO.P,U1,2,VDD*%
%TO.N,5v*%
X71590000Y-71410000D03*
%TO.P,U1,3,EN*%
%TO.N,/EN*%
X71590000Y-72680000D03*
%TO.P,U1,4,SENSOR_VP*%
%TO.N,unconnected-(U1-SENSOR_VP-Pad4)*%
X71590000Y-73950000D03*
%TO.P,U1,5,SENSOR_VN*%
%TO.N,unconnected-(U1-SENSOR_VN-Pad5)*%
X71590000Y-75220000D03*
%TO.P,U1,6,IO34*%
%TO.N,unconnected-(U1-IO34-Pad6)*%
X71590000Y-76490000D03*
%TO.P,U1,7,IO35*%
%TO.N,unconnected-(U1-IO35-Pad7)*%
X71590000Y-77760000D03*
%TO.P,U1,8,IO32*%
%TO.N,unconnected-(U1-IO32-Pad8)*%
X71590000Y-79030000D03*
%TO.P,U1,9,IO33*%
%TO.N,unconnected-(U1-IO33-Pad9)*%
X71590000Y-80300000D03*
%TO.P,U1,10,IO25*%
%TO.N,/SW_IN1*%
X71590000Y-81570000D03*
%TO.P,U1,11,IO26*%
%TO.N,unconnected-(U1-IO26-Pad11)*%
X71590000Y-82840000D03*
%TO.P,U1,12,IO27*%
%TO.N,unconnected-(U1-IO27-Pad12)*%
X71590000Y-84110000D03*
%TO.P,U1,13,IO14*%
%TO.N,unconnected-(U1-IO14-Pad13)*%
X71590000Y-85380000D03*
%TO.P,U1,14,IO12*%
%TO.N,unconnected-(U1-IO12-Pad14)*%
X71590000Y-86650000D03*
D13*
%TO.P,U1,15,GND*%
%TO.N,GND*%
X74630000Y-87900000D03*
%TO.P,U1,16,IO13*%
%TO.N,unconnected-(U1-IO13-Pad16)*%
X75900000Y-87900000D03*
%TO.P,U1,17,NC*%
%TO.N,unconnected-(U1-NC-Pad17)*%
X77170000Y-87900000D03*
%TO.P,U1,18,NC*%
%TO.N,unconnected-(U1-NC-Pad18)*%
X78440000Y-87900000D03*
%TO.P,U1,19,NC*%
%TO.N,unconnected-(U1-NC-Pad19)*%
X79710000Y-87900000D03*
%TO.P,U1,20,NC*%
%TO.N,unconnected-(U1-NC-Pad20)*%
X80980000Y-87900000D03*
%TO.P,U1,21,NC*%
%TO.N,unconnected-(U1-NC-Pad21)*%
X82250000Y-87900000D03*
%TO.P,U1,22,NC*%
%TO.N,unconnected-(U1-NC-Pad22)*%
X83520000Y-87900000D03*
%TO.P,U1,23,IO15*%
%TO.N,unconnected-(U1-IO15-Pad23)*%
X84790000Y-87900000D03*
%TO.P,U1,24,IO2*%
%TO.N,/status*%
X86060000Y-87900000D03*
D12*
%TO.P,U1,25,IO0*%
%TO.N,/IOo*%
X89090000Y-86650000D03*
%TO.P,U1,26,IO4*%
%TO.N,/OP1*%
X89090000Y-85380000D03*
%TO.P,U1,27,IO16*%
%TO.N,unconnected-(U1-IO16-Pad27)*%
X89090000Y-84110000D03*
%TO.P,U1,28,IO17*%
%TO.N,unconnected-(U1-IO17-Pad28)*%
X89090000Y-82840000D03*
%TO.P,U1,29,IO5*%
%TO.N,/OP2*%
X89090000Y-81570000D03*
%TO.P,U1,30,IO18*%
%TO.N,unconnected-(U1-IO18-Pad30)*%
X89090000Y-80300000D03*
%TO.P,U1,31,IO19*%
%TO.N,unconnected-(U1-IO19-Pad31)*%
X89090000Y-79030000D03*
%TO.P,U1,32,NC*%
%TO.N,unconnected-(U1-NC-Pad32)*%
X89090000Y-77760000D03*
%TO.P,U1,33,IO21*%
%TO.N,unconnected-(U1-IO21-Pad33)*%
X89090000Y-76490000D03*
%TO.P,U1,34,RXD0/IO3*%
%TO.N,/RX*%
X89090000Y-75220000D03*
%TO.P,U1,35,TXD0/IO1*%
%TO.N,/TX*%
X89090000Y-73950000D03*
%TO.P,U1,36,IO22*%
%TO.N,/SW_IN2*%
X89090000Y-72680000D03*
%TO.P,U1,37,IO23*%
%TO.N,unconnected-(U1-IO23-Pad37)*%
X89090000Y-71410000D03*
%TO.P,U1,38,GND*%
%TO.N,GND*%
X89090000Y-70140000D03*
D14*
%TO.P,U1,39,GND*%
X77440000Y-76460000D03*
D15*
X77440000Y-77160000D03*
D14*
X77440000Y-77860000D03*
D15*
X77440000Y-78560000D03*
D14*
X77440000Y-79260000D03*
D15*
X78140000Y-76460000D03*
X78140000Y-77860000D03*
X78140000Y-79260000D03*
X78815000Y-77160000D03*
X78815000Y-78560000D03*
D14*
X78840000Y-76460000D03*
X78840000Y-77860000D03*
D16*
X78840000Y-77860000D03*
D14*
X78840000Y-79260000D03*
D15*
X79540000Y-76460000D03*
X79540000Y-77860000D03*
X79540000Y-79260000D03*
D14*
X80240000Y-76460000D03*
D15*
X80240000Y-77160000D03*
D14*
X80240000Y-77860000D03*
D15*
X80240000Y-78560000D03*
D14*
X80240000Y-79260000D03*
%TD*%
D17*
%TO.P,SW1,2,2*%
%TO.N,Net-(Q1-B)*%
X92600000Y-85150000D03*
X92600000Y-78650000D03*
%TO.P,SW1,1,1*%
%TO.N,/EN*%
X97100000Y-85150000D03*
X97100000Y-78650000D03*
%TD*%
D10*
%TO.P,R5,2*%
%TO.N,Net-(D6-A)*%
X68400000Y-81580000D03*
D18*
%TO.P,R5,1*%
%TO.N,/status*%
X68400000Y-89200000D03*
%TD*%
D10*
%TO.P,R4,2*%
%TO.N,Net-(Q3-B)*%
X98600000Y-101960000D03*
D18*
%TO.P,R4,1*%
%TO.N,Net-(R4-Pad1)*%
X98600000Y-94340000D03*
%TD*%
%TO.P,R3,1*%
%TO.N,Net-(R3-Pad1)*%
X95450000Y-101910000D03*
D10*
%TO.P,R3,2*%
%TO.N,/OP2*%
X95450000Y-94290000D03*
%TD*%
D18*
%TO.P,R2,1*%
%TO.N,Net-(R2-Pad1)*%
X98600000Y-121830000D03*
D10*
%TO.P,R2,2*%
%TO.N,Net-(Q2-B)*%
X98600000Y-114210000D03*
%TD*%
D18*
%TO.P,R1,1*%
%TO.N,Net-(R1-Pad1)*%
X95450000Y-121820000D03*
D10*
%TO.P,R1,2*%
%TO.N,/OP1*%
X95450000Y-114200000D03*
%TD*%
D19*
%TO.P,Q3,1,C*%
%TO.N,Net-(D5-A)*%
X98050000Y-109100000D03*
D20*
%TO.P,Q3,2,B*%
%TO.N,Net-(Q3-B)*%
X98050000Y-110370000D03*
%TO.P,Q3,3,E*%
%TO.N,GND*%
X98050000Y-111640000D03*
%TD*%
D19*
%TO.P,Q2,1,C*%
%TO.N,Net-(D4-A)*%
X98100000Y-124650000D03*
D20*
%TO.P,Q2,2,B*%
%TO.N,Net-(Q2-B)*%
X98100000Y-125920000D03*
%TO.P,Q2,3,E*%
%TO.N,GND*%
X98100000Y-127190000D03*
%TD*%
D21*
%TO.P,Q1,3,E*%
%TO.N,GND*%
X92600000Y-89000000D03*
%TO.P,Q1,2,B*%
%TO.N,Net-(Q1-B)*%
X93870000Y-89000000D03*
D22*
%TO.P,Q1,1,C*%
%TO.N,/EN*%
X95140000Y-89000000D03*
%TD*%
D23*
%TO.P,K2,1*%
%TO.N,Net-(J5-Pin_2)*%
X88600000Y-101100000D03*
D24*
%TO.P,K2,2*%
%TO.N,Net-(D5-A)*%
X86650000Y-95050000D03*
D23*
%TO.P,K2,3*%
%TO.N,Net-(J5-Pin_1)*%
X74450000Y-95050000D03*
%TO.P,K2,4*%
%TO.N,unconnected-(K2-Pad4)*%
X74400000Y-107100000D03*
D24*
%TO.P,K2,5*%
%TO.N,5v*%
X86650000Y-107050000D03*
%TD*%
%TO.P,K1,5*%
%TO.N,5v*%
X86800000Y-123370000D03*
D23*
%TO.P,K1,4*%
%TO.N,unconnected-(K1-Pad4)*%
X74550000Y-123420000D03*
%TO.P,K1,3*%
%TO.N,Net-(J3-Pin_1)*%
X74600000Y-111370000D03*
D24*
%TO.P,K1,2*%
%TO.N,Net-(D4-A)*%
X86800000Y-111370000D03*
D23*
%TO.P,K1,1*%
%TO.N,Net-(J3-Pin_2)*%
X88750000Y-117420000D03*
%TD*%
D25*
%TO.P,J5,1,Pin_1*%
%TO.N,Net-(J5-Pin_1)*%
X64245000Y-96205000D03*
D26*
%TO.P,J5,2,Pin_2*%
%TO.N,Net-(J5-Pin_2)*%
X64245000Y-101285000D03*
%TD*%
D27*
%TO.P,J4,3,Pin_3*%
%TO.N,/SW_IN2*%
X62740000Y-89300000D03*
%TO.P,J4,2,Pin_2*%
%TO.N,/SW_IN1*%
X62740000Y-86760000D03*
D28*
%TO.P,J4,1,Pin_1*%
%TO.N,GND*%
X62740000Y-84220000D03*
%TD*%
D25*
%TO.P,J3,1,Pin_1*%
%TO.N,Net-(J3-Pin_1)*%
X64400000Y-112520000D03*
D26*
%TO.P,J3,2,Pin_2*%
%TO.N,Net-(J3-Pin_2)*%
X64400000Y-117600000D03*
%TD*%
D29*
%TO.P,J2,6,Pin_6*%
%TO.N,GND*%
X97500000Y-71710000D03*
%TO.P,J2,5,Pin_5*%
%TO.N,/IOo*%
X97500000Y-74250000D03*
%TO.P,J2,4,Pin_4*%
%TO.N,/RX*%
X94960000Y-71710000D03*
%TO.P,J2,3,Pin_3*%
%TO.N,/TX*%
X94960000Y-74250000D03*
%TO.P,J2,2,Pin_2*%
%TO.N,/EN*%
X92420000Y-71710000D03*
D30*
%TO.P,J2,1,Pin_1*%
%TO.N,5v*%
X92420000Y-74250000D03*
%TD*%
D27*
%TO.P,J1,2,Pin_2*%
%TO.N,VCC*%
X62850000Y-74850000D03*
D28*
%TO.P,J1,1,Pin_1*%
%TO.N,GND*%
X62850000Y-72310000D03*
%TD*%
D31*
%TO.P,D6,2,A*%
%TO.N,Net-(D6-A)*%
X65270000Y-79500000D03*
D32*
%TO.P,D6,1,K*%
%TO.N,GND*%
X62730000Y-79500000D03*
%TD*%
%TO.P,D5,1,K*%
%TO.N,5v*%
X92050000Y-102010000D03*
D33*
%TO.P,D5,2,A*%
%TO.N,Net-(D5-A)*%
X92050000Y-94390000D03*
%TD*%
D32*
%TO.P,D4,1,K*%
%TO.N,5v*%
X92050000Y-121920000D03*
D33*
%TO.P,D4,2,A*%
%TO.N,Net-(D4-A)*%
X92050000Y-114300000D03*
%TD*%
%TO.P,D3,2,A*%
%TO.N,5v*%
X101100000Y-78910000D03*
D32*
%TO.P,D3,1,K*%
%TO.N,/IOo*%
X101100000Y-71290000D03*
%TD*%
D33*
%TO.P,D2,2,A*%
%TO.N,5v*%
X72230000Y-91300000D03*
D32*
%TO.P,D2,1,K*%
%TO.N,/EN*%
X79850000Y-91300000D03*
%TD*%
D33*
%TO.P,D1,2,A*%
%TO.N,VCC*%
X68500000Y-78660000D03*
D32*
%TO.P,D1,1,K*%
%TO.N,5v*%
X68500000Y-71040000D03*
%TD*%
D34*
%TO.N,5v*%
X84800000Y-72550000D03*
%TO.N,/OP2*%
X91550000Y-83900000D03*
%TO.N,/IOo*%
X91250000Y-83000000D03*
%TO.N,/OP1*%
X90800000Y-87550000D03*
%TO.N,/EN*%
X74300000Y-78600000D03*
%TO.N,/RX*%
X91150000Y-76550000D03*
%TD*%
D35*
%TO.N,5v*%
X83660000Y-71410000D02*
X84800000Y-72550000D01*
X71590000Y-71410000D02*
X83660000Y-71410000D01*
X72230000Y-91300000D02*
X73480000Y-92550000D01*
X73480000Y-92550000D02*
X93565000Y-92550000D01*
X93565000Y-92550000D02*
X101100000Y-85015000D01*
X101100000Y-85015000D02*
X101100000Y-78910000D01*
X71590000Y-71410000D02*
X68870000Y-71410000D01*
X68870000Y-71410000D02*
X68500000Y-71040000D01*
%TO.N,/OP2*%
X91900000Y-82730761D02*
X90739239Y-81570000D01*
X91550000Y-83900000D02*
X91900000Y-83550000D01*
X91900000Y-83550000D02*
X91900000Y-82730761D01*
X90739239Y-81570000D02*
X89090000Y-81570000D01*
%TO.N,5v*%
X92050000Y-124175000D02*
X92075000Y-124200000D01*
D36*
%TO.N,GND*%
X89090000Y-70140000D02*
X89220000Y-70010000D01*
X95800000Y-70010000D02*
X97500000Y-71710000D01*
X89220000Y-70010000D02*
X95800000Y-70010000D01*
X71590000Y-70140000D02*
X71290000Y-69840000D01*
X71290000Y-69840000D02*
X65320000Y-69840000D01*
X65320000Y-69840000D02*
X62850000Y-72310000D01*
D37*
%TO.N,/IOo*%
X90450000Y-83800000D02*
X90450000Y-85118248D01*
X91079595Y-88225000D02*
X90375000Y-88225000D01*
X91250000Y-83000000D02*
X90450000Y-83800000D01*
X90375000Y-88225000D02*
X89090000Y-86940000D01*
X90450000Y-85118248D02*
X91500000Y-86168248D01*
X91500000Y-86168248D02*
X91500000Y-87804595D01*
X91500000Y-87804595D02*
X91079595Y-88225000D01*
X89090000Y-86940000D02*
X89090000Y-86650000D01*
D36*
%TO.N,/OP1*%
X90040000Y-85380000D02*
X89090000Y-85380000D01*
X90800000Y-87550000D02*
X90800000Y-86140000D01*
X90800000Y-86140000D02*
X90040000Y-85380000D01*
%TO.N,/EN*%
X74300000Y-74440000D02*
X74300000Y-78600000D01*
X72540000Y-72680000D02*
X74300000Y-74440000D01*
X71590000Y-72680000D02*
X72540000Y-72680000D01*
%TO.N,/RX*%
X89820000Y-75220000D02*
X91150000Y-76550000D01*
X89090000Y-75220000D02*
X89820000Y-75220000D01*
D37*
%TO.N,/IOo*%
X101100000Y-71290000D02*
X100460000Y-71290000D01*
X100460000Y-71290000D02*
X97500000Y-74250000D01*
%TO.N,5v*%
X92420000Y-74250000D02*
X92420000Y-75914544D01*
X92420000Y-75914544D02*
X96530456Y-80025000D01*
X96530456Y-80025000D02*
X99985000Y-80025000D01*
X99985000Y-80025000D02*
X101100000Y-78910000D01*
%TO.N,/TX*%
X94960000Y-74250000D02*
X94960000Y-73442412D01*
X94960000Y-73442412D02*
X93700000Y-72182412D01*
X93700000Y-71257588D02*
X92927412Y-70485000D01*
X93700000Y-72182412D02*
X93700000Y-71257588D01*
X91195000Y-71202588D02*
X91195000Y-72905000D01*
X92927412Y-70485000D02*
X91912588Y-70485000D01*
X91912588Y-70485000D02*
X91195000Y-71202588D01*
X91195000Y-72905000D02*
X90150000Y-73950000D01*
X90150000Y-73950000D02*
X89090000Y-73950000D01*
%TO.N,/EN*%
X97100000Y-78650000D02*
X93735000Y-75285000D01*
X93735000Y-75285000D02*
X93735000Y-73025000D01*
X93735000Y-73025000D02*
X92420000Y-71710000D01*
X97100000Y-85150000D02*
X97100000Y-87040000D01*
X97100000Y-87040000D02*
X95140000Y-89000000D01*
%TO.N,Net-(Q2-B)*%
X98100000Y-125920000D02*
X98855000Y-125920000D01*
X99775000Y-125000000D02*
X99775000Y-115385000D01*
X98855000Y-125920000D02*
X99775000Y-125000000D01*
X99775000Y-115385000D02*
X98600000Y-114210000D01*
%TO.N,Net-(D4-A)*%
X98100000Y-124650000D02*
X96799999Y-123349999D01*
X96799999Y-119049999D02*
X92050000Y-114300000D01*
X96799999Y-123349999D02*
X96799999Y-119049999D01*
%TO.N,Net-(R1-Pad1)*%
X92075000Y-131820000D02*
X96249999Y-127645001D01*
X96249999Y-122619999D02*
X95450000Y-121820000D01*
X96249999Y-127645001D02*
X96249999Y-122619999D01*
%TO.N,Net-(Q3-B)*%
X98600000Y-101960000D02*
X98600000Y-106525000D01*
X98600000Y-106525000D02*
X96925000Y-108200000D01*
X97295000Y-110370000D02*
X98050000Y-110370000D01*
X96925000Y-108200000D02*
X96925000Y-110000000D01*
X96925000Y-110000000D02*
X97295000Y-110370000D01*
%TO.N,Net-(D5-A)*%
X98050000Y-109100000D02*
X99775000Y-107375000D01*
X99775000Y-107375000D02*
X99775000Y-93853299D01*
X97425000Y-94737182D02*
X96662182Y-95500000D01*
X96662182Y-95500000D02*
X93160000Y-95500000D01*
X99775000Y-93853299D02*
X99086701Y-93165000D01*
X99086701Y-93165000D02*
X98113299Y-93165000D01*
X98113299Y-93165000D02*
X97425000Y-93853299D01*
X97425000Y-93853299D02*
X97425000Y-94737182D01*
X93160000Y-95500000D02*
X92050000Y-94390000D01*
%TO.N,GND*%
X94550000Y-111970000D02*
X94880000Y-111640000D01*
X94880000Y-111640000D02*
X98050000Y-111640000D01*
%TO.N,Net-(R3-Pad1)*%
X95450000Y-101910000D02*
X95138299Y-101910000D01*
X95138299Y-101910000D02*
X93185000Y-103863299D01*
X93185000Y-103863299D02*
X93185000Y-110795000D01*
X93185000Y-110795000D02*
X92010000Y-111970000D01*
%TO.N,Net-(R4-Pad1)*%
X98600000Y-94340000D02*
X96625000Y-96315000D01*
X96625000Y-96315000D02*
X96625000Y-103406370D01*
X95681370Y-104350000D02*
X94550000Y-104350000D01*
X96625000Y-103406370D02*
X95681370Y-104350000D01*
%TO.N,Net-(D5-A)*%
X86650000Y-95050000D02*
X91390000Y-95050000D01*
X91390000Y-95050000D02*
X92050000Y-94390000D01*
%TO.N,5v*%
X92010000Y-102050000D02*
X92050000Y-102010000D01*
%TO.N,GND*%
X92600000Y-89000000D02*
X89110000Y-89000000D01*
X89110000Y-89000000D02*
X86885000Y-86775000D01*
X74655000Y-86775000D02*
X74630000Y-86800000D01*
X86885000Y-86775000D02*
X74655000Y-86775000D01*
X74630000Y-86800000D02*
X74630000Y-87900000D01*
%TO.N,Net-(Q1-B)*%
X92600000Y-85150000D02*
X93870000Y-86420000D01*
X93870000Y-86420000D02*
X93870000Y-89000000D01*
X92600000Y-85150000D02*
X92600000Y-78650000D01*
%TO.N,/EN*%
X79850000Y-91300000D02*
X93067792Y-91300000D01*
X95140000Y-89227792D02*
X95140000Y-89000000D01*
X93067792Y-91300000D02*
X95140000Y-89227792D01*
%TO.N,/SW_IN2*%
X89090000Y-72680000D02*
X88570000Y-72680000D01*
X75450000Y-85800000D02*
X74390000Y-85800000D01*
X88570000Y-72680000D02*
X75450000Y-85800000D01*
X72240000Y-87950000D02*
X64090000Y-87950000D01*
X74390000Y-85800000D02*
X72240000Y-87950000D01*
X64090000Y-87950000D02*
X62740000Y-89300000D01*
%TO.N,/status*%
X68400000Y-89200000D02*
X85860000Y-89200000D01*
X85860000Y-89200000D02*
X86060000Y-89000000D01*
X86060000Y-89000000D02*
X86060000Y-87900000D01*
%TO.N,/SW_IN1*%
X62740000Y-86760000D02*
X65720000Y-86760000D01*
X65720000Y-86760000D02*
X70910000Y-81570000D01*
X70910000Y-81570000D02*
X71590000Y-81570000D01*
%TO.N,Net-(D6-A)*%
X68400000Y-81580000D02*
X66320000Y-79500000D01*
X66320000Y-79500000D02*
X65270000Y-79500000D01*
%TO.N,VCC*%
X62850000Y-74850000D02*
X64690000Y-74850000D01*
X64690000Y-74850000D02*
X68500000Y-78660000D01*
%TD*%
%TA.AperFunction,Conductor*%
%TO.N,5v*%
G36*
X102263180Y-72703384D02*
G01*
X102296666Y-72764706D01*
X102299500Y-72791066D01*
X102299500Y-77828133D01*
X102279815Y-77895172D01*
X102227011Y-77940927D01*
X102157853Y-77950871D01*
X102094297Y-77921846D01*
X102084271Y-77912116D01*
X102051447Y-77876460D01*
X102051437Y-77876451D01*
X101868355Y-77733952D01*
X101868351Y-77733949D01*
X101664302Y-77623523D01*
X101664293Y-77623520D01*
X101444861Y-77548188D01*
X101350000Y-77532359D01*
X101350000Y-78534722D01*
X101273694Y-78490667D01*
X101159244Y-78460000D01*
X101040756Y-78460000D01*
X100926306Y-78490667D01*
X100850000Y-78534722D01*
X100850000Y-77532359D01*
X100849999Y-77532359D01*
X100755138Y-77548188D01*
X100535706Y-77623520D01*
X100535697Y-77623523D01*
X100331648Y-77733949D01*
X100331644Y-77733952D01*
X100148562Y-77876451D01*
X100148558Y-77876454D01*
X99991414Y-78047157D01*
X99864516Y-78241390D01*
X99771317Y-78453864D01*
X99719117Y-78660000D01*
X100724722Y-78660000D01*
X100680667Y-78736306D01*
X100650000Y-78850756D01*
X100650000Y-78969244D01*
X100680667Y-79083694D01*
X100724722Y-79160000D01*
X99719117Y-79160000D01*
X99771317Y-79366135D01*
X99864516Y-79578609D01*
X99991414Y-79772842D01*
X100148558Y-79943545D01*
X100148562Y-79943548D01*
X100331644Y-80086047D01*
X100331648Y-80086050D01*
X100535697Y-80196476D01*
X100535706Y-80196479D01*
X100755139Y-80271811D01*
X100849999Y-80287640D01*
X100850000Y-80287639D01*
X100850000Y-79285277D01*
X100926306Y-79329333D01*
X101040756Y-79360000D01*
X101159244Y-79360000D01*
X101273694Y-79329333D01*
X101350000Y-79285277D01*
X101350000Y-80287640D01*
X101444860Y-80271811D01*
X101664293Y-80196479D01*
X101664302Y-80196476D01*
X101868351Y-80086050D01*
X101868355Y-80086047D01*
X102051437Y-79943548D01*
X102051446Y-79943540D01*
X102084270Y-79907884D01*
X102144156Y-79871893D01*
X102213994Y-79873992D01*
X102271611Y-79913516D01*
X102298713Y-79977915D01*
X102299500Y-79991866D01*
X102299500Y-132875500D01*
X102279815Y-132942539D01*
X102227011Y-132988294D01*
X102175500Y-132999500D01*
X95574049Y-132999500D01*
X95507010Y-132979815D01*
X95461255Y-132927011D01*
X95451311Y-132857853D01*
X95480336Y-132794297D01*
X95486368Y-132787819D01*
X95615045Y-132659141D01*
X95615047Y-132659139D01*
X95745568Y-132472734D01*
X95841739Y-132266496D01*
X95900635Y-132046692D01*
X95920468Y-131820000D01*
X95900635Y-131593308D01*
X95841739Y-131373504D01*
X95745568Y-131167266D01*
X95615047Y-130980861D01*
X95615045Y-130980858D01*
X95454141Y-130819954D01*
X95267734Y-130689432D01*
X95267732Y-130689431D01*
X95061497Y-130593261D01*
X95061488Y-130593258D01*
X94841697Y-130534366D01*
X94841687Y-130534364D01*
X94623138Y-130515243D01*
X94558069Y-130489790D01*
X94517091Y-130433199D01*
X94513213Y-130363437D01*
X94546263Y-130304036D01*
X96774694Y-128075607D01*
X96834194Y-127986558D01*
X96848619Y-127964970D01*
X96880428Y-127888176D01*
X96924268Y-127833772D01*
X96990562Y-127811707D01*
X97058262Y-127828986D01*
X97082670Y-127847947D01*
X97221280Y-127986557D01*
X97389237Y-128098782D01*
X97389241Y-128098784D01*
X97389244Y-128098786D01*
X97575873Y-128176091D01*
X97773992Y-128215499D01*
X97773996Y-128215500D01*
X97773997Y-128215500D01*
X98426004Y-128215500D01*
X98426005Y-128215499D01*
X98624127Y-128176091D01*
X98810756Y-128098786D01*
X98978711Y-127986563D01*
X98978720Y-127986557D01*
X98978724Y-127986553D01*
X99121555Y-127843721D01*
X99121558Y-127843718D01*
X99233782Y-127675762D01*
X99233782Y-127675761D01*
X99233786Y-127675756D01*
X99311091Y-127489127D01*
X99350500Y-127291003D01*
X99350500Y-127088997D01*
X99311091Y-126890873D01*
X99233786Y-126704244D01*
X99198774Y-126651846D01*
X99177897Y-126585169D01*
X99196381Y-126517789D01*
X99232984Y-126479855D01*
X99285606Y-126444695D01*
X100299695Y-125430606D01*
X100302279Y-125426739D01*
X100373620Y-125319969D01*
X100424540Y-125197036D01*
X100439864Y-125119999D01*
X100450500Y-125066533D01*
X100450500Y-115318467D01*
X100436980Y-115250502D01*
X100436980Y-115250500D01*
X100424541Y-115187964D01*
X100373620Y-115065031D01*
X100373618Y-115065028D01*
X100373616Y-115065024D01*
X100299695Y-114954394D01*
X100299692Y-114954390D01*
X99914355Y-114569054D01*
X99880870Y-114507731D01*
X99882262Y-114449276D01*
X99885635Y-114436692D01*
X99905468Y-114210000D01*
X99902628Y-114177544D01*
X99892549Y-114062335D01*
X99885635Y-113983308D01*
X99826739Y-113763504D01*
X99730568Y-113557266D01*
X99632839Y-113417693D01*
X99600045Y-113370858D01*
X99439141Y-113209954D01*
X99252734Y-113079432D01*
X99252732Y-113079431D01*
X99046497Y-112983261D01*
X99046488Y-112983258D01*
X98826697Y-112924366D01*
X98826693Y-112924365D01*
X98826692Y-112924365D01*
X98826691Y-112924364D01*
X98826686Y-112924364D01*
X98600002Y-112904532D01*
X98599998Y-112904532D01*
X98373313Y-112924364D01*
X98373302Y-112924366D01*
X98153511Y-112983258D01*
X98153502Y-112983261D01*
X97947267Y-113079431D01*
X97947265Y-113079432D01*
X97760858Y-113209954D01*
X97599954Y-113370858D01*
X97469432Y-113557265D01*
X97469431Y-113557267D01*
X97373261Y-113763502D01*
X97373258Y-113763511D01*
X97314366Y-113983302D01*
X97314364Y-113983313D01*
X97294532Y-114209998D01*
X97294532Y-114210001D01*
X97314364Y-114436686D01*
X97314366Y-114436697D01*
X97373258Y-114656488D01*
X97373261Y-114656497D01*
X97469431Y-114862732D01*
X97469432Y-114862734D01*
X97599954Y-115049141D01*
X97760858Y-115210045D01*
X97760861Y-115210047D01*
X97947266Y-115340568D01*
X98153504Y-115436739D01*
X98373308Y-115495635D01*
X98535230Y-115509801D01*
X98599998Y-115515468D01*
X98600000Y-115515468D01*
X98600002Y-115515468D01*
X98714300Y-115505468D01*
X98826692Y-115495635D01*
X98839275Y-115492263D01*
X98909122Y-115493922D01*
X98959054Y-115524355D01*
X99063181Y-115628482D01*
X99096666Y-115689805D01*
X99099500Y-115716163D01*
X99099500Y-120455863D01*
X99079815Y-120522902D01*
X99027011Y-120568657D01*
X98957853Y-120578601D01*
X98943407Y-120575638D01*
X98826697Y-120544366D01*
X98826693Y-120544365D01*
X98826692Y-120544365D01*
X98826691Y-120544364D01*
X98826686Y-120544364D01*
X98600002Y-120524532D01*
X98599998Y-120524532D01*
X98373313Y-120544364D01*
X98373302Y-120544366D01*
X98153511Y-120603258D01*
X98153502Y-120603261D01*
X97947267Y-120699431D01*
X97947265Y-120699432D01*
X97760858Y-120829954D01*
X97687180Y-120903633D01*
X97625857Y-120937118D01*
X97556165Y-120932134D01*
X97500232Y-120890262D01*
X97475815Y-120824798D01*
X97475499Y-120815952D01*
X97475499Y-118983466D01*
X97466005Y-118935741D01*
X97466005Y-118935739D01*
X97449540Y-118852963D01*
X97398619Y-118730030D01*
X97398617Y-118730027D01*
X97398615Y-118730023D01*
X97324694Y-118619393D01*
X97324691Y-118619389D01*
X93445637Y-114740336D01*
X93412152Y-114679013D01*
X93413113Y-114622214D01*
X93436131Y-114531317D01*
X93436133Y-114531308D01*
X93436134Y-114531305D01*
X93437201Y-114518431D01*
X93455300Y-114300006D01*
X93455300Y-114299993D01*
X93436135Y-114068702D01*
X93436133Y-114068691D01*
X93379157Y-113843699D01*
X93285924Y-113631151D01*
X93158983Y-113436852D01*
X93158980Y-113436849D01*
X93158979Y-113436847D01*
X93086872Y-113358518D01*
X93055952Y-113295866D01*
X93063812Y-113226440D01*
X93103792Y-113175272D01*
X93167546Y-113127546D01*
X93253796Y-113012331D01*
X93304091Y-112877483D01*
X93307862Y-112842401D01*
X93334599Y-112777855D01*
X93391990Y-112738006D01*
X93461816Y-112735511D01*
X93521905Y-112771163D01*
X93532726Y-112784536D01*
X93549956Y-112809143D01*
X93710858Y-112970045D01*
X93710861Y-112970047D01*
X93897266Y-113100568D01*
X94103504Y-113196739D01*
X94103509Y-113196740D01*
X94103511Y-113196741D01*
X94143478Y-113207450D01*
X94320930Y-113254997D01*
X94380590Y-113291362D01*
X94411119Y-113354208D01*
X94402825Y-113423584D01*
X94390412Y-113445894D01*
X94319431Y-113547267D01*
X94223261Y-113753502D01*
X94223258Y-113753511D01*
X94164366Y-113973302D01*
X94164364Y-113973313D01*
X94144532Y-114199998D01*
X94144532Y-114200001D01*
X94164364Y-114426686D01*
X94164366Y-114426697D01*
X94223258Y-114646488D01*
X94223261Y-114646497D01*
X94319431Y-114852732D01*
X94319432Y-114852734D01*
X94449954Y-115039141D01*
X94610858Y-115200045D01*
X94610861Y-115200047D01*
X94797266Y-115330568D01*
X95003504Y-115426739D01*
X95223308Y-115485635D01*
X95385230Y-115499801D01*
X95449998Y-115505468D01*
X95450000Y-115505468D01*
X95450002Y-115505468D01*
X95506673Y-115500509D01*
X95676692Y-115485635D01*
X95896496Y-115426739D01*
X96102734Y-115330568D01*
X96289139Y-115200047D01*
X96450047Y-115039139D01*
X96580568Y-114852734D01*
X96676739Y-114646496D01*
X96735635Y-114426692D01*
X96755468Y-114200000D01*
X96735635Y-113973308D01*
X96679420Y-113763511D01*
X96676741Y-113753511D01*
X96676738Y-113753502D01*
X96619684Y-113631151D01*
X96580568Y-113547266D01*
X96450047Y-113360861D01*
X96450045Y-113360858D01*
X96289141Y-113199954D01*
X96102734Y-113069432D01*
X96102732Y-113069431D01*
X95896497Y-112973261D01*
X95896488Y-112973258D01*
X95679070Y-112915002D01*
X95619409Y-112878637D01*
X95588880Y-112815790D01*
X95597175Y-112746415D01*
X95609585Y-112724108D01*
X95680568Y-112622734D01*
X95776739Y-112416496D01*
X95779175Y-112407405D01*
X95815541Y-112347745D01*
X95878388Y-112317217D01*
X95898949Y-112315500D01*
X96998862Y-112315500D01*
X97065901Y-112335185D01*
X97086538Y-112351814D01*
X97142129Y-112407405D01*
X97171283Y-112436559D01*
X97339237Y-112548782D01*
X97339241Y-112548784D01*
X97339244Y-112548786D01*
X97525873Y-112626091D01*
X97723992Y-112665499D01*
X97723996Y-112665500D01*
X97723997Y-112665500D01*
X98376004Y-112665500D01*
X98376005Y-112665499D01*
X98574127Y-112626091D01*
X98760756Y-112548786D01*
X98928718Y-112436558D01*
X99071558Y-112293718D01*
X99183786Y-112125756D01*
X99261091Y-111939127D01*
X99300500Y-111741003D01*
X99300500Y-111538997D01*
X99261091Y-111340873D01*
X99191194Y-111172128D01*
X99183787Y-111154246D01*
X99162326Y-111122127D01*
X99130094Y-111073889D01*
X99109217Y-111007214D01*
X99127701Y-110939834D01*
X99130078Y-110936134D01*
X99183786Y-110855756D01*
X99261091Y-110669127D01*
X99300500Y-110471003D01*
X99300500Y-110268997D01*
X99261091Y-110070873D01*
X99227673Y-109990198D01*
X99220205Y-109920730D01*
X99239964Y-109875340D01*
X99239547Y-109875112D01*
X99242095Y-109870444D01*
X99242972Y-109868431D01*
X99243796Y-109867331D01*
X99294091Y-109732483D01*
X99300500Y-109672873D01*
X99300499Y-108856162D01*
X99320183Y-108789124D01*
X99336818Y-108768482D01*
X100299692Y-107805609D01*
X100299693Y-107805608D01*
X100299693Y-107805607D01*
X100299695Y-107805606D01*
X100323891Y-107769394D01*
X100373620Y-107694969D01*
X100424540Y-107572036D01*
X100450500Y-107441531D01*
X100450500Y-93786768D01*
X100446362Y-93765965D01*
X100424541Y-93656263D01*
X100379563Y-93547678D01*
X100373620Y-93533330D01*
X100371239Y-93529767D01*
X100299698Y-93422697D01*
X100299697Y-93422696D01*
X100299695Y-93422693D01*
X100205606Y-93328604D01*
X99861534Y-92984532D01*
X99517310Y-92640307D01*
X99517306Y-92640304D01*
X99406676Y-92566383D01*
X99406666Y-92566378D01*
X99283737Y-92515459D01*
X99283729Y-92515457D01*
X99153236Y-92489500D01*
X99153232Y-92489500D01*
X98179830Y-92489500D01*
X98046768Y-92489500D01*
X98046763Y-92489500D01*
X97916270Y-92515456D01*
X97916266Y-92515458D01*
X97916264Y-92515458D01*
X97916263Y-92515459D01*
X97872799Y-92533462D01*
X97829333Y-92551466D01*
X97829332Y-92551465D01*
X97793333Y-92566378D01*
X97682690Y-92640306D01*
X96900307Y-93422689D01*
X96900304Y-93422693D01*
X96826383Y-93533323D01*
X96826380Y-93533330D01*
X96794459Y-93610392D01*
X96750617Y-93664795D01*
X96684322Y-93686859D01*
X96616623Y-93669579D01*
X96578325Y-93634063D01*
X96450047Y-93450861D01*
X96450045Y-93450858D01*
X96289141Y-93289954D01*
X96102734Y-93159432D01*
X96102732Y-93159431D01*
X95896497Y-93063261D01*
X95896488Y-93063258D01*
X95676697Y-93004366D01*
X95676693Y-93004365D01*
X95676692Y-93004365D01*
X95676691Y-93004364D01*
X95676686Y-93004364D01*
X95450002Y-92984532D01*
X95449998Y-92984532D01*
X95223313Y-93004364D01*
X95223302Y-93004366D01*
X95003511Y-93063258D01*
X95003502Y-93063261D01*
X94797267Y-93159431D01*
X94797265Y-93159432D01*
X94610858Y-93289954D01*
X94449954Y-93450858D01*
X94319432Y-93637265D01*
X94319431Y-93637267D01*
X94223261Y-93843502D01*
X94223258Y-93843511D01*
X94164366Y-94063302D01*
X94164364Y-94063313D01*
X94144532Y-94289998D01*
X94144532Y-94290001D01*
X94164364Y-94516686D01*
X94164366Y-94516697D01*
X94205016Y-94668407D01*
X94203353Y-94738257D01*
X94164190Y-94796119D01*
X94099961Y-94823623D01*
X94085241Y-94824500D01*
X93543994Y-94824500D01*
X93476955Y-94804815D01*
X93431200Y-94752011D01*
X93421256Y-94682853D01*
X93423788Y-94670060D01*
X93436133Y-94621309D01*
X93436135Y-94621297D01*
X93455300Y-94390006D01*
X93455300Y-94389993D01*
X93436135Y-94158702D01*
X93436133Y-94158691D01*
X93379157Y-93933699D01*
X93285924Y-93721151D01*
X93158983Y-93526852D01*
X93158980Y-93526849D01*
X93158979Y-93526847D01*
X93001784Y-93356087D01*
X93001779Y-93356083D01*
X93001777Y-93356081D01*
X92818634Y-93213535D01*
X92818628Y-93213531D01*
X92614504Y-93103064D01*
X92614495Y-93103061D01*
X92394984Y-93027702D01*
X92223282Y-92999050D01*
X92166049Y-92989500D01*
X91933951Y-92989500D01*
X91888164Y-92997140D01*
X91705015Y-93027702D01*
X91485504Y-93103061D01*
X91485495Y-93103064D01*
X91281371Y-93213531D01*
X91281365Y-93213535D01*
X91098222Y-93356081D01*
X91098219Y-93356084D01*
X91098216Y-93356086D01*
X91098216Y-93356087D01*
X91043120Y-93415937D01*
X90941016Y-93526852D01*
X90814075Y-93721151D01*
X90720842Y-93933699D01*
X90663866Y-94158691D01*
X90663864Y-94158702D01*
X90655410Y-94260740D01*
X90630257Y-94325925D01*
X90573855Y-94367163D01*
X90531834Y-94374500D01*
X88349918Y-94374500D01*
X88282879Y-94354815D01*
X88237124Y-94302011D01*
X88234498Y-94295824D01*
X88231568Y-94288357D01*
X88100386Y-94061143D01*
X87936805Y-93856019D01*
X87936804Y-93856018D01*
X87936801Y-93856014D01*
X87744479Y-93677567D01*
X87725746Y-93664795D01*
X87527704Y-93529772D01*
X87527700Y-93529770D01*
X87527697Y-93529768D01*
X87527696Y-93529767D01*
X87291325Y-93415938D01*
X87291327Y-93415938D01*
X87040623Y-93338606D01*
X87040619Y-93338605D01*
X87040615Y-93338604D01*
X86915823Y-93319794D01*
X86781187Y-93299500D01*
X86781182Y-93299500D01*
X86518818Y-93299500D01*
X86518812Y-93299500D01*
X86357247Y-93323853D01*
X86259385Y-93338604D01*
X86259382Y-93338605D01*
X86259376Y-93338606D01*
X86008673Y-93415938D01*
X85772303Y-93529767D01*
X85772302Y-93529768D01*
X85555520Y-93677567D01*
X85363198Y-93856014D01*
X85199614Y-94061143D01*
X85068432Y-94288356D01*
X84972582Y-94532578D01*
X84972576Y-94532597D01*
X84914197Y-94788374D01*
X84914196Y-94788379D01*
X84894592Y-95049995D01*
X84894592Y-95050004D01*
X84914196Y-95311620D01*
X84914197Y-95311625D01*
X84972576Y-95567402D01*
X84972578Y-95567411D01*
X84972580Y-95567416D01*
X85068432Y-95811643D01*
X85199614Y-96038857D01*
X85328520Y-96200500D01*
X85363198Y-96243985D01*
X85544753Y-96412441D01*
X85555521Y-96422433D01*
X85772296Y-96570228D01*
X85772301Y-96570230D01*
X85772302Y-96570231D01*
X85772303Y-96570232D01*
X85823322Y-96594801D01*
X86008673Y-96684061D01*
X86008674Y-96684061D01*
X86008677Y-96684063D01*
X86259385Y-96761396D01*
X86518818Y-96800500D01*
X86781182Y-96800500D01*
X87040615Y-96761396D01*
X87291323Y-96684063D01*
X87478111Y-96594110D01*
X87527696Y-96570232D01*
X87527696Y-96570231D01*
X87527704Y-96570228D01*
X87744479Y-96422433D01*
X87931968Y-96248469D01*
X87936801Y-96243985D01*
X87936801Y-96243983D01*
X87936805Y-96243981D01*
X88100386Y-96038857D01*
X88231568Y-95811643D01*
X88234489Y-95804198D01*
X88277303Y-95748986D01*
X88343172Y-95725684D01*
X88349918Y-95725500D01*
X91456532Y-95725500D01*
X91467525Y-95723312D01*
X91531627Y-95710562D01*
X91596076Y-95714897D01*
X91705019Y-95752298D01*
X91933951Y-95790500D01*
X91933952Y-95790500D01*
X92166048Y-95790500D01*
X92166049Y-95790500D01*
X92385170Y-95753935D01*
X92454535Y-95762317D01*
X92493261Y-95788563D01*
X92729390Y-96024692D01*
X92729398Y-96024698D01*
X92840020Y-96098613D01*
X92840023Y-96098614D01*
X92840031Y-96098620D01*
X92962964Y-96149540D01*
X92962968Y-96149540D01*
X92962969Y-96149541D01*
X93093466Y-96175500D01*
X93093469Y-96175500D01*
X93226531Y-96175500D01*
X95825500Y-96175500D01*
X95892539Y-96195185D01*
X95938294Y-96247989D01*
X95949500Y-96299500D01*
X95949500Y-100535863D01*
X95929815Y-100602902D01*
X95877011Y-100648657D01*
X95807853Y-100658601D01*
X95793407Y-100655638D01*
X95676697Y-100624366D01*
X95676693Y-100624365D01*
X95676692Y-100624365D01*
X95676691Y-100624364D01*
X95676686Y-100624364D01*
X95450002Y-100604532D01*
X95449998Y-100604532D01*
X95223313Y-100624364D01*
X95223302Y-100624366D01*
X95003511Y-100683258D01*
X95003502Y-100683261D01*
X94797267Y-100779431D01*
X94797265Y-100779432D01*
X94610858Y-100909954D01*
X94449954Y-101070858D01*
X94319432Y-101257265D01*
X94319431Y-101257267D01*
X94223261Y-101463502D01*
X94223258Y-101463511D01*
X94164366Y-101683302D01*
X94164364Y-101683312D01*
X94144777Y-101907193D01*
X94119324Y-101972261D01*
X94108930Y-101984066D01*
X93661681Y-102431316D01*
X93600358Y-102464801D01*
X93530667Y-102459817D01*
X93474733Y-102417946D01*
X93450316Y-102352481D01*
X93450000Y-102343635D01*
X93450000Y-102260000D01*
X92425278Y-102260000D01*
X92469333Y-102183694D01*
X92500000Y-102069244D01*
X92500000Y-101950756D01*
X92469333Y-101836306D01*
X92425278Y-101760000D01*
X93450000Y-101760000D01*
X93450000Y-101062172D01*
X93449999Y-101062155D01*
X93443598Y-101002627D01*
X93443596Y-101002620D01*
X93393354Y-100867913D01*
X93393350Y-100867906D01*
X93307190Y-100752812D01*
X93307187Y-100752809D01*
X93192093Y-100666649D01*
X93192086Y-100666645D01*
X93057379Y-100616403D01*
X93057372Y-100616401D01*
X92997844Y-100610000D01*
X92300000Y-100610000D01*
X92300000Y-101634722D01*
X92223694Y-101590667D01*
X92109244Y-101560000D01*
X91990756Y-101560000D01*
X91876306Y-101590667D01*
X91800000Y-101634722D01*
X91800000Y-100610000D01*
X91102155Y-100610000D01*
X91042627Y-100616401D01*
X91042620Y-100616403D01*
X90907913Y-100666645D01*
X90907906Y-100666649D01*
X90792812Y-100752809D01*
X90792810Y-100752811D01*
X90784246Y-100764251D01*
X90728310Y-100806119D01*
X90658618Y-100811100D01*
X90597297Y-100777611D01*
X90563817Y-100716293D01*
X90524371Y-100534962D01*
X90524370Y-100534960D01*
X90524369Y-100534954D01*
X90424367Y-100266839D01*
X90309739Y-100056915D01*
X90287229Y-100015690D01*
X90287224Y-100015682D01*
X90115745Y-99786612D01*
X90115729Y-99786594D01*
X89913405Y-99584270D01*
X89913387Y-99584254D01*
X89684317Y-99412775D01*
X89684309Y-99412770D01*
X89433166Y-99275635D01*
X89433167Y-99275635D01*
X89325915Y-99235632D01*
X89165046Y-99175631D01*
X89165043Y-99175630D01*
X89165037Y-99175628D01*
X88885433Y-99114804D01*
X88600001Y-99094390D01*
X88599999Y-99094390D01*
X88314566Y-99114804D01*
X88034962Y-99175628D01*
X87766833Y-99275635D01*
X87515690Y-99412770D01*
X87515682Y-99412775D01*
X87286612Y-99584254D01*
X87286594Y-99584270D01*
X87084270Y-99786594D01*
X87084254Y-99786612D01*
X86912775Y-100015682D01*
X86912770Y-100015690D01*
X86775635Y-100266833D01*
X86675628Y-100534962D01*
X86614804Y-100814566D01*
X86594390Y-101099998D01*
X86594390Y-101100001D01*
X86614804Y-101385433D01*
X86675628Y-101665037D01*
X86675630Y-101665043D01*
X86675631Y-101665046D01*
X86775632Y-101933158D01*
X86775635Y-101933166D01*
X86912770Y-102184309D01*
X86912775Y-102184317D01*
X87084254Y-102413387D01*
X87084270Y-102413405D01*
X87286594Y-102615729D01*
X87286612Y-102615745D01*
X87515682Y-102787224D01*
X87515690Y-102787229D01*
X87766833Y-102924364D01*
X87766832Y-102924364D01*
X87766836Y-102924365D01*
X87766839Y-102924367D01*
X88034954Y-103024369D01*
X88034960Y-103024370D01*
X88034962Y-103024371D01*
X88314566Y-103085195D01*
X88314568Y-103085195D01*
X88314572Y-103085196D01*
X88568220Y-103103337D01*
X88599999Y-103105610D01*
X88600000Y-103105610D01*
X88600001Y-103105610D01*
X88628595Y-103103564D01*
X88885428Y-103085196D01*
X89068920Y-103045280D01*
X89165037Y-103024371D01*
X89165037Y-103024370D01*
X89165046Y-103024369D01*
X89433161Y-102924367D01*
X89684315Y-102787226D01*
X89913395Y-102615739D01*
X90115739Y-102413395D01*
X90287226Y-102184315D01*
X90424367Y-101933161D01*
X90465275Y-101823481D01*
X90507144Y-101767551D01*
X90572608Y-101743133D01*
X90640881Y-101757984D01*
X90643574Y-101760000D01*
X91674722Y-101760000D01*
X91630667Y-101836306D01*
X91600000Y-101950756D01*
X91600000Y-102069244D01*
X91630667Y-102183694D01*
X91674722Y-102260000D01*
X90650000Y-102260000D01*
X90650000Y-102957844D01*
X90656401Y-103017372D01*
X90656403Y-103017379D01*
X90706645Y-103152086D01*
X90706649Y-103152093D01*
X90792809Y-103267187D01*
X90792812Y-103267190D01*
X90907906Y-103353350D01*
X90907913Y-103353354D01*
X90926581Y-103360317D01*
X90982515Y-103402189D01*
X91006932Y-103467653D01*
X90992080Y-103535926D01*
X90984823Y-103547622D01*
X90879868Y-103697512D01*
X90879866Y-103697516D01*
X90783734Y-103903673D01*
X90783730Y-103903682D01*
X90731127Y-104099999D01*
X90731128Y-104100000D01*
X91694314Y-104100000D01*
X91689920Y-104104394D01*
X91637259Y-104195606D01*
X91610000Y-104297339D01*
X91610000Y-104402661D01*
X91637259Y-104504394D01*
X91689920Y-104595606D01*
X91694314Y-104600000D01*
X90731128Y-104600000D01*
X90783730Y-104796317D01*
X90783734Y-104796326D01*
X90879865Y-105002482D01*
X91010342Y-105188820D01*
X91171179Y-105349657D01*
X91357517Y-105480134D01*
X91563673Y-105576265D01*
X91563682Y-105576269D01*
X91759999Y-105628872D01*
X91760000Y-105628871D01*
X91760000Y-104665686D01*
X91764394Y-104670080D01*
X91855606Y-104722741D01*
X91957339Y-104750000D01*
X92062661Y-104750000D01*
X92164394Y-104722741D01*
X92255606Y-104670080D01*
X92260000Y-104665686D01*
X92260000Y-105628871D01*
X92353406Y-105603844D01*
X92423256Y-105605507D01*
X92481119Y-105644669D01*
X92508623Y-105708898D01*
X92509500Y-105723619D01*
X92509500Y-110463835D01*
X92489815Y-110530874D01*
X92473181Y-110551516D01*
X92391516Y-110633181D01*
X92330193Y-110666666D01*
X92303835Y-110669500D01*
X91162129Y-110669500D01*
X91162123Y-110669501D01*
X91102516Y-110675908D01*
X90967671Y-110726202D01*
X90967664Y-110726206D01*
X90852455Y-110812452D01*
X90852452Y-110812455D01*
X90766206Y-110927664D01*
X90766202Y-110927671D01*
X90715908Y-111062517D01*
X90709501Y-111122116D01*
X90709500Y-111122135D01*
X90709500Y-112817870D01*
X90709501Y-112817876D01*
X90715908Y-112877483D01*
X90766202Y-113012328D01*
X90766206Y-113012335D01*
X90852452Y-113127544D01*
X90852455Y-113127547D01*
X90963568Y-113210727D01*
X91005439Y-113266661D01*
X91010423Y-113336352D01*
X90980487Y-113393975D01*
X90941019Y-113436849D01*
X90814075Y-113631151D01*
X90720842Y-113843699D01*
X90663866Y-114068691D01*
X90663864Y-114068702D01*
X90644700Y-114299993D01*
X90644700Y-114300006D01*
X90663864Y-114531297D01*
X90663866Y-114531308D01*
X90720842Y-114756300D01*
X90814075Y-114968848D01*
X90941016Y-115163147D01*
X90941019Y-115163151D01*
X90941021Y-115163153D01*
X91098216Y-115333913D01*
X91098219Y-115333915D01*
X91098222Y-115333918D01*
X91281365Y-115476464D01*
X91281371Y-115476468D01*
X91281374Y-115476470D01*
X91485497Y-115586936D01*
X91599487Y-115626068D01*
X91705015Y-115662297D01*
X91705017Y-115662297D01*
X91705019Y-115662298D01*
X91933951Y-115700500D01*
X91933952Y-115700500D01*
X92166048Y-115700500D01*
X92166049Y-115700500D01*
X92385171Y-115663935D01*
X92454536Y-115672317D01*
X92493262Y-115698563D01*
X96088180Y-119293481D01*
X96121665Y-119354804D01*
X96124499Y-119381162D01*
X96124499Y-120504939D01*
X96104814Y-120571978D01*
X96052010Y-120617733D01*
X95982852Y-120627677D01*
X95948096Y-120617322D01*
X95917934Y-120603258D01*
X95896496Y-120593261D01*
X95896492Y-120593260D01*
X95896488Y-120593258D01*
X95676697Y-120534366D01*
X95676693Y-120534365D01*
X95676692Y-120534365D01*
X95676691Y-120534364D01*
X95676686Y-120534364D01*
X95450002Y-120514532D01*
X95449998Y-120514532D01*
X95223313Y-120534364D01*
X95223302Y-120534366D01*
X95003511Y-120593258D01*
X95003502Y-120593261D01*
X94797267Y-120689431D01*
X94797265Y-120689432D01*
X94610858Y-120819954D01*
X94449954Y-120980858D01*
X94319432Y-121167265D01*
X94319431Y-121167267D01*
X94223261Y-121373502D01*
X94223258Y-121373511D01*
X94164366Y-121593302D01*
X94164364Y-121593313D01*
X94144532Y-121819998D01*
X94144532Y-121820001D01*
X94164364Y-122046686D01*
X94164366Y-122046697D01*
X94223258Y-122266488D01*
X94223261Y-122266497D01*
X94319431Y-122472732D01*
X94319432Y-122472734D01*
X94449954Y-122659141D01*
X94491653Y-122700840D01*
X94525138Y-122762163D01*
X94520154Y-122831855D01*
X94478282Y-122887788D01*
X94414780Y-122912049D01*
X94388312Y-122914364D01*
X94388302Y-122914366D01*
X94168511Y-122973258D01*
X94168502Y-122973261D01*
X93962267Y-123069431D01*
X93962265Y-123069432D01*
X93775858Y-123199954D01*
X93614954Y-123360858D01*
X93511834Y-123508131D01*
X93484432Y-123547266D01*
X93457597Y-123604815D01*
X93457106Y-123605867D01*
X93410933Y-123658306D01*
X93343739Y-123677457D01*
X93276858Y-123657241D01*
X93232342Y-123605865D01*
X93205135Y-123547520D01*
X93205129Y-123547510D01*
X93136595Y-123449634D01*
X93114267Y-123383428D01*
X93131277Y-123315661D01*
X93182224Y-123267848D01*
X93190446Y-123264249D01*
X93192093Y-123263350D01*
X93307187Y-123177190D01*
X93307190Y-123177187D01*
X93393350Y-123062093D01*
X93393354Y-123062086D01*
X93443596Y-122927379D01*
X93443598Y-122927372D01*
X93449999Y-122867844D01*
X93450000Y-122867827D01*
X93450000Y-122170000D01*
X92425278Y-122170000D01*
X92469333Y-122093694D01*
X92500000Y-121979244D01*
X92500000Y-121860756D01*
X92469333Y-121746306D01*
X92425278Y-121670000D01*
X93450000Y-121670000D01*
X93450000Y-120972172D01*
X93449999Y-120972155D01*
X93443598Y-120912627D01*
X93443596Y-120912620D01*
X93393354Y-120777913D01*
X93393350Y-120777906D01*
X93307190Y-120662812D01*
X93307187Y-120662809D01*
X93192093Y-120576649D01*
X93192086Y-120576645D01*
X93057379Y-120526403D01*
X93057372Y-120526401D01*
X92997844Y-120520000D01*
X92300000Y-120520000D01*
X92300000Y-121544722D01*
X92223694Y-121500667D01*
X92109244Y-121470000D01*
X91990756Y-121470000D01*
X91876306Y-121500667D01*
X91800000Y-121544722D01*
X91800000Y-120520000D01*
X91102155Y-120520000D01*
X91042627Y-120526401D01*
X91042620Y-120526403D01*
X90907913Y-120576645D01*
X90907906Y-120576649D01*
X90792812Y-120662809D01*
X90792809Y-120662812D01*
X90706649Y-120777906D01*
X90706645Y-120777913D01*
X90656403Y-120912620D01*
X90656401Y-120912627D01*
X90650000Y-120972155D01*
X90650000Y-121670000D01*
X91674722Y-121670000D01*
X91630667Y-121746306D01*
X91600000Y-121860756D01*
X91600000Y-121979244D01*
X91630667Y-122093694D01*
X91674722Y-122170000D01*
X90650000Y-122170000D01*
X90650000Y-122867844D01*
X90656401Y-122927372D01*
X90656403Y-122927379D01*
X90706645Y-123062086D01*
X90706649Y-123062093D01*
X90792809Y-123177187D01*
X90792812Y-123177190D01*
X90907906Y-123263350D01*
X90907913Y-123263354D01*
X90944808Y-123277115D01*
X91000742Y-123318986D01*
X91025159Y-123384450D01*
X91010308Y-123452723D01*
X91003050Y-123464420D01*
X90944869Y-123547512D01*
X90944866Y-123547516D01*
X90848734Y-123753673D01*
X90848730Y-123753682D01*
X90796127Y-123949999D01*
X90796128Y-123950000D01*
X91759314Y-123950000D01*
X91754920Y-123954394D01*
X91702259Y-124045606D01*
X91675000Y-124147339D01*
X91675000Y-124252661D01*
X91702259Y-124354394D01*
X91754920Y-124445606D01*
X91759314Y-124450000D01*
X90796128Y-124450000D01*
X90848730Y-124646317D01*
X90848734Y-124646326D01*
X90944865Y-124852482D01*
X91075342Y-125038820D01*
X91236179Y-125199657D01*
X91422517Y-125330134D01*
X91628673Y-125426265D01*
X91628682Y-125426269D01*
X91824999Y-125478872D01*
X91825000Y-125478871D01*
X91825000Y-124515686D01*
X91829394Y-124520080D01*
X91920606Y-124572741D01*
X92022339Y-124600000D01*
X92127661Y-124600000D01*
X92229394Y-124572741D01*
X92320606Y-124520080D01*
X92325000Y-124515686D01*
X92325000Y-125478872D01*
X92521317Y-125426269D01*
X92521326Y-125426265D01*
X92727482Y-125330134D01*
X92913820Y-125199657D01*
X93074657Y-125038820D01*
X93205132Y-124852484D01*
X93232341Y-124794134D01*
X93278513Y-124741695D01*
X93345707Y-124722542D01*
X93412588Y-124742757D01*
X93457106Y-124794133D01*
X93484431Y-124852732D01*
X93484432Y-124852734D01*
X93614954Y-125039141D01*
X93775858Y-125200045D01*
X93775861Y-125200047D01*
X93962266Y-125330568D01*
X94168504Y-125426739D01*
X94388308Y-125485635D01*
X94550230Y-125499801D01*
X94614998Y-125505468D01*
X94615000Y-125505468D01*
X94615002Y-125505468D01*
X94671673Y-125500509D01*
X94841692Y-125485635D01*
X95061496Y-125426739D01*
X95267734Y-125330568D01*
X95379376Y-125252395D01*
X95445582Y-125230069D01*
X95513350Y-125247079D01*
X95561162Y-125298028D01*
X95574499Y-125353971D01*
X95574499Y-127313837D01*
X95554814Y-127380876D01*
X95538180Y-127401518D01*
X92456516Y-130483181D01*
X92395193Y-130516666D01*
X92368835Y-130519500D01*
X91227129Y-130519500D01*
X91227123Y-130519501D01*
X91167516Y-130525908D01*
X91032671Y-130576202D01*
X91032664Y-130576206D01*
X90917455Y-130662452D01*
X90917452Y-130662455D01*
X90831206Y-130777664D01*
X90831202Y-130777671D01*
X90780908Y-130912517D01*
X90774501Y-130972116D01*
X90774500Y-130972135D01*
X90774500Y-132667870D01*
X90774501Y-132667876D01*
X90780908Y-132727483D01*
X90819953Y-132832167D01*
X90824937Y-132901859D01*
X90791452Y-132963182D01*
X90730128Y-132996666D01*
X90703771Y-132999500D01*
X59624500Y-132999500D01*
X59557461Y-132979815D01*
X59511706Y-132927011D01*
X59500500Y-132875500D01*
X59500500Y-123419998D01*
X72544390Y-123419998D01*
X72544390Y-123420001D01*
X72564804Y-123705433D01*
X72625628Y-123985037D01*
X72625630Y-123985043D01*
X72625631Y-123985046D01*
X72705805Y-124200000D01*
X72725635Y-124253166D01*
X72862770Y-124504309D01*
X72862775Y-124504317D01*
X73034254Y-124733387D01*
X73034270Y-124733405D01*
X73236594Y-124935729D01*
X73236612Y-124935745D01*
X73465682Y-125107224D01*
X73465690Y-125107229D01*
X73716833Y-125244364D01*
X73716832Y-125244364D01*
X73716836Y-125244365D01*
X73716839Y-125244367D01*
X73984954Y-125344369D01*
X73984960Y-125344370D01*
X73984962Y-125344371D01*
X74264566Y-125405195D01*
X74264568Y-125405195D01*
X74264572Y-125405196D01*
X74518220Y-125423337D01*
X74549999Y-125425610D01*
X74550000Y-125425610D01*
X74550001Y-125425610D01*
X74578595Y-125423564D01*
X74835428Y-125405196D01*
X75115046Y-125344369D01*
X75383161Y-125244367D01*
X75634315Y-125107226D01*
X75863395Y-124935739D01*
X76065739Y-124733395D01*
X76237226Y-124504315D01*
X76374367Y-124253161D01*
X76474369Y-123985046D01*
X76535196Y-123705428D01*
X76555610Y-123420000D01*
X76552034Y-123369995D01*
X85045093Y-123369995D01*
X85045093Y-123370004D01*
X85064692Y-123631545D01*
X85064693Y-123631550D01*
X85123058Y-123887270D01*
X85218883Y-124131426D01*
X85218882Y-124131426D01*
X85350029Y-124358576D01*
X85397873Y-124418572D01*
X86317037Y-123499408D01*
X86334075Y-123562993D01*
X86399901Y-123677007D01*
X86492993Y-123770099D01*
X86607007Y-123835925D01*
X86670590Y-123852962D01*
X85750830Y-124772720D01*
X85922546Y-124889793D01*
X85922550Y-124889795D01*
X86158854Y-125003594D01*
X86158858Y-125003595D01*
X86409494Y-125080907D01*
X86409500Y-125080909D01*
X86668848Y-125119999D01*
X86668857Y-125120000D01*
X86931143Y-125120000D01*
X86931151Y-125119999D01*
X87190499Y-125080909D01*
X87190505Y-125080907D01*
X87441143Y-125003595D01*
X87677445Y-124889798D01*
X87677447Y-124889797D01*
X87849168Y-124772720D01*
X86929409Y-123852962D01*
X86992993Y-123835925D01*
X87107007Y-123770099D01*
X87200099Y-123677007D01*
X87265925Y-123562993D01*
X87282962Y-123499409D01*
X88202125Y-124418572D01*
X88249971Y-124358573D01*
X88381116Y-124131426D01*
X88476941Y-123887270D01*
X88535306Y-123631550D01*
X88535307Y-123631545D01*
X88554907Y-123370004D01*
X88554907Y-123369995D01*
X88535307Y-123108454D01*
X88535306Y-123108449D01*
X88476941Y-122852729D01*
X88381116Y-122608573D01*
X88381117Y-122608573D01*
X88249972Y-122381426D01*
X88202124Y-122321427D01*
X87282962Y-123240589D01*
X87265925Y-123177007D01*
X87200099Y-123062993D01*
X87107007Y-122969901D01*
X86992993Y-122904075D01*
X86929408Y-122887037D01*
X87849168Y-121967278D01*
X87677454Y-121850206D01*
X87677445Y-121850201D01*
X87441142Y-121736404D01*
X87441144Y-121736404D01*
X87190505Y-121659092D01*
X87190499Y-121659090D01*
X86931151Y-121620000D01*
X86668848Y-121620000D01*
X86409500Y-121659090D01*
X86409494Y-121659092D01*
X86158858Y-121736404D01*
X86158854Y-121736405D01*
X85922547Y-121850205D01*
X85922539Y-121850210D01*
X85750830Y-121967277D01*
X86670591Y-122887037D01*
X86607007Y-122904075D01*
X86492993Y-122969901D01*
X86399901Y-123062993D01*
X86334075Y-123177007D01*
X86317037Y-123240590D01*
X85397874Y-122321427D01*
X85350028Y-122381425D01*
X85218883Y-122608573D01*
X85123058Y-122852729D01*
X85064693Y-123108449D01*
X85064692Y-123108454D01*
X85045093Y-123369995D01*
X76552034Y-123369995D01*
X76535196Y-123134572D01*
X76533154Y-123125186D01*
X76474371Y-122854962D01*
X76474370Y-122854960D01*
X76474369Y-122854954D01*
X76374367Y-122586839D01*
X76255963Y-122370000D01*
X76237229Y-122335690D01*
X76237224Y-122335682D01*
X76065745Y-122106612D01*
X76065729Y-122106594D01*
X75863405Y-121904270D01*
X75863387Y-121904254D01*
X75634317Y-121732775D01*
X75634309Y-121732770D01*
X75383166Y-121595635D01*
X75383167Y-121595635D01*
X75275915Y-121555632D01*
X75115046Y-121495631D01*
X75115043Y-121495630D01*
X75115037Y-121495628D01*
X74835433Y-121434804D01*
X74550001Y-121414390D01*
X74549999Y-121414390D01*
X74264566Y-121434804D01*
X73984962Y-121495628D01*
X73716833Y-121595635D01*
X73465690Y-121732770D01*
X73465682Y-121732775D01*
X73236612Y-121904254D01*
X73236594Y-121904270D01*
X73034270Y-122106594D01*
X73034254Y-122106612D01*
X72862775Y-122335682D01*
X72862770Y-122335690D01*
X72725635Y-122586833D01*
X72625628Y-122854962D01*
X72564804Y-123134566D01*
X72544390Y-123419998D01*
X59500500Y-123419998D01*
X59500500Y-117599995D01*
X62594451Y-117599995D01*
X62594451Y-117600004D01*
X62614616Y-117869101D01*
X62641078Y-117985037D01*
X62674666Y-118132195D01*
X62773257Y-118383398D01*
X62908185Y-118617102D01*
X62998245Y-118730033D01*
X63076442Y-118828089D01*
X63243900Y-118983466D01*
X63274259Y-119011635D01*
X63497226Y-119163651D01*
X63740359Y-119280738D01*
X63998228Y-119360280D01*
X63998229Y-119360280D01*
X63998232Y-119360281D01*
X64265063Y-119400499D01*
X64265068Y-119400499D01*
X64265071Y-119400500D01*
X64265072Y-119400500D01*
X64534928Y-119400500D01*
X64534929Y-119400500D01*
X64534936Y-119400499D01*
X64801767Y-119360281D01*
X64801768Y-119360280D01*
X64801772Y-119360280D01*
X65059641Y-119280738D01*
X65302775Y-119163651D01*
X65525741Y-119011635D01*
X65723561Y-118828085D01*
X65891815Y-118617102D01*
X66026743Y-118383398D01*
X66125334Y-118132195D01*
X66185383Y-117869103D01*
X66197648Y-117705433D01*
X66205549Y-117600004D01*
X66205549Y-117599995D01*
X66192060Y-117419998D01*
X86744390Y-117419998D01*
X86744390Y-117420001D01*
X86764804Y-117705433D01*
X86825628Y-117985037D01*
X86825630Y-117985043D01*
X86825631Y-117985046D01*
X86880515Y-118132195D01*
X86925635Y-118253166D01*
X87062770Y-118504309D01*
X87062775Y-118504317D01*
X87234254Y-118733387D01*
X87234270Y-118733405D01*
X87436594Y-118935729D01*
X87436612Y-118935745D01*
X87665682Y-119107224D01*
X87665690Y-119107229D01*
X87916833Y-119244364D01*
X87916832Y-119244364D01*
X87916836Y-119244365D01*
X87916839Y-119244367D01*
X88184954Y-119344369D01*
X88184960Y-119344370D01*
X88184962Y-119344371D01*
X88464566Y-119405195D01*
X88464568Y-119405195D01*
X88464572Y-119405196D01*
X88718220Y-119423337D01*
X88749999Y-119425610D01*
X88750000Y-119425610D01*
X88750001Y-119425610D01*
X88778595Y-119423564D01*
X89035428Y-119405196D01*
X89057016Y-119400500D01*
X89315037Y-119344371D01*
X89315037Y-119344370D01*
X89315046Y-119344369D01*
X89583161Y-119244367D01*
X89834315Y-119107226D01*
X90063395Y-118935739D01*
X90265739Y-118733395D01*
X90437226Y-118504315D01*
X90574367Y-118253161D01*
X90674369Y-117985046D01*
X90735196Y-117705428D01*
X90755610Y-117420000D01*
X90735196Y-117134572D01*
X90674369Y-116854954D01*
X90574367Y-116586839D01*
X90457006Y-116371910D01*
X90437229Y-116335690D01*
X90437224Y-116335682D01*
X90265745Y-116106612D01*
X90265729Y-116106594D01*
X90063405Y-115904270D01*
X90063387Y-115904254D01*
X89834317Y-115732775D01*
X89834309Y-115732770D01*
X89583166Y-115595635D01*
X89583167Y-115595635D01*
X89475915Y-115555632D01*
X89315046Y-115495631D01*
X89315043Y-115495630D01*
X89315037Y-115495628D01*
X89035433Y-115434804D01*
X88750001Y-115414390D01*
X88749999Y-115414390D01*
X88464566Y-115434804D01*
X88184962Y-115495628D01*
X87916833Y-115595635D01*
X87665690Y-115732770D01*
X87665682Y-115732775D01*
X87436612Y-115904254D01*
X87436594Y-115904270D01*
X87234270Y-116106594D01*
X87234254Y-116106612D01*
X87062775Y-116335682D01*
X87062770Y-116335690D01*
X86925635Y-116586833D01*
X86825628Y-116854962D01*
X86764804Y-117134566D01*
X86744390Y-117419998D01*
X66192060Y-117419998D01*
X66185383Y-117330898D01*
X66140573Y-117134572D01*
X66125334Y-117067805D01*
X66026743Y-116816602D01*
X65891815Y-116582898D01*
X65723561Y-116371915D01*
X65723560Y-116371914D01*
X65723557Y-116371910D01*
X65525741Y-116188365D01*
X65302775Y-116036349D01*
X65302769Y-116036346D01*
X65302768Y-116036345D01*
X65302767Y-116036344D01*
X65059643Y-115919263D01*
X65059645Y-115919263D01*
X64801773Y-115839720D01*
X64801767Y-115839718D01*
X64534936Y-115799500D01*
X64534929Y-115799500D01*
X64265071Y-115799500D01*
X64265063Y-115799500D01*
X63998232Y-115839718D01*
X63998226Y-115839720D01*
X63740358Y-115919262D01*
X63497230Y-116036346D01*
X63274258Y-116188365D01*
X63076442Y-116371910D01*
X62908185Y-116582898D01*
X62773258Y-116816599D01*
X62773256Y-116816603D01*
X62674666Y-117067804D01*
X62674664Y-117067811D01*
X62614616Y-117330898D01*
X62594451Y-117599995D01*
X59500500Y-117599995D01*
X59500500Y-111172135D01*
X62599500Y-111172135D01*
X62599500Y-113867870D01*
X62599501Y-113867876D01*
X62605908Y-113927483D01*
X62656202Y-114062328D01*
X62656206Y-114062335D01*
X62742452Y-114177544D01*
X62742455Y-114177547D01*
X62857664Y-114263793D01*
X62857671Y-114263797D01*
X62992517Y-114314091D01*
X62992516Y-114314091D01*
X62999444Y-114314835D01*
X63052127Y-114320500D01*
X65747872Y-114320499D01*
X65807483Y-114314091D01*
X65942331Y-114263796D01*
X66057546Y-114177546D01*
X66143796Y-114062331D01*
X66194091Y-113927483D01*
X66200500Y-113867873D01*
X66200499Y-111369998D01*
X72594390Y-111369998D01*
X72594390Y-111370001D01*
X72614804Y-111655433D01*
X72675628Y-111935037D01*
X72675630Y-111935043D01*
X72675631Y-111935046D01*
X72746765Y-112125762D01*
X72775635Y-112203166D01*
X72912770Y-112454309D01*
X72912775Y-112454317D01*
X73084254Y-112683387D01*
X73084270Y-112683405D01*
X73286594Y-112885729D01*
X73286612Y-112885745D01*
X73515682Y-113057224D01*
X73515690Y-113057229D01*
X73766833Y-113194364D01*
X73766832Y-113194364D01*
X73766836Y-113194365D01*
X73766839Y-113194367D01*
X74034954Y-113294369D01*
X74034960Y-113294370D01*
X74034962Y-113294371D01*
X74314566Y-113355195D01*
X74314568Y-113355195D01*
X74314572Y-113355196D01*
X74568220Y-113373337D01*
X74599999Y-113375610D01*
X74600000Y-113375610D01*
X74600001Y-113375610D01*
X74628595Y-113373564D01*
X74885428Y-113355196D01*
X75158165Y-113295866D01*
X75165037Y-113294371D01*
X75165037Y-113294370D01*
X75165046Y-113294369D01*
X75433161Y-113194367D01*
X75684315Y-113057226D01*
X75913395Y-112885739D01*
X76115739Y-112683395D01*
X76287226Y-112454315D01*
X76424367Y-112203161D01*
X76524369Y-111935046D01*
X76534733Y-111887402D01*
X76585195Y-111655433D01*
X76585195Y-111655432D01*
X76585196Y-111655428D01*
X76605610Y-111370000D01*
X76605610Y-111369995D01*
X85044592Y-111369995D01*
X85044592Y-111370004D01*
X85064196Y-111631620D01*
X85064197Y-111631625D01*
X85122576Y-111887402D01*
X85122578Y-111887411D01*
X85122580Y-111887416D01*
X85218432Y-112131643D01*
X85349614Y-112358857D01*
X85425741Y-112454317D01*
X85513198Y-112563985D01*
X85685767Y-112724104D01*
X85705521Y-112742433D01*
X85922296Y-112890228D01*
X85922301Y-112890230D01*
X85922302Y-112890231D01*
X85922303Y-112890232D01*
X85993180Y-112924364D01*
X86158673Y-113004061D01*
X86158674Y-113004061D01*
X86158677Y-113004063D01*
X86409385Y-113081396D01*
X86668818Y-113120500D01*
X86931182Y-113120500D01*
X87190615Y-113081396D01*
X87441323Y-113004063D01*
X87628111Y-112914110D01*
X87677696Y-112890232D01*
X87677696Y-112890231D01*
X87677704Y-112890228D01*
X87894479Y-112742433D01*
X88086805Y-112563981D01*
X88250386Y-112358857D01*
X88381568Y-112131643D01*
X88477420Y-111887416D01*
X88535802Y-111631630D01*
X88555408Y-111370000D01*
X88553225Y-111340873D01*
X88535803Y-111108379D01*
X88535802Y-111108374D01*
X88535802Y-111108370D01*
X88477420Y-110852584D01*
X88381568Y-110608357D01*
X88250386Y-110381143D01*
X88086805Y-110176019D01*
X88086804Y-110176018D01*
X88086801Y-110176014D01*
X87894479Y-109997567D01*
X87883672Y-109990199D01*
X87677704Y-109849772D01*
X87677700Y-109849770D01*
X87677697Y-109849768D01*
X87677696Y-109849767D01*
X87441325Y-109735938D01*
X87441327Y-109735938D01*
X87190623Y-109658606D01*
X87190619Y-109658605D01*
X87190615Y-109658604D01*
X87065823Y-109639794D01*
X86931187Y-109619500D01*
X86931182Y-109619500D01*
X86668818Y-109619500D01*
X86668812Y-109619500D01*
X86507247Y-109643853D01*
X86409385Y-109658604D01*
X86409382Y-109658605D01*
X86409376Y-109658606D01*
X86158673Y-109735938D01*
X85922303Y-109849767D01*
X85922302Y-109849768D01*
X85705520Y-109997567D01*
X85513198Y-110176014D01*
X85349614Y-110381143D01*
X85218432Y-110608356D01*
X85122582Y-110852578D01*
X85122576Y-110852597D01*
X85064197Y-111108374D01*
X85064196Y-111108379D01*
X85044592Y-111369995D01*
X76605610Y-111369995D01*
X76585196Y-111084572D01*
X76582872Y-111073891D01*
X76524371Y-110804962D01*
X76524370Y-110804960D01*
X76524369Y-110804954D01*
X76424367Y-110536839D01*
X76388418Y-110471004D01*
X76287229Y-110285690D01*
X76287224Y-110285682D01*
X76115745Y-110056612D01*
X76115729Y-110056594D01*
X75913405Y-109854270D01*
X75913387Y-109854254D01*
X75684317Y-109682775D01*
X75684309Y-109682770D01*
X75433166Y-109545635D01*
X75433167Y-109545635D01*
X75325915Y-109505632D01*
X75165046Y-109445631D01*
X75165043Y-109445630D01*
X75165037Y-109445628D01*
X74885433Y-109384804D01*
X74600001Y-109364390D01*
X74599999Y-109364390D01*
X74314566Y-109384804D01*
X74034962Y-109445628D01*
X73766833Y-109545635D01*
X73515690Y-109682770D01*
X73515682Y-109682775D01*
X73286612Y-109854254D01*
X73286594Y-109854270D01*
X73084270Y-110056594D01*
X73084254Y-110056612D01*
X72912775Y-110285682D01*
X72912770Y-110285690D01*
X72775635Y-110536833D01*
X72675628Y-110804962D01*
X72614804Y-111084566D01*
X72594390Y-111369998D01*
X66200499Y-111369998D01*
X66200499Y-111172128D01*
X66194091Y-111112517D01*
X66192544Y-111108370D01*
X66143797Y-110977671D01*
X66143793Y-110977664D01*
X66057547Y-110862455D01*
X66057544Y-110862452D01*
X65942335Y-110776206D01*
X65942328Y-110776202D01*
X65807482Y-110725908D01*
X65807483Y-110725908D01*
X65747883Y-110719501D01*
X65747881Y-110719500D01*
X65747873Y-110719500D01*
X65747864Y-110719500D01*
X63052129Y-110719500D01*
X63052123Y-110719501D01*
X62992516Y-110725908D01*
X62857671Y-110776202D01*
X62857664Y-110776206D01*
X62742455Y-110862452D01*
X62742452Y-110862455D01*
X62656206Y-110977664D01*
X62656202Y-110977671D01*
X62605908Y-111112517D01*
X62601422Y-111154246D01*
X62599501Y-111172123D01*
X62599500Y-111172135D01*
X59500500Y-111172135D01*
X59500500Y-107099998D01*
X72394390Y-107099998D01*
X72394390Y-107100001D01*
X72414804Y-107385433D01*
X72475628Y-107665037D01*
X72475630Y-107665043D01*
X72475631Y-107665046D01*
X72555818Y-107880034D01*
X72575635Y-107933166D01*
X72712770Y-108184309D01*
X72712775Y-108184317D01*
X72884254Y-108413387D01*
X72884270Y-108413405D01*
X73086594Y-108615729D01*
X73086612Y-108615745D01*
X73315682Y-108787224D01*
X73315690Y-108787229D01*
X73566833Y-108924364D01*
X73566832Y-108924364D01*
X73566836Y-108924365D01*
X73566839Y-108924367D01*
X73834954Y-109024369D01*
X73834960Y-109024370D01*
X73834962Y-109024371D01*
X74114566Y-109085195D01*
X74114568Y-109085195D01*
X74114572Y-109085196D01*
X74368220Y-109103337D01*
X74399999Y-109105610D01*
X74400000Y-109105610D01*
X74400001Y-109105610D01*
X74428595Y-109103564D01*
X74685428Y-109085196D01*
X74965046Y-109024369D01*
X75233161Y-108924367D01*
X75484315Y-108787226D01*
X75713395Y-108615739D01*
X75915739Y-108413395D01*
X76087226Y-108184315D01*
X76224367Y-107933161D01*
X76324369Y-107665046D01*
X76385196Y-107385428D01*
X76405610Y-107100000D01*
X76402034Y-107049995D01*
X84895093Y-107049995D01*
X84895093Y-107050004D01*
X84914692Y-107311545D01*
X84914693Y-107311550D01*
X84973058Y-107567270D01*
X85068883Y-107811426D01*
X85068882Y-107811426D01*
X85200029Y-108038576D01*
X85247873Y-108098572D01*
X86167037Y-107179408D01*
X86184075Y-107242993D01*
X86249901Y-107357007D01*
X86342993Y-107450099D01*
X86457007Y-107515925D01*
X86520590Y-107532962D01*
X85600830Y-108452720D01*
X85772546Y-108569793D01*
X85772550Y-108569795D01*
X86008854Y-108683594D01*
X86008858Y-108683595D01*
X86259494Y-108760907D01*
X86259500Y-108760909D01*
X86518848Y-108799999D01*
X86518857Y-108800000D01*
X86781143Y-108800000D01*
X86781151Y-108799999D01*
X87040499Y-108760909D01*
X87040505Y-108760907D01*
X87291143Y-108683595D01*
X87527445Y-108569798D01*
X87527447Y-108569797D01*
X87699168Y-108452720D01*
X86779409Y-107532962D01*
X86842993Y-107515925D01*
X86957007Y-107450099D01*
X87050099Y-107357007D01*
X87115925Y-107242993D01*
X87132962Y-107179409D01*
X88052125Y-108098572D01*
X88099971Y-108038573D01*
X88231116Y-107811426D01*
X88326941Y-107567270D01*
X88385306Y-107311550D01*
X88385307Y-107311545D01*
X88404907Y-107050004D01*
X88404907Y-107049995D01*
X88385307Y-106788454D01*
X88385306Y-106788449D01*
X88326941Y-106532729D01*
X88231116Y-106288573D01*
X88231117Y-106288573D01*
X88099972Y-106061426D01*
X88052124Y-106001427D01*
X87132962Y-106920589D01*
X87115925Y-106857007D01*
X87050099Y-106742993D01*
X86957007Y-106649901D01*
X86842993Y-106584075D01*
X86779408Y-106567037D01*
X87699168Y-105647278D01*
X87527454Y-105530206D01*
X87527445Y-105530201D01*
X87291142Y-105416404D01*
X87291144Y-105416404D01*
X87040505Y-105339092D01*
X87040499Y-105339090D01*
X86781151Y-105300000D01*
X86518848Y-105300000D01*
X86259500Y-105339090D01*
X86259494Y-105339092D01*
X86008858Y-105416404D01*
X86008854Y-105416405D01*
X85772547Y-105530205D01*
X85772539Y-105530210D01*
X85600830Y-105647277D01*
X86520591Y-106567037D01*
X86457007Y-106584075D01*
X86342993Y-106649901D01*
X86249901Y-106742993D01*
X86184075Y-106857007D01*
X86167037Y-106920590D01*
X85247874Y-106001427D01*
X85200028Y-106061425D01*
X85068883Y-106288573D01*
X84973058Y-106532729D01*
X84914693Y-106788449D01*
X84914692Y-106788454D01*
X84895093Y-107049995D01*
X76402034Y-107049995D01*
X76385196Y-106814572D01*
X76379514Y-106788454D01*
X76324371Y-106534962D01*
X76324370Y-106534960D01*
X76324369Y-106534954D01*
X76224367Y-106266839D01*
X76221110Y-106260875D01*
X76087229Y-106015690D01*
X76087224Y-106015682D01*
X75915745Y-105786612D01*
X75915729Y-105786594D01*
X75713405Y-105584270D01*
X75713387Y-105584254D01*
X75484317Y-105412775D01*
X75484309Y-105412770D01*
X75233166Y-105275635D01*
X75233167Y-105275635D01*
X75125915Y-105235632D01*
X74965046Y-105175631D01*
X74965043Y-105175630D01*
X74965037Y-105175628D01*
X74685433Y-105114804D01*
X74400001Y-105094390D01*
X74399999Y-105094390D01*
X74114566Y-105114804D01*
X73834962Y-105175628D01*
X73566833Y-105275635D01*
X73315690Y-105412770D01*
X73315682Y-105412775D01*
X73086612Y-105584254D01*
X73086594Y-105584270D01*
X72884270Y-105786594D01*
X72884254Y-105786612D01*
X72712775Y-106015682D01*
X72712770Y-106015690D01*
X72575635Y-106266833D01*
X72475628Y-106534962D01*
X72414804Y-106814566D01*
X72394390Y-107099998D01*
X59500500Y-107099998D01*
X59500500Y-101284995D01*
X62439451Y-101284995D01*
X62439451Y-101285004D01*
X62459616Y-101554101D01*
X62519664Y-101817188D01*
X62519666Y-101817195D01*
X62580525Y-101972261D01*
X62618257Y-102068398D01*
X62753185Y-102302102D01*
X62807404Y-102370090D01*
X62921442Y-102513089D01*
X63091673Y-102671039D01*
X63119259Y-102696635D01*
X63342226Y-102848651D01*
X63585359Y-102965738D01*
X63843228Y-103045280D01*
X63843229Y-103045280D01*
X63843232Y-103045281D01*
X64110063Y-103085499D01*
X64110068Y-103085499D01*
X64110071Y-103085500D01*
X64110072Y-103085500D01*
X64379928Y-103085500D01*
X64379929Y-103085500D01*
X64381953Y-103085195D01*
X64646767Y-103045281D01*
X64646768Y-103045280D01*
X64646772Y-103045280D01*
X64904641Y-102965738D01*
X65147775Y-102848651D01*
X65370741Y-102696635D01*
X65568561Y-102513085D01*
X65736815Y-102302102D01*
X65871743Y-102068398D01*
X65970334Y-101817195D01*
X66030383Y-101554103D01*
X66043023Y-101385428D01*
X66050549Y-101285004D01*
X66050549Y-101284995D01*
X66030383Y-101015898D01*
X66027354Y-101002627D01*
X65970334Y-100752805D01*
X65871743Y-100501602D01*
X65736815Y-100267898D01*
X65568561Y-100056915D01*
X65568560Y-100056914D01*
X65568557Y-100056910D01*
X65370741Y-99873365D01*
X65147775Y-99721349D01*
X65147769Y-99721346D01*
X65147768Y-99721345D01*
X65147767Y-99721344D01*
X64904643Y-99604263D01*
X64904645Y-99604263D01*
X64646773Y-99524720D01*
X64646767Y-99524718D01*
X64379936Y-99484500D01*
X64379929Y-99484500D01*
X64110071Y-99484500D01*
X64110063Y-99484500D01*
X63843232Y-99524718D01*
X63843226Y-99524720D01*
X63585358Y-99604262D01*
X63342230Y-99721346D01*
X63119258Y-99873365D01*
X62921442Y-100056910D01*
X62753185Y-100267898D01*
X62618258Y-100501599D01*
X62618256Y-100501603D01*
X62519666Y-100752804D01*
X62519664Y-100752811D01*
X62459616Y-101015898D01*
X62439451Y-101284995D01*
X59500500Y-101284995D01*
X59500500Y-94857135D01*
X62444500Y-94857135D01*
X62444500Y-97552870D01*
X62444501Y-97552876D01*
X62450908Y-97612483D01*
X62501202Y-97747328D01*
X62501206Y-97747335D01*
X62587452Y-97862544D01*
X62587455Y-97862547D01*
X62702664Y-97948793D01*
X62702671Y-97948797D01*
X62837517Y-97999091D01*
X62837516Y-97999091D01*
X62844444Y-97999835D01*
X62897127Y-98005500D01*
X65592872Y-98005499D01*
X65652483Y-97999091D01*
X65787331Y-97948796D01*
X65902546Y-97862546D01*
X65988796Y-97747331D01*
X66039091Y-97612483D01*
X66045500Y-97552873D01*
X66045499Y-95049998D01*
X72444390Y-95049998D01*
X72444390Y-95050001D01*
X72464804Y-95335433D01*
X72525628Y-95615037D01*
X72525630Y-95615043D01*
X72525631Y-95615046D01*
X72598958Y-95811643D01*
X72625635Y-95883166D01*
X72762770Y-96134309D01*
X72762775Y-96134317D01*
X72934254Y-96363387D01*
X72934270Y-96363405D01*
X73136594Y-96565729D01*
X73136612Y-96565745D01*
X73365682Y-96737224D01*
X73365690Y-96737229D01*
X73616833Y-96874364D01*
X73616832Y-96874364D01*
X73616836Y-96874365D01*
X73616839Y-96874367D01*
X73884954Y-96974369D01*
X73884960Y-96974370D01*
X73884962Y-96974371D01*
X74164566Y-97035195D01*
X74164568Y-97035195D01*
X74164572Y-97035196D01*
X74418220Y-97053337D01*
X74449999Y-97055610D01*
X74450000Y-97055610D01*
X74450001Y-97055610D01*
X74478595Y-97053564D01*
X74735428Y-97035196D01*
X75015046Y-96974369D01*
X75283161Y-96874367D01*
X75534315Y-96737226D01*
X75763395Y-96565739D01*
X75965739Y-96363395D01*
X76137226Y-96134315D01*
X76274367Y-95883161D01*
X76374369Y-95615046D01*
X76435196Y-95335428D01*
X76455610Y-95050000D01*
X76435196Y-94764572D01*
X76429088Y-94736496D01*
X76374371Y-94484962D01*
X76374370Y-94484960D01*
X76374369Y-94484954D01*
X76274367Y-94216839D01*
X76190532Y-94063308D01*
X76137229Y-93965690D01*
X76137224Y-93965682D01*
X75965745Y-93736612D01*
X75965729Y-93736594D01*
X75763405Y-93534270D01*
X75763387Y-93534254D01*
X75534317Y-93362775D01*
X75534309Y-93362770D01*
X75283166Y-93225635D01*
X75283167Y-93225635D01*
X75175915Y-93185632D01*
X75015046Y-93125631D01*
X75015043Y-93125630D01*
X75015037Y-93125628D01*
X74735433Y-93064804D01*
X74450001Y-93044390D01*
X74449999Y-93044390D01*
X74164566Y-93064804D01*
X73884962Y-93125628D01*
X73616833Y-93225635D01*
X73365690Y-93362770D01*
X73365682Y-93362775D01*
X73136612Y-93534254D01*
X73136594Y-93534270D01*
X72934270Y-93736594D01*
X72934254Y-93736612D01*
X72762775Y-93965682D01*
X72762770Y-93965690D01*
X72625635Y-94216833D01*
X72525628Y-94484962D01*
X72464804Y-94764566D01*
X72444390Y-95049998D01*
X66045499Y-95049998D01*
X66045499Y-94857128D01*
X66039091Y-94797517D01*
X66035679Y-94788370D01*
X65988797Y-94662671D01*
X65988793Y-94662664D01*
X65902547Y-94547455D01*
X65902544Y-94547452D01*
X65787335Y-94461206D01*
X65787328Y-94461202D01*
X65652482Y-94410908D01*
X65652483Y-94410908D01*
X65592883Y-94404501D01*
X65592881Y-94404500D01*
X65592873Y-94404500D01*
X65592864Y-94404500D01*
X62897129Y-94404500D01*
X62897123Y-94404501D01*
X62837516Y-94410908D01*
X62702671Y-94461202D01*
X62702664Y-94461206D01*
X62587455Y-94547452D01*
X62587452Y-94547455D01*
X62501206Y-94662664D01*
X62501202Y-94662671D01*
X62450908Y-94797517D01*
X62444501Y-94857116D01*
X62444501Y-94857123D01*
X62444500Y-94857135D01*
X59500500Y-94857135D01*
X59500500Y-90027350D01*
X59520185Y-89960311D01*
X59572989Y-89914556D01*
X59642147Y-89904612D01*
X59693391Y-89924248D01*
X59820814Y-90009390D01*
X59820827Y-90009397D01*
X59941390Y-90059335D01*
X59966503Y-90069737D01*
X60075978Y-90091513D01*
X60121153Y-90100499D01*
X60121156Y-90100500D01*
X60121158Y-90100500D01*
X60278844Y-90100500D01*
X60278845Y-90100499D01*
X60433497Y-90069737D01*
X60549812Y-90021558D01*
X60579172Y-90009397D01*
X60579172Y-90009396D01*
X60579179Y-90009394D01*
X60710289Y-89921789D01*
X60821789Y-89810289D01*
X60909394Y-89679179D01*
X60909395Y-89679176D01*
X60909397Y-89679173D01*
X60937862Y-89610451D01*
X60981702Y-89556047D01*
X61047996Y-89533982D01*
X61115696Y-89551261D01*
X61163307Y-89602398D01*
X61172997Y-89628956D01*
X61213126Y-89796110D01*
X61309533Y-90028859D01*
X61441160Y-90243653D01*
X61441161Y-90243656D01*
X61478025Y-90286818D01*
X61604776Y-90435224D01*
X61741516Y-90552011D01*
X61796343Y-90598838D01*
X61796346Y-90598839D01*
X62011140Y-90730466D01*
X62243889Y-90826873D01*
X62488852Y-90885683D01*
X62740000Y-90905449D01*
X62991148Y-90885683D01*
X63236111Y-90826873D01*
X63468859Y-90730466D01*
X63683659Y-90598836D01*
X63875224Y-90435224D01*
X64038836Y-90243659D01*
X64170466Y-90028859D01*
X64266873Y-89796111D01*
X64325683Y-89551148D01*
X64345449Y-89300000D01*
X64325683Y-89048852D01*
X64268475Y-88810561D01*
X64271966Y-88740778D01*
X64301369Y-88693931D01*
X64317088Y-88678213D01*
X64333484Y-88661817D01*
X64394808Y-88628333D01*
X64421164Y-88625500D01*
X67045959Y-88625500D01*
X67112998Y-88645185D01*
X67158753Y-88697989D01*
X67168697Y-88767147D01*
X67165734Y-88781593D01*
X67114366Y-88973302D01*
X67114364Y-88973313D01*
X67094532Y-89199998D01*
X67094532Y-89200001D01*
X67114364Y-89426686D01*
X67114366Y-89426697D01*
X67173258Y-89646488D01*
X67173261Y-89646497D01*
X67269431Y-89852732D01*
X67269432Y-89852734D01*
X67399954Y-90039141D01*
X67560858Y-90200045D01*
X67592228Y-90222010D01*
X67747266Y-90330568D01*
X67953504Y-90426739D01*
X67953509Y-90426740D01*
X67953511Y-90426741D01*
X67992385Y-90437157D01*
X68173308Y-90485635D01*
X68335230Y-90499801D01*
X68399998Y-90505468D01*
X68400000Y-90505468D01*
X68400002Y-90505468D01*
X68456784Y-90500500D01*
X68626692Y-90485635D01*
X68846496Y-90426739D01*
X69052734Y-90330568D01*
X69239139Y-90200047D01*
X69400047Y-90039139D01*
X69443668Y-89976839D01*
X69477603Y-89928377D01*
X69532180Y-89884752D01*
X69579178Y-89875500D01*
X71431078Y-89875500D01*
X71498117Y-89895185D01*
X71543872Y-89947989D01*
X71553816Y-90017147D01*
X71524791Y-90080703D01*
X71490096Y-90108555D01*
X71461648Y-90123949D01*
X71461644Y-90123952D01*
X71278562Y-90266451D01*
X71278558Y-90266454D01*
X71121414Y-90437157D01*
X70994516Y-90631390D01*
X70901317Y-90843864D01*
X70849117Y-91050000D01*
X71854722Y-91050000D01*
X71810667Y-91126306D01*
X71780000Y-91240756D01*
X71780000Y-91359244D01*
X71810667Y-91473694D01*
X71854722Y-91550000D01*
X70849117Y-91550000D01*
X70901317Y-91756135D01*
X70994516Y-91968609D01*
X71121414Y-92162842D01*
X71278558Y-92333545D01*
X71278562Y-92333548D01*
X71461644Y-92476047D01*
X71461648Y-92476050D01*
X71665697Y-92586476D01*
X71665706Y-92586479D01*
X71885139Y-92661811D01*
X71979999Y-92677640D01*
X71980000Y-92677639D01*
X71980000Y-91675277D01*
X72056306Y-91719333D01*
X72170756Y-91750000D01*
X72289244Y-91750000D01*
X72403694Y-91719333D01*
X72480000Y-91675277D01*
X72480000Y-92677640D01*
X72574860Y-92661811D01*
X72794293Y-92586479D01*
X72794302Y-92586476D01*
X72998351Y-92476050D01*
X72998355Y-92476047D01*
X73181437Y-92333548D01*
X73181441Y-92333545D01*
X73338585Y-92162842D01*
X73465483Y-91968609D01*
X73558682Y-91756135D01*
X73610883Y-91550000D01*
X72605278Y-91550000D01*
X72649333Y-91473694D01*
X72680000Y-91359244D01*
X72680000Y-91240756D01*
X72649333Y-91126306D01*
X72605278Y-91050000D01*
X73610883Y-91050000D01*
X73558682Y-90843864D01*
X73465483Y-90631390D01*
X73338585Y-90437157D01*
X73181441Y-90266454D01*
X73181437Y-90266451D01*
X72998355Y-90123952D01*
X72998351Y-90123949D01*
X72969904Y-90108555D01*
X72920314Y-90059335D01*
X72905206Y-89991119D01*
X72929376Y-89925563D01*
X72985152Y-89883482D01*
X73028922Y-89875500D01*
X78469714Y-89875500D01*
X78536753Y-89895185D01*
X78582508Y-89947989D01*
X78592452Y-90017147D01*
X78568980Y-90073810D01*
X78549001Y-90100500D01*
X78506204Y-90157668D01*
X78506202Y-90157671D01*
X78455908Y-90292517D01*
X78449501Y-90352116D01*
X78449501Y-90352123D01*
X78449500Y-90352135D01*
X78449500Y-92247870D01*
X78449501Y-92247876D01*
X78455908Y-92307483D01*
X78506202Y-92442328D01*
X78506206Y-92442335D01*
X78592452Y-92557544D01*
X78592455Y-92557547D01*
X78707664Y-92643793D01*
X78707671Y-92643797D01*
X78842517Y-92694091D01*
X78842516Y-92694091D01*
X78849444Y-92694835D01*
X78902127Y-92700500D01*
X80797872Y-92700499D01*
X80857483Y-92694091D01*
X80992331Y-92643796D01*
X81107546Y-92557546D01*
X81193796Y-92442331D01*
X81244091Y-92307483D01*
X81250500Y-92247873D01*
X81250500Y-92099500D01*
X81270185Y-92032461D01*
X81322989Y-91986706D01*
X81374500Y-91975500D01*
X93134324Y-91975500D01*
X93134325Y-91975499D01*
X93264828Y-91949541D01*
X93387761Y-91898620D01*
X93498398Y-91824695D01*
X95036274Y-90286817D01*
X95097597Y-90253333D01*
X95123955Y-90250499D01*
X95712871Y-90250499D01*
X95712872Y-90250499D01*
X95772483Y-90244091D01*
X95907331Y-90193796D01*
X96022546Y-90107546D01*
X96108796Y-89992331D01*
X96159091Y-89857483D01*
X96165500Y-89797873D01*
X96165499Y-88981161D01*
X96185183Y-88914123D01*
X96201813Y-88893486D01*
X97624695Y-87470606D01*
X97665497Y-87409541D01*
X97698620Y-87359969D01*
X97723586Y-87299695D01*
X97749541Y-87237036D01*
X97775500Y-87106531D01*
X97775500Y-86973469D01*
X97775500Y-86564460D01*
X97795185Y-86497421D01*
X97840483Y-86455405D01*
X97885501Y-86431043D01*
X97923509Y-86410474D01*
X98119744Y-86257738D01*
X98288164Y-86074785D01*
X98424173Y-85866607D01*
X98524063Y-85638881D01*
X98585108Y-85397821D01*
X98587589Y-85367883D01*
X98605643Y-85150005D01*
X98605643Y-85149994D01*
X98585109Y-84902187D01*
X98585107Y-84902175D01*
X98524063Y-84661118D01*
X98424173Y-84433393D01*
X98288166Y-84225217D01*
X98210784Y-84141158D01*
X98119744Y-84042262D01*
X97923509Y-83889526D01*
X97923507Y-83889525D01*
X97923506Y-83889524D01*
X97704811Y-83771172D01*
X97704802Y-83771169D01*
X97469616Y-83690429D01*
X97224335Y-83649500D01*
X96975665Y-83649500D01*
X96730383Y-83690429D01*
X96495197Y-83771169D01*
X96495188Y-83771172D01*
X96276493Y-83889524D01*
X96080257Y-84042261D01*
X95911833Y-84225217D01*
X95775826Y-84433393D01*
X95675936Y-84661118D01*
X95614892Y-84902175D01*
X95614890Y-84902187D01*
X95594357Y-85149994D01*
X95594357Y-85150005D01*
X95614890Y-85397812D01*
X95614892Y-85397824D01*
X95675936Y-85638881D01*
X95775826Y-85866606D01*
X95911833Y-86074782D01*
X95911836Y-86074785D01*
X96080256Y-86257738D01*
X96088159Y-86263889D01*
X96276488Y-86410472D01*
X96276492Y-86410475D01*
X96359517Y-86455405D01*
X96409108Y-86504624D01*
X96424500Y-86564460D01*
X96424500Y-86708836D01*
X96404815Y-86775875D01*
X96388181Y-86796517D01*
X95471516Y-87713181D01*
X95410193Y-87746666D01*
X95383835Y-87749500D01*
X94669500Y-87749500D01*
X94602461Y-87729815D01*
X94556706Y-87677011D01*
X94545500Y-87625500D01*
X94545500Y-86353466D01*
X94519541Y-86222969D01*
X94519540Y-86222968D01*
X94519540Y-86222964D01*
X94500246Y-86176383D01*
X94468623Y-86100038D01*
X94468622Y-86100037D01*
X94468620Y-86100031D01*
X94468265Y-86099500D01*
X94394698Y-85989398D01*
X94394697Y-85989397D01*
X94394695Y-85989394D01*
X94300606Y-85895305D01*
X94077949Y-85672648D01*
X94044464Y-85611325D01*
X94045425Y-85554526D01*
X94085105Y-85397833D01*
X94085107Y-85397824D01*
X94085108Y-85397821D01*
X94087589Y-85367883D01*
X94105643Y-85150005D01*
X94105643Y-85149994D01*
X94085109Y-84902187D01*
X94085107Y-84902175D01*
X94024063Y-84661118D01*
X93924173Y-84433393D01*
X93788166Y-84225217D01*
X93710784Y-84141158D01*
X93619744Y-84042262D01*
X93423509Y-83889526D01*
X93423508Y-83889525D01*
X93423505Y-83889523D01*
X93423503Y-83889522D01*
X93340481Y-83844592D01*
X93290891Y-83795372D01*
X93275500Y-83735538D01*
X93275500Y-80064460D01*
X93295185Y-79997421D01*
X93340483Y-79955405D01*
X93356133Y-79946936D01*
X93423509Y-79910474D01*
X93619744Y-79757738D01*
X93788164Y-79574785D01*
X93924173Y-79366607D01*
X94024063Y-79138881D01*
X94085108Y-78897821D01*
X94089033Y-78850459D01*
X94105643Y-78650005D01*
X94105643Y-78649994D01*
X94085109Y-78402187D01*
X94085107Y-78402175D01*
X94024063Y-78161118D01*
X93924173Y-77933393D01*
X93788166Y-77725217D01*
X93696910Y-77626087D01*
X93619744Y-77542262D01*
X93423509Y-77389526D01*
X93423507Y-77389525D01*
X93423506Y-77389524D01*
X93204811Y-77271172D01*
X93204802Y-77271169D01*
X92969616Y-77190429D01*
X92724335Y-77149500D01*
X92475665Y-77149500D01*
X92230383Y-77190429D01*
X91995197Y-77271169D01*
X91995183Y-77271175D01*
X91797185Y-77378326D01*
X91769779Y-77384179D01*
X91763957Y-77396593D01*
X91747239Y-77412293D01*
X91580258Y-77542260D01*
X91411833Y-77725217D01*
X91275826Y-77933393D01*
X91175936Y-78161118D01*
X91114892Y-78402175D01*
X91114890Y-78402187D01*
X91094357Y-78649994D01*
X91094357Y-78650005D01*
X91114890Y-78897812D01*
X91114892Y-78897824D01*
X91175936Y-79138881D01*
X91275826Y-79366606D01*
X91411833Y-79574782D01*
X91411836Y-79574785D01*
X91580256Y-79757738D01*
X91681403Y-79836464D01*
X91776488Y-79910472D01*
X91776492Y-79910475D01*
X91837592Y-79943540D01*
X91843865Y-79946935D01*
X91859517Y-79955405D01*
X91909108Y-80004624D01*
X91924500Y-80064460D01*
X91924500Y-81535952D01*
X91904815Y-81602991D01*
X91852011Y-81648746D01*
X91782853Y-81658690D01*
X91719297Y-81629665D01*
X91712819Y-81623633D01*
X91153912Y-81064726D01*
X91153908Y-81064723D01*
X91047366Y-80993535D01*
X91010660Y-80978331D01*
X90928983Y-80944499D01*
X90928977Y-80944497D01*
X90803310Y-80919500D01*
X90803308Y-80919500D01*
X90464500Y-80919500D01*
X90397461Y-80899815D01*
X90351706Y-80847011D01*
X90340500Y-80795500D01*
X90340499Y-79802129D01*
X90340498Y-79802123D01*
X90340497Y-79802116D01*
X90334091Y-79742517D01*
X90321340Y-79708332D01*
X90316357Y-79638642D01*
X90321340Y-79621669D01*
X90334091Y-79587483D01*
X90340500Y-79527873D01*
X90340499Y-78532128D01*
X90334091Y-78472517D01*
X90321340Y-78438332D01*
X90316357Y-78368642D01*
X90321340Y-78351669D01*
X90334091Y-78317483D01*
X90340500Y-78257873D01*
X90340499Y-77262128D01*
X90334091Y-77202517D01*
X90333217Y-77200173D01*
X90333077Y-77198226D01*
X90332308Y-77194969D01*
X90332835Y-77194844D01*
X90328231Y-77130482D01*
X90361715Y-77069158D01*
X90423038Y-77035672D01*
X90492730Y-77040656D01*
X90537079Y-77069157D01*
X90647738Y-77179816D01*
X90738080Y-77236582D01*
X90778736Y-77262128D01*
X90800478Y-77275789D01*
X90858421Y-77296064D01*
X90970745Y-77335368D01*
X90970750Y-77335369D01*
X91149996Y-77355565D01*
X91150000Y-77355565D01*
X91150004Y-77355565D01*
X91329249Y-77335369D01*
X91329252Y-77335368D01*
X91329255Y-77335368D01*
X91499522Y-77275789D01*
X91605105Y-77209446D01*
X91640729Y-77199378D01*
X91650487Y-77181589D01*
X91652256Y-77179819D01*
X91652262Y-77179816D01*
X91779816Y-77052262D01*
X91875789Y-76899522D01*
X91935368Y-76729255D01*
X91955565Y-76550000D01*
X91936058Y-76376873D01*
X91935369Y-76370750D01*
X91935368Y-76370745D01*
X91875788Y-76200476D01*
X91779815Y-76047737D01*
X91652262Y-75920184D01*
X91507134Y-75828994D01*
X91460843Y-75776659D01*
X91450195Y-75707606D01*
X91478570Y-75643757D01*
X91536960Y-75605385D01*
X91573106Y-75600000D01*
X92170000Y-75600000D01*
X92170000Y-74683012D01*
X92227007Y-74715925D01*
X92354174Y-74750000D01*
X92485826Y-74750000D01*
X92612993Y-74715925D01*
X92670000Y-74683012D01*
X92670000Y-75600000D01*
X93066781Y-75600000D01*
X93133820Y-75619685D01*
X93169884Y-75655111D01*
X93210303Y-75715604D01*
X93210307Y-75715609D01*
X95622050Y-78127351D01*
X95655535Y-78188674D01*
X95654575Y-78245472D01*
X95614891Y-78402182D01*
X95594357Y-78649994D01*
X95594357Y-78650005D01*
X95614890Y-78897812D01*
X95614892Y-78897824D01*
X95675936Y-79138881D01*
X95775826Y-79366606D01*
X95911833Y-79574782D01*
X95911836Y-79574785D01*
X96080256Y-79757738D01*
X96276491Y-79910474D01*
X96276493Y-79910475D01*
X96483123Y-80022298D01*
X96495190Y-80028828D01*
X96730386Y-80109571D01*
X96975665Y-80150500D01*
X97224335Y-80150500D01*
X97469614Y-80109571D01*
X97704810Y-80028828D01*
X97923509Y-79910474D01*
X98119744Y-79757738D01*
X98288164Y-79574785D01*
X98424173Y-79366607D01*
X98524063Y-79138881D01*
X98585108Y-78897821D01*
X98589033Y-78850459D01*
X98605643Y-78650005D01*
X98605643Y-78649994D01*
X98585109Y-78402187D01*
X98585107Y-78402175D01*
X98524063Y-78161118D01*
X98424173Y-77933393D01*
X98288166Y-77725217D01*
X98196910Y-77626087D01*
X98119744Y-77542262D01*
X97923509Y-77389526D01*
X97923507Y-77389525D01*
X97923506Y-77389524D01*
X97704811Y-77271172D01*
X97704802Y-77271169D01*
X97469616Y-77190429D01*
X97224335Y-77149500D01*
X96975665Y-77149500D01*
X96730387Y-77190428D01*
X96703349Y-77199710D01*
X96633550Y-77202857D01*
X96575409Y-77170108D01*
X95185563Y-75780262D01*
X95152078Y-75718939D01*
X95157062Y-75649247D01*
X95198934Y-75593314D01*
X95241149Y-75572806D01*
X95423663Y-75523903D01*
X95637830Y-75424035D01*
X95831401Y-75288495D01*
X95998495Y-75121401D01*
X96128425Y-74935842D01*
X96183002Y-74892217D01*
X96252500Y-74885023D01*
X96314855Y-74916546D01*
X96331575Y-74935842D01*
X96461500Y-75121395D01*
X96461505Y-75121401D01*
X96628599Y-75288495D01*
X96706153Y-75342799D01*
X96822165Y-75424032D01*
X96822167Y-75424033D01*
X96822170Y-75424035D01*
X97036337Y-75523903D01*
X97264592Y-75585063D01*
X97429021Y-75599449D01*
X97499999Y-75605659D01*
X97500000Y-75605659D01*
X97500001Y-75605659D01*
X97564681Y-75600000D01*
X97735408Y-75585063D01*
X97963663Y-75523903D01*
X98177830Y-75424035D01*
X98371401Y-75288495D01*
X98538495Y-75121401D01*
X98674035Y-74927830D01*
X98773903Y-74713663D01*
X98835063Y-74485408D01*
X98855659Y-74250000D01*
X98835063Y-74014592D01*
X98823086Y-73969893D01*
X98824749Y-73900043D01*
X98855178Y-73850121D01*
X99986183Y-72719116D01*
X100047504Y-72685633D01*
X100087118Y-72683510D01*
X100092514Y-72684090D01*
X100092517Y-72684091D01*
X100152127Y-72690500D01*
X102047872Y-72690499D01*
X102107483Y-72684091D01*
X102132165Y-72674884D01*
X102201856Y-72669899D01*
X102263180Y-72703384D01*
G37*
%TD.AperFunction*%
%TA.AperFunction,Conductor*%
G36*
X92300000Y-122779410D02*
G01*
X92322166Y-122820004D01*
X92325000Y-122846362D01*
X92325000Y-123884314D01*
X92320606Y-123879920D01*
X92229394Y-123827259D01*
X92127661Y-123800000D01*
X92022339Y-123800000D01*
X91920606Y-123827259D01*
X91829394Y-123879920D01*
X91825000Y-123884314D01*
X91825000Y-123440589D01*
X91802834Y-123399996D01*
X91800000Y-123373638D01*
X91800000Y-122295277D01*
X91876306Y-122339333D01*
X91990756Y-122370000D01*
X92109244Y-122370000D01*
X92223694Y-122339333D01*
X92300000Y-122295277D01*
X92300000Y-122779410D01*
G37*
%TD.AperFunction*%
%TA.AperFunction,Conductor*%
G36*
X92300000Y-103448638D02*
G01*
X92280315Y-103515677D01*
X92263681Y-103536319D01*
X92260000Y-103540000D01*
X92260000Y-104034314D01*
X92255606Y-104029920D01*
X92164394Y-103977259D01*
X92062661Y-103950000D01*
X91957339Y-103950000D01*
X91855606Y-103977259D01*
X91764394Y-104029920D01*
X91760000Y-104034314D01*
X91760000Y-103011362D01*
X91779685Y-102944323D01*
X91796319Y-102923681D01*
X91800000Y-102920000D01*
X91800000Y-102385277D01*
X91876306Y-102429333D01*
X91990756Y-102460000D01*
X92109244Y-102460000D01*
X92223694Y-102429333D01*
X92300000Y-102385277D01*
X92300000Y-103448638D01*
G37*
%TD.AperFunction*%
%TA.AperFunction,Conductor*%
G36*
X87839540Y-69320185D02*
G01*
X87885295Y-69372989D01*
X87895239Y-69442147D01*
X87888683Y-69467833D01*
X87845908Y-69582517D01*
X87839590Y-69641286D01*
X87839501Y-69642123D01*
X87839500Y-69642135D01*
X87839500Y-70637870D01*
X87839501Y-70637876D01*
X87845908Y-70697481D01*
X87858659Y-70731669D01*
X87863642Y-70801361D01*
X87858659Y-70818331D01*
X87845908Y-70852518D01*
X87839501Y-70912116D01*
X87839500Y-70912135D01*
X87839500Y-71907870D01*
X87839501Y-71907876D01*
X87845908Y-71967481D01*
X87858659Y-72001669D01*
X87863642Y-72071361D01*
X87858659Y-72088331D01*
X87845908Y-72122518D01*
X87839501Y-72182116D01*
X87839500Y-72182135D01*
X87839500Y-72403836D01*
X87819815Y-72470875D01*
X87803181Y-72491517D01*
X81452180Y-78842518D01*
X81390857Y-78876003D01*
X81321165Y-78871019D01*
X81265232Y-78829147D01*
X81240815Y-78763683D01*
X81240499Y-78754837D01*
X81240499Y-75912129D01*
X81240498Y-75912123D01*
X81240497Y-75912116D01*
X81234091Y-75852517D01*
X81225317Y-75828994D01*
X81183797Y-75717671D01*
X81183793Y-75717664D01*
X81097547Y-75602455D01*
X81097544Y-75602452D01*
X80982335Y-75516206D01*
X80982328Y-75516202D01*
X80847482Y-75465908D01*
X80847483Y-75465908D01*
X80787883Y-75459501D01*
X80787881Y-75459500D01*
X80787873Y-75459500D01*
X80787864Y-75459500D01*
X76892129Y-75459500D01*
X76892123Y-75459501D01*
X76832516Y-75465908D01*
X76697671Y-75516202D01*
X76697664Y-75516206D01*
X76582455Y-75602452D01*
X76582452Y-75602455D01*
X76496206Y-75717664D01*
X76496202Y-75717671D01*
X76445908Y-75852517D01*
X76440983Y-75898331D01*
X76439501Y-75912123D01*
X76439500Y-75912135D01*
X76439500Y-79807870D01*
X76439501Y-79807876D01*
X76445908Y-79867483D01*
X76496202Y-80002328D01*
X76496206Y-80002335D01*
X76582452Y-80117544D01*
X76582455Y-80117547D01*
X76697664Y-80203793D01*
X76697671Y-80203797D01*
X76832517Y-80254091D01*
X76832516Y-80254091D01*
X76839444Y-80254835D01*
X76892127Y-80260500D01*
X79734836Y-80260499D01*
X79801875Y-80280184D01*
X79847630Y-80332987D01*
X79857574Y-80402146D01*
X79828549Y-80465702D01*
X79822517Y-80472180D01*
X75206518Y-85088181D01*
X75145195Y-85121666D01*
X75118837Y-85124500D01*
X74323467Y-85124500D01*
X74192969Y-85150458D01*
X74192959Y-85150461D01*
X74070038Y-85201376D01*
X74070020Y-85201386D01*
X73959398Y-85275301D01*
X73959390Y-85275307D01*
X73047264Y-86187433D01*
X72985941Y-86220918D01*
X72916249Y-86215934D01*
X72860316Y-86174062D01*
X72836293Y-86113003D01*
X72834897Y-86100020D01*
X72834091Y-86092517D01*
X72821340Y-86058332D01*
X72816357Y-85988642D01*
X72821340Y-85971669D01*
X72834091Y-85937483D01*
X72840500Y-85877873D01*
X72840499Y-84882128D01*
X72834091Y-84822517D01*
X72821340Y-84788332D01*
X72816357Y-84718642D01*
X72821340Y-84701669D01*
X72834091Y-84667483D01*
X72840500Y-84607873D01*
X72840499Y-83612128D01*
X72834091Y-83552517D01*
X72821340Y-83518332D01*
X72816357Y-83448642D01*
X72821340Y-83431669D01*
X72834091Y-83397483D01*
X72840500Y-83337873D01*
X72840499Y-82342128D01*
X72834091Y-82282517D01*
X72821340Y-82248332D01*
X72816357Y-82178642D01*
X72821340Y-82161669D01*
X72834091Y-82127483D01*
X72840500Y-82067873D01*
X72840499Y-81072128D01*
X72834091Y-81012517D01*
X72821340Y-80978332D01*
X72816357Y-80908642D01*
X72821340Y-80891669D01*
X72834091Y-80857483D01*
X72840500Y-80797873D01*
X72840499Y-79802128D01*
X72834091Y-79742517D01*
X72821340Y-79708332D01*
X72816357Y-79638642D01*
X72821340Y-79621669D01*
X72834091Y-79587483D01*
X72840500Y-79527873D01*
X72840499Y-78532128D01*
X72834091Y-78472517D01*
X72821340Y-78438332D01*
X72816357Y-78368642D01*
X72821340Y-78351669D01*
X72834091Y-78317483D01*
X72840500Y-78257873D01*
X72840499Y-77262128D01*
X72834091Y-77202517D01*
X72821340Y-77168332D01*
X72816357Y-77098642D01*
X72821340Y-77081669D01*
X72834091Y-77047483D01*
X72840500Y-76987873D01*
X72840499Y-75992128D01*
X72834091Y-75932517D01*
X72821340Y-75898332D01*
X72816357Y-75828642D01*
X72821340Y-75811669D01*
X72834091Y-75777483D01*
X72840500Y-75717873D01*
X72840499Y-74722128D01*
X72834091Y-74662517D01*
X72821340Y-74628332D01*
X72816357Y-74558642D01*
X72821340Y-74541669D01*
X72834091Y-74507483D01*
X72840500Y-74447873D01*
X72840499Y-74129094D01*
X72860183Y-74062057D01*
X72912987Y-74016302D01*
X72982146Y-74006358D01*
X73045701Y-74035383D01*
X73052180Y-74041415D01*
X73663181Y-74652416D01*
X73696666Y-74713739D01*
X73699500Y-74740097D01*
X73699500Y-78017587D01*
X73679815Y-78084626D01*
X73672450Y-78094896D01*
X73670186Y-78097734D01*
X73574211Y-78250476D01*
X73514631Y-78420745D01*
X73514630Y-78420750D01*
X73494435Y-78599996D01*
X73494435Y-78600003D01*
X73514630Y-78779249D01*
X73514631Y-78779254D01*
X73574211Y-78949523D01*
X73639653Y-79053673D01*
X73670184Y-79102262D01*
X73797738Y-79229816D01*
X73950478Y-79325789D01*
X74067129Y-79366607D01*
X74120745Y-79385368D01*
X74120750Y-79385369D01*
X74299996Y-79405565D01*
X74300000Y-79405565D01*
X74300004Y-79405565D01*
X74479249Y-79385369D01*
X74479252Y-79385368D01*
X74479255Y-79385368D01*
X74649522Y-79325789D01*
X74802262Y-79229816D01*
X74929816Y-79102262D01*
X75025789Y-78949522D01*
X75085368Y-78779255D01*
X75087123Y-78763683D01*
X75105565Y-78600003D01*
X75105565Y-78599996D01*
X75085369Y-78420750D01*
X75085368Y-78420745D01*
X75078874Y-78402187D01*
X75025789Y-78250478D01*
X74929816Y-78097738D01*
X74929814Y-78097736D01*
X74929813Y-78097734D01*
X74927550Y-78094896D01*
X74926659Y-78092715D01*
X74926111Y-78091842D01*
X74926264Y-78091745D01*
X74901144Y-78030209D01*
X74900500Y-78017587D01*
X74900500Y-74529059D01*
X74900501Y-74529046D01*
X74900501Y-74360945D01*
X74900501Y-74360943D01*
X74859577Y-74208215D01*
X74820543Y-74140606D01*
X74780520Y-74071284D01*
X74668716Y-73959480D01*
X74668715Y-73959479D01*
X74664385Y-73955149D01*
X74664374Y-73955139D01*
X73027590Y-72318355D01*
X73027588Y-72318352D01*
X72908715Y-72199479D01*
X72898095Y-72193348D01*
X72888799Y-72187981D01*
X72840584Y-72137416D01*
X72834617Y-72123928D01*
X72834091Y-72122517D01*
X72821073Y-72087616D01*
X72816090Y-72017926D01*
X72821075Y-72000949D01*
X72833597Y-71967375D01*
X72833598Y-71967372D01*
X72839999Y-71907844D01*
X72840000Y-71907827D01*
X72840000Y-71660000D01*
X70340000Y-71660000D01*
X70340000Y-71907844D01*
X70346401Y-71967372D01*
X70346403Y-71967379D01*
X70358925Y-72000952D01*
X70363909Y-72070643D01*
X70358925Y-72087617D01*
X70345909Y-72122514D01*
X70345908Y-72122516D01*
X70339501Y-72182116D01*
X70339500Y-72182135D01*
X70339500Y-73177870D01*
X70339501Y-73177876D01*
X70345908Y-73237481D01*
X70358659Y-73271669D01*
X70363642Y-73341361D01*
X70358659Y-73358331D01*
X70345908Y-73392518D01*
X70339501Y-73452116D01*
X70339500Y-73452135D01*
X70339500Y-74447870D01*
X70339501Y-74447876D01*
X70345908Y-74507481D01*
X70358659Y-74541669D01*
X70363642Y-74611361D01*
X70358659Y-74628331D01*
X70345908Y-74662518D01*
X70344851Y-74672354D01*
X70339501Y-74722123D01*
X70339500Y-74722135D01*
X70339500Y-75717870D01*
X70339501Y-75717876D01*
X70345908Y-75777481D01*
X70358659Y-75811669D01*
X70363642Y-75881361D01*
X70358659Y-75898331D01*
X70345908Y-75932518D01*
X70340242Y-75985223D01*
X70339501Y-75992123D01*
X70339500Y-75992135D01*
X70339500Y-76987870D01*
X70339501Y-76987876D01*
X70345908Y-77047481D01*
X70358659Y-77081669D01*
X70363642Y-77151361D01*
X70358659Y-77168331D01*
X70345908Y-77202518D01*
X70339782Y-77259500D01*
X70339501Y-77262123D01*
X70339500Y-77262135D01*
X70339500Y-78257870D01*
X70339501Y-78257876D01*
X70345908Y-78317481D01*
X70358659Y-78351669D01*
X70363642Y-78421361D01*
X70358659Y-78438331D01*
X70345908Y-78472518D01*
X70339501Y-78532116D01*
X70339501Y-78532123D01*
X70339500Y-78532135D01*
X70339500Y-79527870D01*
X70339501Y-79527876D01*
X70345908Y-79587481D01*
X70358659Y-79621669D01*
X70363642Y-79691361D01*
X70358659Y-79708331D01*
X70345908Y-79742518D01*
X70339501Y-79802116D01*
X70339501Y-79802123D01*
X70339500Y-79802135D01*
X70339500Y-80797870D01*
X70339501Y-80797876D01*
X70345908Y-80857481D01*
X70358659Y-80891669D01*
X70363642Y-80961361D01*
X70358659Y-80978331D01*
X70345908Y-81012518D01*
X70339501Y-81072116D01*
X70339501Y-81072123D01*
X70339500Y-81072135D01*
X70339500Y-81133836D01*
X70319815Y-81200875D01*
X70303181Y-81221517D01*
X69912746Y-81611951D01*
X69851423Y-81645436D01*
X69781731Y-81640452D01*
X69725798Y-81598580D01*
X69701537Y-81535079D01*
X69685635Y-81353308D01*
X69626739Y-81133504D01*
X69530568Y-80927266D01*
X69411730Y-80757546D01*
X69400045Y-80740858D01*
X69239141Y-80579954D01*
X69052734Y-80449432D01*
X69052732Y-80449431D01*
X68846497Y-80353261D01*
X68846491Y-80353259D01*
X68637024Y-80297133D01*
X68577364Y-80260768D01*
X68546835Y-80197921D01*
X68555130Y-80128545D01*
X68599615Y-80074667D01*
X68648704Y-80055050D01*
X68844981Y-80022298D01*
X69064503Y-79946936D01*
X69268626Y-79836470D01*
X69305372Y-79807870D01*
X69389337Y-79742517D01*
X69451784Y-79693913D01*
X69608979Y-79523153D01*
X69735924Y-79328849D01*
X69829157Y-79116300D01*
X69886134Y-78891305D01*
X69889519Y-78850459D01*
X69905300Y-78660006D01*
X69905300Y-78659993D01*
X69886135Y-78428702D01*
X69886133Y-78428691D01*
X69829157Y-78203699D01*
X69735924Y-77991151D01*
X69608983Y-77796852D01*
X69608980Y-77796849D01*
X69608979Y-77796847D01*
X69451784Y-77626087D01*
X69451779Y-77626083D01*
X69451777Y-77626081D01*
X69268634Y-77483535D01*
X69268628Y-77483531D01*
X69064504Y-77373064D01*
X69064495Y-77373061D01*
X68844984Y-77297702D01*
X68673282Y-77269050D01*
X68616049Y-77259500D01*
X68383951Y-77259500D01*
X68164828Y-77296064D01*
X68095463Y-77287682D01*
X68056738Y-77261436D01*
X65120609Y-74325307D01*
X65120605Y-74325304D01*
X65009975Y-74251383D01*
X65009965Y-74251378D01*
X64887036Y-74200459D01*
X64887028Y-74200457D01*
X64756535Y-74174500D01*
X64756531Y-74174500D01*
X64382608Y-74174500D01*
X64315569Y-74154815D01*
X64276881Y-74115290D01*
X64199479Y-73988983D01*
X64181234Y-73921538D01*
X64202350Y-73854935D01*
X64230891Y-73824929D01*
X64307546Y-73767546D01*
X64393796Y-73652331D01*
X64444091Y-73517483D01*
X64450500Y-73457873D01*
X64450499Y-71610096D01*
X64470184Y-71543058D01*
X64486818Y-71522416D01*
X65532416Y-70476819D01*
X65593739Y-70443334D01*
X65620097Y-70440500D01*
X66976000Y-70440500D01*
X67043039Y-70460185D01*
X67088794Y-70512989D01*
X67100000Y-70564500D01*
X67100000Y-70790000D01*
X68124722Y-70790000D01*
X68080667Y-70866306D01*
X68050000Y-70980756D01*
X68050000Y-71099244D01*
X68080667Y-71213694D01*
X68124722Y-71290000D01*
X67100000Y-71290000D01*
X67100000Y-71987844D01*
X67106401Y-72047372D01*
X67106403Y-72047379D01*
X67156645Y-72182086D01*
X67156649Y-72182093D01*
X67242809Y-72297187D01*
X67242812Y-72297190D01*
X67357906Y-72383350D01*
X67357913Y-72383354D01*
X67492620Y-72433596D01*
X67492627Y-72433598D01*
X67552155Y-72439999D01*
X67552172Y-72440000D01*
X68250000Y-72440000D01*
X68250000Y-71415277D01*
X68326306Y-71459333D01*
X68440756Y-71490000D01*
X68559244Y-71490000D01*
X68673694Y-71459333D01*
X68750000Y-71415277D01*
X68750000Y-72440000D01*
X69447828Y-72440000D01*
X69447844Y-72439999D01*
X69507372Y-72433598D01*
X69507379Y-72433596D01*
X69642086Y-72383354D01*
X69642093Y-72383350D01*
X69757187Y-72297190D01*
X69757190Y-72297187D01*
X69843350Y-72182093D01*
X69843354Y-72182086D01*
X69893596Y-72047379D01*
X69893598Y-72047372D01*
X69899999Y-71987844D01*
X69900000Y-71987827D01*
X69900000Y-71290000D01*
X68875278Y-71290000D01*
X68919333Y-71213694D01*
X68950000Y-71099244D01*
X68950000Y-70980756D01*
X68919333Y-70866306D01*
X68875278Y-70790000D01*
X69900000Y-70790000D01*
X69900000Y-70564500D01*
X69919685Y-70497461D01*
X69972489Y-70451706D01*
X70024000Y-70440500D01*
X70215501Y-70440500D01*
X70282540Y-70460185D01*
X70328295Y-70512989D01*
X70339501Y-70564500D01*
X70339501Y-70637876D01*
X70345908Y-70697483D01*
X70358925Y-70732381D01*
X70363909Y-70802072D01*
X70358925Y-70819047D01*
X70346403Y-70852619D01*
X70346401Y-70852627D01*
X70340000Y-70912155D01*
X70340000Y-71160000D01*
X72840000Y-71160000D01*
X72840000Y-70912172D01*
X72839999Y-70912155D01*
X72833597Y-70852622D01*
X72833597Y-70852620D01*
X72821075Y-70819048D01*
X72816089Y-70749356D01*
X72821071Y-70732390D01*
X72834091Y-70697483D01*
X72840500Y-70637873D01*
X72840499Y-69642128D01*
X72834091Y-69582517D01*
X72814309Y-69529480D01*
X72791317Y-69467833D01*
X72786333Y-69398141D01*
X72819818Y-69336818D01*
X72881142Y-69303334D01*
X72907499Y-69300500D01*
X87772501Y-69300500D01*
X87839540Y-69320185D01*
G37*
%TD.AperFunction*%
%TA.AperFunction,Conductor*%
G36*
X91954075Y-74057007D02*
G01*
X91920000Y-74184174D01*
X91920000Y-74315826D01*
X91954075Y-74442993D01*
X91986988Y-74500000D01*
X91070000Y-74500000D01*
X91070000Y-75147844D01*
X91076401Y-75207372D01*
X91076403Y-75207379D01*
X91126911Y-75342799D01*
X91131895Y-75412491D01*
X91098410Y-75473814D01*
X91037086Y-75507298D01*
X90967395Y-75502314D01*
X90923048Y-75473813D01*
X90376818Y-74927583D01*
X90343333Y-74866260D01*
X90340499Y-74839902D01*
X90340499Y-74722129D01*
X90340498Y-74722115D01*
X90338083Y-74699654D01*
X90350487Y-74630894D01*
X90398097Y-74579756D01*
X90413908Y-74571841D01*
X90469969Y-74548620D01*
X90580606Y-74474695D01*
X91018982Y-74036319D01*
X91080305Y-74002834D01*
X91106663Y-74000000D01*
X91986988Y-74000000D01*
X91954075Y-74057007D01*
G37*
%TD.AperFunction*%
%TD*%
M02*
