%TF.GenerationSoftware,KiCad,Pcbnew,8.0.7*%
%TF.CreationDate,2025-07-07T17:53:00+05:30*%
%TF.ProjectId,SRF_V1,5352465f-5631-42e6-9b69-6361645f7063,rev?*%
%TF.SameCoordinates,Original*%
%TF.FileFunction,Legend,Top*%
%TF.FilePolarity,Positive*%
%FSLAX46Y46*%
G04 Gerber Fmt 4.6, Leading zero omitted, Abs format (unit mm)*
G04 Created by KiCad (PCBNEW 8.0.7) date 2025-07-07 17:53:00*
%MOMM*%
%LPD*%
G01*
G04 APERTURE LIST*
%ADD10C,0.150000*%
%ADD11C,0.120000*%
G04 APERTURE END LIST*
D10*
X92754819Y-108911904D02*
X93564342Y-108911904D01*
X93564342Y-108911904D02*
X93659580Y-108864285D01*
X93659580Y-108864285D02*
X93707200Y-108816666D01*
X93707200Y-108816666D02*
X93754819Y-108721428D01*
X93754819Y-108721428D02*
X93754819Y-108530952D01*
X93754819Y-108530952D02*
X93707200Y-108435714D01*
X93707200Y-108435714D02*
X93659580Y-108388095D01*
X93659580Y-108388095D02*
X93564342Y-108340476D01*
X93564342Y-108340476D02*
X92754819Y-108340476D01*
X92754819Y-107959523D02*
X92754819Y-107340476D01*
X92754819Y-107340476D02*
X93135771Y-107673809D01*
X93135771Y-107673809D02*
X93135771Y-107530952D01*
X93135771Y-107530952D02*
X93183390Y-107435714D01*
X93183390Y-107435714D02*
X93231009Y-107388095D01*
X93231009Y-107388095D02*
X93326247Y-107340476D01*
X93326247Y-107340476D02*
X93564342Y-107340476D01*
X93564342Y-107340476D02*
X93659580Y-107388095D01*
X93659580Y-107388095D02*
X93707200Y-107435714D01*
X93707200Y-107435714D02*
X93754819Y-107530952D01*
X93754819Y-107530952D02*
X93754819Y-107816666D01*
X93754819Y-107816666D02*
X93707200Y-107911904D01*
X93707200Y-107911904D02*
X93659580Y-107959523D01*
X92804819Y-128761904D02*
X93614342Y-128761904D01*
X93614342Y-128761904D02*
X93709580Y-128714285D01*
X93709580Y-128714285D02*
X93757200Y-128666666D01*
X93757200Y-128666666D02*
X93804819Y-128571428D01*
X93804819Y-128571428D02*
X93804819Y-128380952D01*
X93804819Y-128380952D02*
X93757200Y-128285714D01*
X93757200Y-128285714D02*
X93709580Y-128238095D01*
X93709580Y-128238095D02*
X93614342Y-128190476D01*
X93614342Y-128190476D02*
X92804819Y-128190476D01*
X92900057Y-127761904D02*
X92852438Y-127714285D01*
X92852438Y-127714285D02*
X92804819Y-127619047D01*
X92804819Y-127619047D02*
X92804819Y-127380952D01*
X92804819Y-127380952D02*
X92852438Y-127285714D01*
X92852438Y-127285714D02*
X92900057Y-127238095D01*
X92900057Y-127238095D02*
X92995295Y-127190476D01*
X92995295Y-127190476D02*
X93090533Y-127190476D01*
X93090533Y-127190476D02*
X93233390Y-127238095D01*
X93233390Y-127238095D02*
X93804819Y-127809523D01*
X93804819Y-127809523D02*
X93804819Y-127190476D01*
X78754819Y-83311904D02*
X79564342Y-83311904D01*
X79564342Y-83311904D02*
X79659580Y-83264285D01*
X79659580Y-83264285D02*
X79707200Y-83216666D01*
X79707200Y-83216666D02*
X79754819Y-83121428D01*
X79754819Y-83121428D02*
X79754819Y-82930952D01*
X79754819Y-82930952D02*
X79707200Y-82835714D01*
X79707200Y-82835714D02*
X79659580Y-82788095D01*
X79659580Y-82788095D02*
X79564342Y-82740476D01*
X79564342Y-82740476D02*
X78754819Y-82740476D01*
X79754819Y-81740476D02*
X79754819Y-82311904D01*
X79754819Y-82026190D02*
X78754819Y-82026190D01*
X78754819Y-82026190D02*
X78897676Y-82121428D01*
X78897676Y-82121428D02*
X78992914Y-82216666D01*
X78992914Y-82216666D02*
X79040533Y-82311904D01*
X99507200Y-83233332D02*
X99554819Y-83090475D01*
X99554819Y-83090475D02*
X99554819Y-82852380D01*
X99554819Y-82852380D02*
X99507200Y-82757142D01*
X99507200Y-82757142D02*
X99459580Y-82709523D01*
X99459580Y-82709523D02*
X99364342Y-82661904D01*
X99364342Y-82661904D02*
X99269104Y-82661904D01*
X99269104Y-82661904D02*
X99173866Y-82709523D01*
X99173866Y-82709523D02*
X99126247Y-82757142D01*
X99126247Y-82757142D02*
X99078628Y-82852380D01*
X99078628Y-82852380D02*
X99031009Y-83042856D01*
X99031009Y-83042856D02*
X98983390Y-83138094D01*
X98983390Y-83138094D02*
X98935771Y-83185713D01*
X98935771Y-83185713D02*
X98840533Y-83233332D01*
X98840533Y-83233332D02*
X98745295Y-83233332D01*
X98745295Y-83233332D02*
X98650057Y-83185713D01*
X98650057Y-83185713D02*
X98602438Y-83138094D01*
X98602438Y-83138094D02*
X98554819Y-83042856D01*
X98554819Y-83042856D02*
X98554819Y-82804761D01*
X98554819Y-82804761D02*
X98602438Y-82661904D01*
X98554819Y-82328570D02*
X99554819Y-82090475D01*
X99554819Y-82090475D02*
X98840533Y-81899999D01*
X98840533Y-81899999D02*
X99554819Y-81709523D01*
X99554819Y-81709523D02*
X98554819Y-81471428D01*
X99554819Y-80566666D02*
X99554819Y-81138094D01*
X99554819Y-80852380D02*
X98554819Y-80852380D01*
X98554819Y-80852380D02*
X98697676Y-80947618D01*
X98697676Y-80947618D02*
X98792914Y-81042856D01*
X98792914Y-81042856D02*
X98840533Y-81138094D01*
X65204819Y-86916666D02*
X64728628Y-87249999D01*
X65204819Y-87488094D02*
X64204819Y-87488094D01*
X64204819Y-87488094D02*
X64204819Y-87107142D01*
X64204819Y-87107142D02*
X64252438Y-87011904D01*
X64252438Y-87011904D02*
X64300057Y-86964285D01*
X64300057Y-86964285D02*
X64395295Y-86916666D01*
X64395295Y-86916666D02*
X64538152Y-86916666D01*
X64538152Y-86916666D02*
X64633390Y-86964285D01*
X64633390Y-86964285D02*
X64681009Y-87011904D01*
X64681009Y-87011904D02*
X64728628Y-87107142D01*
X64728628Y-87107142D02*
X64728628Y-87488094D01*
X64204819Y-86011904D02*
X64204819Y-86488094D01*
X64204819Y-86488094D02*
X64681009Y-86535713D01*
X64681009Y-86535713D02*
X64633390Y-86488094D01*
X64633390Y-86488094D02*
X64585771Y-86392856D01*
X64585771Y-86392856D02*
X64585771Y-86154761D01*
X64585771Y-86154761D02*
X64633390Y-86059523D01*
X64633390Y-86059523D02*
X64681009Y-86011904D01*
X64681009Y-86011904D02*
X64776247Y-85964285D01*
X64776247Y-85964285D02*
X65014342Y-85964285D01*
X65014342Y-85964285D02*
X65109580Y-86011904D01*
X65109580Y-86011904D02*
X65157200Y-86059523D01*
X65157200Y-86059523D02*
X65204819Y-86154761D01*
X65204819Y-86154761D02*
X65204819Y-86392856D01*
X65204819Y-86392856D02*
X65157200Y-86488094D01*
X65157200Y-86488094D02*
X65109580Y-86535713D01*
X99054819Y-98316666D02*
X98578628Y-98649999D01*
X99054819Y-98888094D02*
X98054819Y-98888094D01*
X98054819Y-98888094D02*
X98054819Y-98507142D01*
X98054819Y-98507142D02*
X98102438Y-98411904D01*
X98102438Y-98411904D02*
X98150057Y-98364285D01*
X98150057Y-98364285D02*
X98245295Y-98316666D01*
X98245295Y-98316666D02*
X98388152Y-98316666D01*
X98388152Y-98316666D02*
X98483390Y-98364285D01*
X98483390Y-98364285D02*
X98531009Y-98411904D01*
X98531009Y-98411904D02*
X98578628Y-98507142D01*
X98578628Y-98507142D02*
X98578628Y-98888094D01*
X98388152Y-97459523D02*
X99054819Y-97459523D01*
X98007200Y-97697618D02*
X98721485Y-97935713D01*
X98721485Y-97935713D02*
X98721485Y-97316666D01*
X95904819Y-98266666D02*
X95428628Y-98599999D01*
X95904819Y-98838094D02*
X94904819Y-98838094D01*
X94904819Y-98838094D02*
X94904819Y-98457142D01*
X94904819Y-98457142D02*
X94952438Y-98361904D01*
X94952438Y-98361904D02*
X95000057Y-98314285D01*
X95000057Y-98314285D02*
X95095295Y-98266666D01*
X95095295Y-98266666D02*
X95238152Y-98266666D01*
X95238152Y-98266666D02*
X95333390Y-98314285D01*
X95333390Y-98314285D02*
X95381009Y-98361904D01*
X95381009Y-98361904D02*
X95428628Y-98457142D01*
X95428628Y-98457142D02*
X95428628Y-98838094D01*
X94904819Y-97933332D02*
X94904819Y-97314285D01*
X94904819Y-97314285D02*
X95285771Y-97647618D01*
X95285771Y-97647618D02*
X95285771Y-97504761D01*
X95285771Y-97504761D02*
X95333390Y-97409523D01*
X95333390Y-97409523D02*
X95381009Y-97361904D01*
X95381009Y-97361904D02*
X95476247Y-97314285D01*
X95476247Y-97314285D02*
X95714342Y-97314285D01*
X95714342Y-97314285D02*
X95809580Y-97361904D01*
X95809580Y-97361904D02*
X95857200Y-97409523D01*
X95857200Y-97409523D02*
X95904819Y-97504761D01*
X95904819Y-97504761D02*
X95904819Y-97790475D01*
X95904819Y-97790475D02*
X95857200Y-97885713D01*
X95857200Y-97885713D02*
X95809580Y-97933332D01*
X99054819Y-118166666D02*
X98578628Y-118499999D01*
X99054819Y-118738094D02*
X98054819Y-118738094D01*
X98054819Y-118738094D02*
X98054819Y-118357142D01*
X98054819Y-118357142D02*
X98102438Y-118261904D01*
X98102438Y-118261904D02*
X98150057Y-118214285D01*
X98150057Y-118214285D02*
X98245295Y-118166666D01*
X98245295Y-118166666D02*
X98388152Y-118166666D01*
X98388152Y-118166666D02*
X98483390Y-118214285D01*
X98483390Y-118214285D02*
X98531009Y-118261904D01*
X98531009Y-118261904D02*
X98578628Y-118357142D01*
X98578628Y-118357142D02*
X98578628Y-118738094D01*
X98150057Y-117785713D02*
X98102438Y-117738094D01*
X98102438Y-117738094D02*
X98054819Y-117642856D01*
X98054819Y-117642856D02*
X98054819Y-117404761D01*
X98054819Y-117404761D02*
X98102438Y-117309523D01*
X98102438Y-117309523D02*
X98150057Y-117261904D01*
X98150057Y-117261904D02*
X98245295Y-117214285D01*
X98245295Y-117214285D02*
X98340533Y-117214285D01*
X98340533Y-117214285D02*
X98483390Y-117261904D01*
X98483390Y-117261904D02*
X99054819Y-117833332D01*
X99054819Y-117833332D02*
X99054819Y-117214285D01*
X95904819Y-118216666D02*
X95428628Y-118549999D01*
X95904819Y-118788094D02*
X94904819Y-118788094D01*
X94904819Y-118788094D02*
X94904819Y-118407142D01*
X94904819Y-118407142D02*
X94952438Y-118311904D01*
X94952438Y-118311904D02*
X95000057Y-118264285D01*
X95000057Y-118264285D02*
X95095295Y-118216666D01*
X95095295Y-118216666D02*
X95238152Y-118216666D01*
X95238152Y-118216666D02*
X95333390Y-118264285D01*
X95333390Y-118264285D02*
X95381009Y-118311904D01*
X95381009Y-118311904D02*
X95428628Y-118407142D01*
X95428628Y-118407142D02*
X95428628Y-118788094D01*
X95904819Y-117264285D02*
X95904819Y-117835713D01*
X95904819Y-117549999D02*
X94904819Y-117549999D01*
X94904819Y-117549999D02*
X95047676Y-117645237D01*
X95047676Y-117645237D02*
X95142914Y-117740475D01*
X95142914Y-117740475D02*
X95190533Y-117835713D01*
X102160057Y-110385238D02*
X102112438Y-110480476D01*
X102112438Y-110480476D02*
X102017200Y-110575714D01*
X102017200Y-110575714D02*
X101874342Y-110718571D01*
X101874342Y-110718571D02*
X101826723Y-110813809D01*
X101826723Y-110813809D02*
X101826723Y-110909047D01*
X102064819Y-110861428D02*
X102017200Y-110956666D01*
X102017200Y-110956666D02*
X101921961Y-111051904D01*
X101921961Y-111051904D02*
X101731485Y-111099523D01*
X101731485Y-111099523D02*
X101398152Y-111099523D01*
X101398152Y-111099523D02*
X101207676Y-111051904D01*
X101207676Y-111051904D02*
X101112438Y-110956666D01*
X101112438Y-110956666D02*
X101064819Y-110861428D01*
X101064819Y-110861428D02*
X101064819Y-110670952D01*
X101064819Y-110670952D02*
X101112438Y-110575714D01*
X101112438Y-110575714D02*
X101207676Y-110480476D01*
X101207676Y-110480476D02*
X101398152Y-110432857D01*
X101398152Y-110432857D02*
X101731485Y-110432857D01*
X101731485Y-110432857D02*
X101921961Y-110480476D01*
X101921961Y-110480476D02*
X102017200Y-110575714D01*
X102017200Y-110575714D02*
X102064819Y-110670952D01*
X102064819Y-110670952D02*
X102064819Y-110861428D01*
X101064819Y-110099523D02*
X101064819Y-109480476D01*
X101064819Y-109480476D02*
X101445771Y-109813809D01*
X101445771Y-109813809D02*
X101445771Y-109670952D01*
X101445771Y-109670952D02*
X101493390Y-109575714D01*
X101493390Y-109575714D02*
X101541009Y-109528095D01*
X101541009Y-109528095D02*
X101636247Y-109480476D01*
X101636247Y-109480476D02*
X101874342Y-109480476D01*
X101874342Y-109480476D02*
X101969580Y-109528095D01*
X101969580Y-109528095D02*
X102017200Y-109575714D01*
X102017200Y-109575714D02*
X102064819Y-109670952D01*
X102064819Y-109670952D02*
X102064819Y-109956666D01*
X102064819Y-109956666D02*
X102017200Y-110051904D01*
X102017200Y-110051904D02*
X101969580Y-110099523D01*
X97250057Y-126045238D02*
X97202438Y-126140476D01*
X97202438Y-126140476D02*
X97107200Y-126235714D01*
X97107200Y-126235714D02*
X96964342Y-126378571D01*
X96964342Y-126378571D02*
X96916723Y-126473809D01*
X96916723Y-126473809D02*
X96916723Y-126569047D01*
X97154819Y-126521428D02*
X97107200Y-126616666D01*
X97107200Y-126616666D02*
X97011961Y-126711904D01*
X97011961Y-126711904D02*
X96821485Y-126759523D01*
X96821485Y-126759523D02*
X96488152Y-126759523D01*
X96488152Y-126759523D02*
X96297676Y-126711904D01*
X96297676Y-126711904D02*
X96202438Y-126616666D01*
X96202438Y-126616666D02*
X96154819Y-126521428D01*
X96154819Y-126521428D02*
X96154819Y-126330952D01*
X96154819Y-126330952D02*
X96202438Y-126235714D01*
X96202438Y-126235714D02*
X96297676Y-126140476D01*
X96297676Y-126140476D02*
X96488152Y-126092857D01*
X96488152Y-126092857D02*
X96821485Y-126092857D01*
X96821485Y-126092857D02*
X97011961Y-126140476D01*
X97011961Y-126140476D02*
X97107200Y-126235714D01*
X97107200Y-126235714D02*
X97154819Y-126330952D01*
X97154819Y-126330952D02*
X97154819Y-126521428D01*
X96250057Y-125711904D02*
X96202438Y-125664285D01*
X96202438Y-125664285D02*
X96154819Y-125569047D01*
X96154819Y-125569047D02*
X96154819Y-125330952D01*
X96154819Y-125330952D02*
X96202438Y-125235714D01*
X96202438Y-125235714D02*
X96250057Y-125188095D01*
X96250057Y-125188095D02*
X96345295Y-125140476D01*
X96345295Y-125140476D02*
X96440533Y-125140476D01*
X96440533Y-125140476D02*
X96583390Y-125188095D01*
X96583390Y-125188095D02*
X97154819Y-125759523D01*
X97154819Y-125759523D02*
X97154819Y-125140476D01*
X93854761Y-93110057D02*
X93759523Y-93062438D01*
X93759523Y-93062438D02*
X93664285Y-92967200D01*
X93664285Y-92967200D02*
X93521428Y-92824342D01*
X93521428Y-92824342D02*
X93426190Y-92776723D01*
X93426190Y-92776723D02*
X93330952Y-92776723D01*
X93378571Y-93014819D02*
X93283333Y-92967200D01*
X93283333Y-92967200D02*
X93188095Y-92871961D01*
X93188095Y-92871961D02*
X93140476Y-92681485D01*
X93140476Y-92681485D02*
X93140476Y-92348152D01*
X93140476Y-92348152D02*
X93188095Y-92157676D01*
X93188095Y-92157676D02*
X93283333Y-92062438D01*
X93283333Y-92062438D02*
X93378571Y-92014819D01*
X93378571Y-92014819D02*
X93569047Y-92014819D01*
X93569047Y-92014819D02*
X93664285Y-92062438D01*
X93664285Y-92062438D02*
X93759523Y-92157676D01*
X93759523Y-92157676D02*
X93807142Y-92348152D01*
X93807142Y-92348152D02*
X93807142Y-92681485D01*
X93807142Y-92681485D02*
X93759523Y-92871961D01*
X93759523Y-92871961D02*
X93664285Y-92967200D01*
X93664285Y-92967200D02*
X93569047Y-93014819D01*
X93569047Y-93014819D02*
X93378571Y-93014819D01*
X94759523Y-93014819D02*
X94188095Y-93014819D01*
X94473809Y-93014819D02*
X94473809Y-92014819D01*
X94473809Y-92014819D02*
X94378571Y-92157676D01*
X94378571Y-92157676D02*
X94283333Y-92252914D01*
X94283333Y-92252914D02*
X94188095Y-92300533D01*
X79111905Y-95704819D02*
X79111905Y-94704819D01*
X79683333Y-95704819D02*
X79254762Y-95133390D01*
X79683333Y-94704819D02*
X79111905Y-95276247D01*
X80064286Y-94800057D02*
X80111905Y-94752438D01*
X80111905Y-94752438D02*
X80207143Y-94704819D01*
X80207143Y-94704819D02*
X80445238Y-94704819D01*
X80445238Y-94704819D02*
X80540476Y-94752438D01*
X80540476Y-94752438D02*
X80588095Y-94800057D01*
X80588095Y-94800057D02*
X80635714Y-94895295D01*
X80635714Y-94895295D02*
X80635714Y-94990533D01*
X80635714Y-94990533D02*
X80588095Y-95133390D01*
X80588095Y-95133390D02*
X80016667Y-95704819D01*
X80016667Y-95704819D02*
X80635714Y-95704819D01*
X80911905Y-117854819D02*
X80911905Y-116854819D01*
X81483333Y-117854819D02*
X81054762Y-117283390D01*
X81483333Y-116854819D02*
X80911905Y-117426247D01*
X82435714Y-117854819D02*
X81864286Y-117854819D01*
X82150000Y-117854819D02*
X82150000Y-116854819D01*
X82150000Y-116854819D02*
X82054762Y-116997676D01*
X82054762Y-116997676D02*
X81959524Y-117092914D01*
X81959524Y-117092914D02*
X81864286Y-117140533D01*
X60504819Y-99133333D02*
X61219104Y-99133333D01*
X61219104Y-99133333D02*
X61361961Y-99180952D01*
X61361961Y-99180952D02*
X61457200Y-99276190D01*
X61457200Y-99276190D02*
X61504819Y-99419047D01*
X61504819Y-99419047D02*
X61504819Y-99514285D01*
X60504819Y-98180952D02*
X60504819Y-98657142D01*
X60504819Y-98657142D02*
X60981009Y-98704761D01*
X60981009Y-98704761D02*
X60933390Y-98657142D01*
X60933390Y-98657142D02*
X60885771Y-98561904D01*
X60885771Y-98561904D02*
X60885771Y-98323809D01*
X60885771Y-98323809D02*
X60933390Y-98228571D01*
X60933390Y-98228571D02*
X60981009Y-98180952D01*
X60981009Y-98180952D02*
X61076247Y-98133333D01*
X61076247Y-98133333D02*
X61314342Y-98133333D01*
X61314342Y-98133333D02*
X61409580Y-98180952D01*
X61409580Y-98180952D02*
X61457200Y-98228571D01*
X61457200Y-98228571D02*
X61504819Y-98323809D01*
X61504819Y-98323809D02*
X61504819Y-98561904D01*
X61504819Y-98561904D02*
X61457200Y-98657142D01*
X61457200Y-98657142D02*
X61409580Y-98704761D01*
X67954819Y-86183333D02*
X68669104Y-86183333D01*
X68669104Y-86183333D02*
X68811961Y-86230952D01*
X68811961Y-86230952D02*
X68907200Y-86326190D01*
X68907200Y-86326190D02*
X68954819Y-86469047D01*
X68954819Y-86469047D02*
X68954819Y-86564285D01*
X68288152Y-85278571D02*
X68954819Y-85278571D01*
X67907200Y-85516666D02*
X68621485Y-85754761D01*
X68621485Y-85754761D02*
X68621485Y-85135714D01*
X60604819Y-115483333D02*
X61319104Y-115483333D01*
X61319104Y-115483333D02*
X61461961Y-115530952D01*
X61461961Y-115530952D02*
X61557200Y-115626190D01*
X61557200Y-115626190D02*
X61604819Y-115769047D01*
X61604819Y-115769047D02*
X61604819Y-115864285D01*
X60604819Y-115102380D02*
X60604819Y-114483333D01*
X60604819Y-114483333D02*
X60985771Y-114816666D01*
X60985771Y-114816666D02*
X60985771Y-114673809D01*
X60985771Y-114673809D02*
X61033390Y-114578571D01*
X61033390Y-114578571D02*
X61081009Y-114530952D01*
X61081009Y-114530952D02*
X61176247Y-114483333D01*
X61176247Y-114483333D02*
X61414342Y-114483333D01*
X61414342Y-114483333D02*
X61509580Y-114530952D01*
X61509580Y-114530952D02*
X61557200Y-114578571D01*
X61557200Y-114578571D02*
X61604819Y-114673809D01*
X61604819Y-114673809D02*
X61604819Y-114959523D01*
X61604819Y-114959523D02*
X61557200Y-115054761D01*
X61557200Y-115054761D02*
X61509580Y-115102380D01*
X95654819Y-73483333D02*
X96369104Y-73483333D01*
X96369104Y-73483333D02*
X96511961Y-73530952D01*
X96511961Y-73530952D02*
X96607200Y-73626190D01*
X96607200Y-73626190D02*
X96654819Y-73769047D01*
X96654819Y-73769047D02*
X96654819Y-73864285D01*
X95750057Y-73054761D02*
X95702438Y-73007142D01*
X95702438Y-73007142D02*
X95654819Y-72911904D01*
X95654819Y-72911904D02*
X95654819Y-72673809D01*
X95654819Y-72673809D02*
X95702438Y-72578571D01*
X95702438Y-72578571D02*
X95750057Y-72530952D01*
X95750057Y-72530952D02*
X95845295Y-72483333D01*
X95845295Y-72483333D02*
X95940533Y-72483333D01*
X95940533Y-72483333D02*
X96083390Y-72530952D01*
X96083390Y-72530952D02*
X96654819Y-73102380D01*
X96654819Y-73102380D02*
X96654819Y-72483333D01*
X64304819Y-73983333D02*
X65019104Y-73983333D01*
X65019104Y-73983333D02*
X65161961Y-74030952D01*
X65161961Y-74030952D02*
X65257200Y-74126190D01*
X65257200Y-74126190D02*
X65304819Y-74269047D01*
X65304819Y-74269047D02*
X65304819Y-74364285D01*
X65304819Y-72983333D02*
X65304819Y-73554761D01*
X65304819Y-73269047D02*
X64304819Y-73269047D01*
X64304819Y-73269047D02*
X64447676Y-73364285D01*
X64447676Y-73364285D02*
X64542914Y-73459523D01*
X64542914Y-73459523D02*
X64590533Y-73554761D01*
X63261905Y-76994819D02*
X63261905Y-75994819D01*
X63261905Y-75994819D02*
X63500000Y-75994819D01*
X63500000Y-75994819D02*
X63642857Y-76042438D01*
X63642857Y-76042438D02*
X63738095Y-76137676D01*
X63738095Y-76137676D02*
X63785714Y-76232914D01*
X63785714Y-76232914D02*
X63833333Y-76423390D01*
X63833333Y-76423390D02*
X63833333Y-76566247D01*
X63833333Y-76566247D02*
X63785714Y-76756723D01*
X63785714Y-76756723D02*
X63738095Y-76851961D01*
X63738095Y-76851961D02*
X63642857Y-76947200D01*
X63642857Y-76947200D02*
X63500000Y-76994819D01*
X63500000Y-76994819D02*
X63261905Y-76994819D01*
X64690476Y-75994819D02*
X64500000Y-75994819D01*
X64500000Y-75994819D02*
X64404762Y-76042438D01*
X64404762Y-76042438D02*
X64357143Y-76090057D01*
X64357143Y-76090057D02*
X64261905Y-76232914D01*
X64261905Y-76232914D02*
X64214286Y-76423390D01*
X64214286Y-76423390D02*
X64214286Y-76804342D01*
X64214286Y-76804342D02*
X64261905Y-76899580D01*
X64261905Y-76899580D02*
X64309524Y-76947200D01*
X64309524Y-76947200D02*
X64404762Y-76994819D01*
X64404762Y-76994819D02*
X64595238Y-76994819D01*
X64595238Y-76994819D02*
X64690476Y-76947200D01*
X64690476Y-76947200D02*
X64738095Y-76899580D01*
X64738095Y-76899580D02*
X64785714Y-76804342D01*
X64785714Y-76804342D02*
X64785714Y-76566247D01*
X64785714Y-76566247D02*
X64738095Y-76471009D01*
X64738095Y-76471009D02*
X64690476Y-76423390D01*
X64690476Y-76423390D02*
X64595238Y-76375771D01*
X64595238Y-76375771D02*
X64404762Y-76375771D01*
X64404762Y-76375771D02*
X64309524Y-76423390D01*
X64309524Y-76423390D02*
X64261905Y-76471009D01*
X64261905Y-76471009D02*
X64214286Y-76566247D01*
X92504819Y-98538094D02*
X91504819Y-98538094D01*
X91504819Y-98538094D02*
X91504819Y-98299999D01*
X91504819Y-98299999D02*
X91552438Y-98157142D01*
X91552438Y-98157142D02*
X91647676Y-98061904D01*
X91647676Y-98061904D02*
X91742914Y-98014285D01*
X91742914Y-98014285D02*
X91933390Y-97966666D01*
X91933390Y-97966666D02*
X92076247Y-97966666D01*
X92076247Y-97966666D02*
X92266723Y-98014285D01*
X92266723Y-98014285D02*
X92361961Y-98061904D01*
X92361961Y-98061904D02*
X92457200Y-98157142D01*
X92457200Y-98157142D02*
X92504819Y-98299999D01*
X92504819Y-98299999D02*
X92504819Y-98538094D01*
X91504819Y-97061904D02*
X91504819Y-97538094D01*
X91504819Y-97538094D02*
X91981009Y-97585713D01*
X91981009Y-97585713D02*
X91933390Y-97538094D01*
X91933390Y-97538094D02*
X91885771Y-97442856D01*
X91885771Y-97442856D02*
X91885771Y-97204761D01*
X91885771Y-97204761D02*
X91933390Y-97109523D01*
X91933390Y-97109523D02*
X91981009Y-97061904D01*
X91981009Y-97061904D02*
X92076247Y-97014285D01*
X92076247Y-97014285D02*
X92314342Y-97014285D01*
X92314342Y-97014285D02*
X92409580Y-97061904D01*
X92409580Y-97061904D02*
X92457200Y-97109523D01*
X92457200Y-97109523D02*
X92504819Y-97204761D01*
X92504819Y-97204761D02*
X92504819Y-97442856D01*
X92504819Y-97442856D02*
X92457200Y-97538094D01*
X92457200Y-97538094D02*
X92409580Y-97585713D01*
X86454819Y-102411904D02*
X85454819Y-102411904D01*
X86454819Y-101840476D02*
X85883390Y-102269047D01*
X85454819Y-101840476D02*
X86026247Y-102411904D01*
X92504819Y-118438094D02*
X91504819Y-118438094D01*
X91504819Y-118438094D02*
X91504819Y-118199999D01*
X91504819Y-118199999D02*
X91552438Y-118057142D01*
X91552438Y-118057142D02*
X91647676Y-117961904D01*
X91647676Y-117961904D02*
X91742914Y-117914285D01*
X91742914Y-117914285D02*
X91933390Y-117866666D01*
X91933390Y-117866666D02*
X92076247Y-117866666D01*
X92076247Y-117866666D02*
X92266723Y-117914285D01*
X92266723Y-117914285D02*
X92361961Y-117961904D01*
X92361961Y-117961904D02*
X92457200Y-118057142D01*
X92457200Y-118057142D02*
X92504819Y-118199999D01*
X92504819Y-118199999D02*
X92504819Y-118438094D01*
X91838152Y-117009523D02*
X92504819Y-117009523D01*
X91457200Y-117247618D02*
X92171485Y-117485713D01*
X92171485Y-117485713D02*
X92171485Y-116866666D01*
X92704819Y-119461904D02*
X91704819Y-119461904D01*
X92704819Y-118890476D02*
X92133390Y-119319047D01*
X91704819Y-118890476D02*
X92276247Y-119461904D01*
X101554819Y-76188094D02*
X100554819Y-76188094D01*
X100554819Y-76188094D02*
X100554819Y-75949999D01*
X100554819Y-75949999D02*
X100602438Y-75807142D01*
X100602438Y-75807142D02*
X100697676Y-75711904D01*
X100697676Y-75711904D02*
X100792914Y-75664285D01*
X100792914Y-75664285D02*
X100983390Y-75616666D01*
X100983390Y-75616666D02*
X101126247Y-75616666D01*
X101126247Y-75616666D02*
X101316723Y-75664285D01*
X101316723Y-75664285D02*
X101411961Y-75711904D01*
X101411961Y-75711904D02*
X101507200Y-75807142D01*
X101507200Y-75807142D02*
X101554819Y-75949999D01*
X101554819Y-75949999D02*
X101554819Y-76188094D01*
X100554819Y-75283332D02*
X100554819Y-74664285D01*
X100554819Y-74664285D02*
X100935771Y-74997618D01*
X100935771Y-74997618D02*
X100935771Y-74854761D01*
X100935771Y-74854761D02*
X100983390Y-74759523D01*
X100983390Y-74759523D02*
X101031009Y-74711904D01*
X101031009Y-74711904D02*
X101126247Y-74664285D01*
X101126247Y-74664285D02*
X101364342Y-74664285D01*
X101364342Y-74664285D02*
X101459580Y-74711904D01*
X101459580Y-74711904D02*
X101507200Y-74759523D01*
X101507200Y-74759523D02*
X101554819Y-74854761D01*
X101554819Y-74854761D02*
X101554819Y-75140475D01*
X101554819Y-75140475D02*
X101507200Y-75235713D01*
X101507200Y-75235713D02*
X101459580Y-75283332D01*
X101554819Y-74311904D02*
X100554819Y-74311904D01*
X101554819Y-73740476D02*
X100983390Y-74169047D01*
X100554819Y-73740476D02*
X101126247Y-74311904D01*
X75301905Y-91754819D02*
X75301905Y-90754819D01*
X75301905Y-90754819D02*
X75540000Y-90754819D01*
X75540000Y-90754819D02*
X75682857Y-90802438D01*
X75682857Y-90802438D02*
X75778095Y-90897676D01*
X75778095Y-90897676D02*
X75825714Y-90992914D01*
X75825714Y-90992914D02*
X75873333Y-91183390D01*
X75873333Y-91183390D02*
X75873333Y-91326247D01*
X75873333Y-91326247D02*
X75825714Y-91516723D01*
X75825714Y-91516723D02*
X75778095Y-91611961D01*
X75778095Y-91611961D02*
X75682857Y-91707200D01*
X75682857Y-91707200D02*
X75540000Y-91754819D01*
X75540000Y-91754819D02*
X75301905Y-91754819D01*
X76254286Y-90850057D02*
X76301905Y-90802438D01*
X76301905Y-90802438D02*
X76397143Y-90754819D01*
X76397143Y-90754819D02*
X76635238Y-90754819D01*
X76635238Y-90754819D02*
X76730476Y-90802438D01*
X76730476Y-90802438D02*
X76778095Y-90850057D01*
X76778095Y-90850057D02*
X76825714Y-90945295D01*
X76825714Y-90945295D02*
X76825714Y-91040533D01*
X76825714Y-91040533D02*
X76778095Y-91183390D01*
X76778095Y-91183390D02*
X76206667Y-91754819D01*
X76206667Y-91754819D02*
X76825714Y-91754819D01*
X79588095Y-93654819D02*
X79588095Y-92654819D01*
X80159523Y-93654819D02*
X79730952Y-93083390D01*
X80159523Y-92654819D02*
X79588095Y-93226247D01*
X69104819Y-76338094D02*
X68104819Y-76338094D01*
X68104819Y-76338094D02*
X68104819Y-76099999D01*
X68104819Y-76099999D02*
X68152438Y-75957142D01*
X68152438Y-75957142D02*
X68247676Y-75861904D01*
X68247676Y-75861904D02*
X68342914Y-75814285D01*
X68342914Y-75814285D02*
X68533390Y-75766666D01*
X68533390Y-75766666D02*
X68676247Y-75766666D01*
X68676247Y-75766666D02*
X68866723Y-75814285D01*
X68866723Y-75814285D02*
X68961961Y-75861904D01*
X68961961Y-75861904D02*
X69057200Y-75957142D01*
X69057200Y-75957142D02*
X69104819Y-76099999D01*
X69104819Y-76099999D02*
X69104819Y-76338094D01*
X69104819Y-74814285D02*
X69104819Y-75385713D01*
X69104819Y-75099999D02*
X68104819Y-75099999D01*
X68104819Y-75099999D02*
X68247676Y-75195237D01*
X68247676Y-75195237D02*
X68342914Y-75290475D01*
X68342914Y-75290475D02*
X68390533Y-75385713D01*
X69004819Y-74361904D02*
X68004819Y-74361904D01*
X69004819Y-73790476D02*
X68433390Y-74219047D01*
X68004819Y-73790476D02*
X68576247Y-74361904D01*
D11*
%TO.C,U3*%
X90680000Y-107160000D02*
G75*
G02*
X90680000Y-109160000I0J-1000000D01*
G01*
X95880000Y-105510000D02*
X90680000Y-105510000D01*
X90680000Y-105510000D02*
X90680000Y-107160000D01*
X90680000Y-109160000D02*
X90680000Y-110810000D01*
X95880000Y-110810000D02*
X95880000Y-105510000D01*
X90680000Y-110810000D02*
X95880000Y-110810000D01*
%TO.C,U2*%
X90745000Y-130660000D02*
X95945000Y-130660000D01*
X95945000Y-130660000D02*
X95945000Y-125360000D01*
X90745000Y-129010000D02*
X90745000Y-130660000D01*
X90745000Y-125360000D02*
X90745000Y-127010000D01*
X95945000Y-125360000D02*
X90745000Y-125360000D01*
X90745000Y-127010000D02*
G75*
G02*
X90745000Y-129010000I0J-1000000D01*
G01*
%TO.C,U1*%
X71220000Y-62530000D02*
X71220000Y-68690000D01*
X71220000Y-62530000D02*
X89460000Y-62530000D01*
X71220000Y-87490000D02*
X71220000Y-88270000D01*
X71220000Y-88270000D02*
X72220000Y-88270000D01*
X89460000Y-62530000D02*
X89460000Y-68945000D01*
X89460000Y-87490000D02*
X89460000Y-88270000D01*
X89460000Y-88270000D02*
X88460000Y-88270000D01*
X71215000Y-69415000D02*
X70715000Y-69415000D01*
X71215000Y-68915000D01*
X71215000Y-69415000D01*
G36*
X71215000Y-69415000D02*
G01*
X70715000Y-69415000D01*
X71215000Y-68915000D01*
X71215000Y-69415000D01*
G37*
%TO.C,SW1*%
X94100000Y-85400000D02*
X95600000Y-85400000D01*
X98100000Y-84150000D02*
X98100000Y-79650000D01*
X91600000Y-79650000D02*
X91600000Y-84150000D01*
X95600000Y-78400000D02*
X94100000Y-78400000D01*
%TO.C,R5*%
X69770000Y-82120000D02*
X69440000Y-82120000D01*
X67030000Y-82120000D02*
X67360000Y-82120000D01*
X69770000Y-88660000D02*
X69770000Y-82120000D01*
X69440000Y-88660000D02*
X69770000Y-88660000D01*
X67360000Y-88660000D02*
X67030000Y-88660000D01*
X67030000Y-88660000D02*
X67030000Y-82120000D01*
%TO.C,R4*%
X97230000Y-101420000D02*
X97560000Y-101420000D01*
X99970000Y-101420000D02*
X99640000Y-101420000D01*
X97230000Y-94880000D02*
X97230000Y-101420000D01*
X97560000Y-94880000D02*
X97230000Y-94880000D01*
X99640000Y-94880000D02*
X99970000Y-94880000D01*
X99970000Y-94880000D02*
X99970000Y-101420000D01*
%TO.C,R3*%
X94080000Y-101370000D02*
X94080000Y-94830000D01*
X94410000Y-101370000D02*
X94080000Y-101370000D01*
X96490000Y-101370000D02*
X96820000Y-101370000D01*
X96820000Y-101370000D02*
X96820000Y-94830000D01*
X94080000Y-94830000D02*
X94410000Y-94830000D01*
X96820000Y-94830000D02*
X96490000Y-94830000D01*
%TO.C,R2*%
X97230000Y-121290000D02*
X97230000Y-114750000D01*
X97560000Y-121290000D02*
X97230000Y-121290000D01*
X99640000Y-121290000D02*
X99970000Y-121290000D01*
X99970000Y-121290000D02*
X99970000Y-114750000D01*
X97230000Y-114750000D02*
X97560000Y-114750000D01*
X99970000Y-114750000D02*
X99640000Y-114750000D01*
%TO.C,R1*%
X94080000Y-121280000D02*
X94080000Y-114740000D01*
X94410000Y-121280000D02*
X94080000Y-121280000D01*
X96490000Y-121280000D02*
X96820000Y-121280000D01*
X96820000Y-121280000D02*
X96820000Y-114740000D01*
X94080000Y-114740000D02*
X94410000Y-114740000D01*
X96820000Y-114740000D02*
X96490000Y-114740000D01*
%TO.C,Q3*%
X96350000Y-108350000D02*
X96350000Y-112200000D01*
X96350000Y-108350000D02*
G75*
G02*
X96359878Y-112238611I1700000J-1940000D01*
G01*
%TO.C,Q2*%
X96400000Y-123900000D02*
X96400000Y-127750000D01*
X96400000Y-123900000D02*
G75*
G02*
X96409878Y-127788611I1700000J-1940000D01*
G01*
%TO.C,Q1*%
X95890000Y-87300000D02*
G75*
G02*
X92001389Y-87309878I-1940000J-1700000D01*
G01*
X95890000Y-87300000D02*
X92040000Y-87300000D01*
%TO.C,K2*%
X90000000Y-108900000D02*
X90000000Y-102300000D01*
X90000000Y-108900000D02*
X70200000Y-108900000D01*
X90000000Y-99900000D02*
X90000000Y-93300000D01*
X85950000Y-101050000D02*
X86750000Y-101050000D01*
X85950000Y-101050000D02*
X85950000Y-97450000D01*
X85050000Y-95050000D02*
X82550000Y-95050000D01*
X84550000Y-102850000D02*
X80550000Y-102850000D01*
X84550000Y-99250000D02*
X84550000Y-102850000D01*
X82550000Y-107050000D02*
X85050000Y-107050000D01*
X82550000Y-107050000D02*
X82550000Y-102850000D01*
X82550000Y-99250000D02*
X82550000Y-95050000D01*
X80550000Y-102850000D02*
X80550000Y-99250000D01*
X80550000Y-99250000D02*
X84550000Y-102850000D01*
X80550000Y-99250000D02*
X84550000Y-99250000D01*
X79150000Y-101050000D02*
X79150000Y-97450000D01*
X79150000Y-101050000D02*
X77650000Y-101050000D01*
X79150000Y-97450000D02*
X85950000Y-97450000D01*
X77650000Y-101050000D02*
X73050000Y-103550000D01*
X74450000Y-105300000D02*
X74450000Y-102800000D01*
X74450000Y-96900000D02*
X74450000Y-99350000D01*
X70200000Y-108900000D02*
X70200000Y-93300000D01*
X70200000Y-93300000D02*
X90000000Y-93300000D01*
%TO.C,K1*%
X70350000Y-109620000D02*
X90150000Y-109620000D01*
X70350000Y-125220000D02*
X70350000Y-109620000D01*
X74600000Y-113220000D02*
X74600000Y-115670000D01*
X74600000Y-121620000D02*
X74600000Y-119120000D01*
X77800000Y-117370000D02*
X73200000Y-119870000D01*
X79300000Y-113770000D02*
X86100000Y-113770000D01*
X79300000Y-117370000D02*
X77800000Y-117370000D01*
X79300000Y-117370000D02*
X79300000Y-113770000D01*
X80700000Y-115570000D02*
X84700000Y-115570000D01*
X80700000Y-115570000D02*
X84700000Y-119170000D01*
X80700000Y-119170000D02*
X80700000Y-115570000D01*
X82700000Y-115570000D02*
X82700000Y-111370000D01*
X82700000Y-123370000D02*
X82700000Y-119170000D01*
X82700000Y-123370000D02*
X85200000Y-123370000D01*
X84700000Y-115570000D02*
X84700000Y-119170000D01*
X84700000Y-119170000D02*
X80700000Y-119170000D01*
X85200000Y-111370000D02*
X82700000Y-111370000D01*
X86100000Y-117370000D02*
X86100000Y-113770000D01*
X86100000Y-117370000D02*
X86900000Y-117370000D01*
X90150000Y-116220000D02*
X90150000Y-109620000D01*
X90150000Y-125220000D02*
X70350000Y-125220000D01*
X90150000Y-125220000D02*
X90150000Y-118620000D01*
%TO.C,J5*%
X60085000Y-93365000D02*
X59345000Y-93365000D01*
X59345000Y-93365000D02*
X59345000Y-93865000D01*
X69506000Y-93605000D02*
X59585000Y-93605000D01*
X69506000Y-93605000D02*
X69506000Y-103885000D01*
X66546000Y-93605000D02*
X66546000Y-103885000D01*
X61645000Y-93605000D02*
X61645000Y-103885000D01*
X60145000Y-93605000D02*
X60145000Y-103885000D01*
X59585000Y-93605000D02*
X59585000Y-103885000D01*
X63222000Y-100058000D02*
X63176000Y-100011000D01*
X63006000Y-100251000D02*
X62971000Y-100216000D01*
X65520000Y-102355000D02*
X65484000Y-102320000D01*
X65314000Y-102560000D02*
X65268000Y-102513000D01*
X69506000Y-103885000D02*
X59585000Y-103885000D01*
X63561958Y-94669573D02*
G75*
G02*
X64929000Y-94670000I683041J-1535420D01*
G01*
X65780427Y-95521958D02*
G75*
G02*
X65780000Y-96889000I-1535420J-683041D01*
G01*
X62564747Y-96233805D02*
G75*
G02*
X62710000Y-95521000I1680254J28806D01*
G01*
X62710244Y-96888318D02*
G75*
G02*
X62565000Y-96205000I1534756J683318D01*
G01*
X64928042Y-97740427D02*
G75*
G02*
X63561000Y-97740000I-683042J1535427D01*
G01*
X65925000Y-101285000D02*
G75*
G02*
X62565000Y-101285000I-1680000J0D01*
G01*
X62565000Y-101285000D02*
G75*
G02*
X65925000Y-101285000I1680000J0D01*
G01*
%TO.C,J4*%
X65900000Y-90860000D02*
X59580000Y-90860000D01*
X59580000Y-90090000D02*
X59580000Y-90860000D01*
X60140000Y-90090000D02*
X60140000Y-90860000D01*
X59580000Y-87550000D02*
X59580000Y-88510000D01*
X60140000Y-87550000D02*
X60140000Y-88510000D01*
X59580000Y-85010000D02*
X59580000Y-85970000D01*
X60140000Y-85010000D02*
X60140000Y-85970000D01*
X59580000Y-82660000D02*
X59580000Y-83430000D01*
X60140000Y-82660000D02*
X60140000Y-83430000D01*
X65440000Y-82660000D02*
X65440000Y-90860000D01*
X65900000Y-82660000D02*
X65900000Y-90860000D01*
X65900000Y-82660000D02*
X59580000Y-82660000D01*
X59340000Y-82420000D02*
X59340000Y-82920000D01*
X60080000Y-82420000D02*
X59340000Y-82420000D01*
%TO.C,J3*%
X60240000Y-109680000D02*
X59500000Y-109680000D01*
X59500000Y-109680000D02*
X59500000Y-110180000D01*
X69661000Y-109920000D02*
X59740000Y-109920000D01*
X69661000Y-109920000D02*
X69661000Y-120200000D01*
X66701000Y-109920000D02*
X66701000Y-120200000D01*
X61800000Y-109920000D02*
X61800000Y-120200000D01*
X60300000Y-109920000D02*
X60300000Y-120200000D01*
X59740000Y-109920000D02*
X59740000Y-120200000D01*
X63377000Y-116373000D02*
X63331000Y-116326000D01*
X63161000Y-116566000D02*
X63126000Y-116531000D01*
X65675000Y-118670000D02*
X65639000Y-118635000D01*
X65469000Y-118875000D02*
X65423000Y-118828000D01*
X69661000Y-120200000D02*
X59740000Y-120200000D01*
X63716958Y-110984573D02*
G75*
G02*
X65084000Y-110985000I683041J-1535420D01*
G01*
X65935427Y-111836958D02*
G75*
G02*
X65935000Y-113204000I-1535420J-683041D01*
G01*
X62719747Y-112548805D02*
G75*
G02*
X62865000Y-111836000I1680254J28806D01*
G01*
X62865244Y-113203318D02*
G75*
G02*
X62720000Y-112520000I1534756J683318D01*
G01*
X65083042Y-114055427D02*
G75*
G02*
X63716000Y-114055000I-683042J1535427D01*
G01*
X66080000Y-117600000D02*
G75*
G02*
X62720000Y-117600000I-1680000J0D01*
G01*
X62720000Y-117600000D02*
G75*
G02*
X66080000Y-117600000I1680000J0D01*
G01*
%TO.C,J2*%
X91090000Y-70380000D02*
X98830000Y-70380000D01*
X93690000Y-72980000D02*
X91090000Y-72980000D01*
X91090000Y-72980000D02*
X91090000Y-70380000D01*
X98830000Y-75580000D02*
X98830000Y-70380000D01*
X93690000Y-75580000D02*
X93690000Y-72980000D01*
X93690000Y-75580000D02*
X98830000Y-75580000D01*
X92420000Y-75580000D02*
X91090000Y-75580000D01*
X91090000Y-75580000D02*
X91090000Y-74250000D01*
%TO.C,J1*%
X66010000Y-76410000D02*
X59690000Y-76410000D01*
X59690000Y-75640000D02*
X59690000Y-76410000D01*
X60250000Y-75640000D02*
X60250000Y-76410000D01*
X59690000Y-73100000D02*
X59690000Y-74060000D01*
X60250000Y-73100000D02*
X60250000Y-74060000D01*
X59690000Y-70750000D02*
X59690000Y-71520000D01*
X60250000Y-70750000D02*
X60250000Y-71520000D01*
X65550000Y-70750000D02*
X65550000Y-76410000D01*
X66010000Y-70750000D02*
X66010000Y-76410000D01*
X66010000Y-70750000D02*
X59690000Y-70750000D01*
X59450000Y-70510000D02*
X59450000Y-71010000D01*
X60190000Y-70510000D02*
X59450000Y-70510000D01*
%TO.C,D6*%
X65671397Y-80580061D02*
G75*
G02*
X62440000Y-80735516I-1671397J1080061D01*
G01*
X65040910Y-80580049D02*
G75*
G02*
X62959039Y-80580000I-1040910J1080049D01*
G01*
X62959039Y-78420000D02*
G75*
G02*
X65040910Y-78419951I1040961J-1080000D01*
G01*
X62440000Y-78264484D02*
G75*
G02*
X65671397Y-78419939I1560000J-1235516D01*
G01*
X62440000Y-80580000D02*
X62440000Y-80736000D01*
X62440000Y-78264000D02*
X62440000Y-78420000D01*
%TO.C,D5*%
X90580000Y-100920000D02*
X90580000Y-95480000D01*
X90910000Y-100920000D02*
X90580000Y-100920000D01*
X93190000Y-100920000D02*
X93520000Y-100920000D01*
X93520000Y-100920000D02*
X93520000Y-95480000D01*
X90580000Y-100140000D02*
X93520000Y-100140000D01*
X90580000Y-100020000D02*
X93520000Y-100020000D01*
X90580000Y-99900000D02*
X93520000Y-99900000D01*
X90580000Y-95480000D02*
X90910000Y-95480000D01*
X93520000Y-95480000D02*
X93190000Y-95480000D01*
%TO.C,D4*%
X90580000Y-120830000D02*
X90580000Y-115390000D01*
X90910000Y-120830000D02*
X90580000Y-120830000D01*
X93190000Y-120830000D02*
X93520000Y-120830000D01*
X93520000Y-120830000D02*
X93520000Y-115390000D01*
X90580000Y-120050000D02*
X93520000Y-120050000D01*
X90580000Y-119930000D02*
X93520000Y-119930000D01*
X90580000Y-119810000D02*
X93520000Y-119810000D01*
X90580000Y-115390000D02*
X90910000Y-115390000D01*
X93520000Y-115390000D02*
X93190000Y-115390000D01*
%TO.C,D3*%
X99630000Y-77820000D02*
X99960000Y-77820000D01*
X102570000Y-77820000D02*
X102240000Y-77820000D01*
X102570000Y-73400000D02*
X99630000Y-73400000D01*
X102570000Y-73280000D02*
X99630000Y-73280000D01*
X102570000Y-73160000D02*
X99630000Y-73160000D01*
X99630000Y-72380000D02*
X99630000Y-77820000D01*
X99960000Y-72380000D02*
X99630000Y-72380000D01*
X102240000Y-72380000D02*
X102570000Y-72380000D01*
X102570000Y-72380000D02*
X102570000Y-77820000D01*
%TO.C,D2*%
X73320000Y-89830000D02*
X73320000Y-90160000D01*
X73320000Y-92770000D02*
X73320000Y-92440000D01*
X77740000Y-92770000D02*
X77740000Y-89830000D01*
X77860000Y-92770000D02*
X77860000Y-89830000D01*
X77980000Y-92770000D02*
X77980000Y-89830000D01*
X78760000Y-89830000D02*
X73320000Y-89830000D01*
X78760000Y-90160000D02*
X78760000Y-89830000D01*
X78760000Y-92440000D02*
X78760000Y-92770000D01*
X78760000Y-92770000D02*
X73320000Y-92770000D01*
%TO.C,D1*%
X67030000Y-77570000D02*
X67360000Y-77570000D01*
X69970000Y-77570000D02*
X69640000Y-77570000D01*
X69970000Y-73150000D02*
X67030000Y-73150000D01*
X69970000Y-73030000D02*
X67030000Y-73030000D01*
X69970000Y-72910000D02*
X67030000Y-72910000D01*
X67030000Y-72130000D02*
X67030000Y-77570000D01*
X67360000Y-72130000D02*
X67030000Y-72130000D01*
X69640000Y-72130000D02*
X69970000Y-72130000D01*
X69970000Y-72130000D02*
X69970000Y-77570000D01*
%TD*%
M02*
