%TF.GenerationSoftware,KiCad,Pcbnew,8.0.7*%
%TF.CreationDate,2025-07-07T17:53:00+05:30*%
%TF.ProjectId,SRF_V1,5352465f-5631-42e6-9b69-6361645f7063,rev?*%
%TF.SameCoordinates,Original*%
%TF.FileFunction,Soldermask,Top*%
%TF.FilePolarity,Negative*%
%FSLAX46Y46*%
G04 Gerber Fmt 4.6, Leading zero omitted, Abs format (unit mm)*
G04 Created by KiCad (PCBNEW 8.0.7) date 2025-07-07 17:53:00*
%MOMM*%
%LPD*%
G01*
G04 APERTURE LIST*
%ADD10O,1.600000X1.600000*%
%ADD11R,1.600000X1.600000*%
%ADD12R,1.500000X0.900000*%
%ADD13R,0.900000X1.500000*%
%ADD14C,0.600000*%
%ADD15R,3.800000X3.800000*%
%ADD16C,2.000000*%
%ADD17C,1.600000*%
%ADD18R,1.500000X1.050000*%
%ADD19O,1.500000X1.050000*%
%ADD20O,1.050000X1.500000*%
%ADD21R,1.050000X1.500000*%
%ADD22C,3.000000*%
%ADD23C,2.500000*%
%ADD24R,2.600000X2.600000*%
%ADD25C,2.600000*%
%ADD26C,2.200000*%
%ADD27R,2.200000X2.200000*%
%ADD28C,1.100000*%
%ADD29O,1.700000X1.700000*%
%ADD30R,1.700000X1.700000*%
%ADD31C,1.800000*%
%ADD32R,1.800000X1.800000*%
%ADD33O,1.800000X1.800000*%
G04 APERTURE END LIST*
D10*
%TO.C,U3*%
X92010000Y-104350000D03*
X94550000Y-104350000D03*
X94550000Y-111970000D03*
D11*
X92010000Y-111970000D03*
%TD*%
%TO.C,U2*%
X92075000Y-131820000D03*
D10*
X94615000Y-131820000D03*
X94615000Y-124200000D03*
X92075000Y-124200000D03*
%TD*%
D12*
%TO.C,U1*%
X71590000Y-70140000D03*
X71590000Y-71410000D03*
X71590000Y-72680000D03*
X71590000Y-73950000D03*
X71590000Y-75220000D03*
X71590000Y-76490000D03*
X71590000Y-77760000D03*
X71590000Y-79030000D03*
X71590000Y-80300000D03*
X71590000Y-81570000D03*
X71590000Y-82840000D03*
X71590000Y-84110000D03*
X71590000Y-85380000D03*
X71590000Y-86650000D03*
D13*
X74630000Y-87900000D03*
X75900000Y-87900000D03*
X77170000Y-87900000D03*
X78440000Y-87900000D03*
X79710000Y-87900000D03*
X80980000Y-87900000D03*
X82250000Y-87900000D03*
X83520000Y-87900000D03*
X84790000Y-87900000D03*
X86060000Y-87900000D03*
D12*
X89090000Y-86650000D03*
X89090000Y-85380000D03*
X89090000Y-84110000D03*
X89090000Y-82840000D03*
X89090000Y-81570000D03*
X89090000Y-80300000D03*
X89090000Y-79030000D03*
X89090000Y-77760000D03*
X89090000Y-76490000D03*
X89090000Y-75220000D03*
X89090000Y-73950000D03*
X89090000Y-72680000D03*
X89090000Y-71410000D03*
X89090000Y-70140000D03*
D14*
X77440000Y-77160000D03*
X77440000Y-78560000D03*
X78140000Y-76460000D03*
X78140000Y-77860000D03*
X78140000Y-79260000D03*
X78815000Y-77160000D03*
X78815000Y-78560000D03*
D15*
X78840000Y-77860000D03*
D14*
X79540000Y-76460000D03*
X79540000Y-77860000D03*
X79540000Y-79260000D03*
X80240000Y-77160000D03*
X80240000Y-78560000D03*
%TD*%
D16*
%TO.C,SW1*%
X92600000Y-85150000D03*
X92600000Y-78650000D03*
X97100000Y-85150000D03*
X97100000Y-78650000D03*
%TD*%
D10*
%TO.C,R5*%
X68400000Y-81580000D03*
D17*
X68400000Y-89200000D03*
%TD*%
D10*
%TO.C,R4*%
X98600000Y-101960000D03*
D17*
X98600000Y-94340000D03*
%TD*%
%TO.C,R3*%
X95450000Y-101910000D03*
D10*
X95450000Y-94290000D03*
%TD*%
D17*
%TO.C,R2*%
X98600000Y-121830000D03*
D10*
X98600000Y-114210000D03*
%TD*%
D17*
%TO.C,R1*%
X95450000Y-121820000D03*
D10*
X95450000Y-114200000D03*
%TD*%
D18*
%TO.C,Q3*%
X98050000Y-109100000D03*
D19*
X98050000Y-110370000D03*
X98050000Y-111640000D03*
%TD*%
D18*
%TO.C,Q2*%
X98100000Y-124650000D03*
D19*
X98100000Y-125920000D03*
X98100000Y-127190000D03*
%TD*%
D20*
%TO.C,Q1*%
X92600000Y-89000000D03*
X93870000Y-89000000D03*
D21*
X95140000Y-89000000D03*
%TD*%
D22*
%TO.C,K2*%
X88600000Y-101100000D03*
D23*
X86650000Y-95050000D03*
D22*
X74450000Y-95050000D03*
X74400000Y-107100000D03*
D23*
X86650000Y-107050000D03*
%TD*%
%TO.C,K1*%
X86800000Y-123370000D03*
D22*
X74550000Y-123420000D03*
X74600000Y-111370000D03*
D23*
X86800000Y-111370000D03*
D22*
X88750000Y-117420000D03*
%TD*%
D24*
%TO.C,J5*%
X64245000Y-96205000D03*
D25*
X64245000Y-101285000D03*
%TD*%
D26*
%TO.C,J4*%
X62740000Y-89300000D03*
X62740000Y-86760000D03*
D27*
X62740000Y-84220000D03*
D28*
X60200000Y-89300000D03*
X60200000Y-86760000D03*
X60200000Y-84220000D03*
%TD*%
D24*
%TO.C,J3*%
X64400000Y-112520000D03*
D25*
X64400000Y-117600000D03*
%TD*%
D29*
%TO.C,J2*%
X97500000Y-71710000D03*
X97500000Y-74250000D03*
X94960000Y-71710000D03*
X94960000Y-74250000D03*
X92420000Y-71710000D03*
D30*
X92420000Y-74250000D03*
%TD*%
D26*
%TO.C,J1*%
X62850000Y-74850000D03*
D27*
X62850000Y-72310000D03*
D28*
X60310000Y-74850000D03*
X60310000Y-72310000D03*
%TD*%
D31*
%TO.C,D6*%
X65270000Y-79500000D03*
D32*
X62730000Y-79500000D03*
%TD*%
%TO.C,D5*%
X92050000Y-102010000D03*
D33*
X92050000Y-94390000D03*
%TD*%
D32*
%TO.C,D4*%
X92050000Y-121920000D03*
D33*
X92050000Y-114300000D03*
%TD*%
%TO.C,D3*%
X101100000Y-78910000D03*
D32*
X101100000Y-71290000D03*
%TD*%
D33*
%TO.C,D2*%
X72230000Y-91300000D03*
D32*
X79850000Y-91300000D03*
%TD*%
D33*
%TO.C,D1*%
X68500000Y-78660000D03*
D32*
X68500000Y-71040000D03*
%TD*%
M02*
